{"glyphs":{"0":{"ha":769,"x_min":39,"x_max":763,"o":"m 39 365 q 159 764 39 608 q 468 919 279 919 q 687 822 611 919 q 763 539 763 725 q 643 141 763 296 q 335 -14 524 -14 q 115 83 190 -14 q 39 365 39 179 m 540 585 q 517 750 540 699 q 447 801 494 801 q 313 666 364 801 q 261 318 261 531 q 283 154 261 204 q 353 104 306 104 q 488 239 436 104 q 540 585 540 374 z "},"1":{"ha":578,"x_min":63,"x_max":535,"o":"m 418 143 l 419 107 l 522 99 l 499 -7 q 238 0 394 0 l 63 -7 l 69 90 l 192 107 q 221 226 217 199 l 286 672 l 140 618 l 103 704 q 315 854 285 832 l 393 933 l 535 917 q 476 592 486 661 l 429 268 q 418 143 418 207 z "},"2":{"ha":740,"x_min":-7,"x_max":694,"o":"m 528 192 l 554 250 l 571 300 l 678 292 l 628 24 l 582 -4 q 438 0 463 0 l -7 0 l -6 138 q 378 485 290 383 q 467 683 467 588 q 440 758 467 732 q 359 783 413 783 q 243 750 306 783 q 225 697 228 718 l 215 638 l 106 631 l 132 871 q 410 919 272 919 q 622 865 549 919 q 694 708 694 811 q 600 487 694 606 q 265 178 506 368 l 404 178 q 528 192 467 178 z "},"3":{"ha":664,"x_min":-31,"x_max":626,"o":"m 353 919 q 626 714 626 919 q 443 461 626 550 q 556 390 513 446 q 600 264 600 333 q 421 -8 600 111 q -15 -146 242 -126 l -31 -40 q 260 60 149 -21 q 371 258 371 142 q 256 375 371 375 l 172 369 l 168 471 q 352 553 288 492 q 417 706 417 615 q 328 797 417 797 q 226 781 276 797 l 213 738 l 200 653 l 88 646 l 103 879 q 353 919 226 919 z "},"4":{"ha":763,"x_min":19,"x_max":725,"o":"m 590 1026 l 711 910 q 528 736 551 768 l 219 379 l 400 379 l 419 514 l 624 581 l 597 392 l 725 399 l 703 253 l 576 253 l 572 222 q 566 144 564 176 q 567 106 568 111 l 654 97 l 633 -7 q 367 0 518 0 l 210 -7 l 217 89 l 349 106 l 356 131 q 369 183 361 154 q 378 224 376 213 l 382 253 l 104 253 l 19 381 l 590 1026 z "},"5":{"ha":657,"x_min":1,"x_max":647,"o":"m 419 724 l 290 724 q 249 526 274 639 q 332 532 286 532 q 531 472 463 532 q 600 303 600 411 q 17 -146 600 -56 l 1 -43 q 301 74 222 6 q 379 261 379 142 q 246 389 379 389 q 124 369 190 389 l 71 444 l 168 881 l 197 906 l 318 906 l 647 919 l 631 743 q 419 724 460 724 z "},"6":{"ha":747,"x_min":33,"x_max":758,"o":"m 367 461 q 357 460 363 461 l 364 560 q 458 574 406 574 q 639 511 575 574 q 703 338 703 449 q 597 87 703 189 q 344 -15 490 -15 q 116 67 199 -15 q 33 274 33 150 q 81 516 33 397 q 217 741 129 635 q 443 928 304 847 q 749 1038 582 1008 l 758 946 q 526 825 628 904 q 368 651 425 746 q 254 279 254 463 q 276 159 254 206 q 347 113 299 113 q 428 153 396 113 q 479 329 479 218 q 458 426 479 388 q 401 464 438 464 l 367 461 z "},"7":{"ha":689,"x_min":29,"x_max":768,"o":"m 328 906 l 761 906 l 768 810 l 200 -146 l 29 -83 l 422 526 q 471 615 438 550 q 518 722 504 681 l 313 722 q 239 717 300 722 q 211 658 236 707 l 190 594 l 82 599 l 139 890 l 168 918 q 328 906 297 906 z "},"8":{"ha":733,"x_min":19,"x_max":719,"o":"m 242 474 q 121 685 121 561 q 220 878 121 808 q 442 947 319 947 q 642 893 565 947 q 719 746 719 839 q 531 488 719 610 q 678 257 678 390 q 571 55 678 124 q 326 -14 464 -14 q 104 40 189 -14 q 19 199 19 93 q 242 474 19 354 m 221 206 q 249 126 221 156 q 338 97 278 97 q 435 136 397 97 q 474 235 474 175 q 442 330 474 294 q 347 407 410 365 q 221 206 221 314 m 522 740 q 499 810 522 785 q 433 836 475 836 q 356 799 392 836 q 319 708 319 763 q 347 620 319 654 q 428 551 375 586 q 522 740 522 643 z "},"9":{"ha":746,"x_min":19,"x_max":744,"o":"m 321 331 q 140 392 204 331 q 76 567 76 454 q 183 817 76 715 q 434 919 289 919 q 662 837 579 919 q 744 631 744 754 q 698 388 744 508 q 565 159 651 268 q 340 -33 479 50 q 35 -146 201 -117 l 19 -43 q 344 142 232 14 q 492 400 454 268 q 525 610 525 524 q 433 792 525 792 q 351 753 383 792 q 299 575 299 686 q 319 478 299 515 q 378 440 340 440 l 421 444 l 414 344 q 321 331 372 331 z "}," ":{"ha":311,"x_min":0,"x_max":0,"o":""},"!":{"ha":332,"x_min":24,"x_max":356,"o":"m 236 335 l 211 313 q 81 319 176 319 q 94 411 89 369 l 168 989 l 324 1001 l 356 963 q 247 442 279 660 l 236 335 m 24 81 q 24 105 24 81 q 56 172 24 129 q 131 214 88 214 q 195 188 174 214 q 217 113 217 163 q 185 22 217 64 q 110 -21 153 -21 q 45 6 67 -21 q 24 81 24 32 z "},"\"":{"ha":499,"x_min":101,"x_max":503,"o":"m 126 1050 l 281 1050 l 215 711 l 101 718 l 122 847 l 126 1050 m 349 1050 l 503 1050 l 438 711 l 324 718 l 344 847 l 349 1050 z "},"#":{"ha":792,"x_min":40,"x_max":763,"o":"m 543 319 l 699 321 l 679 194 l 507 194 l 444 -21 l 342 -7 l 400 194 l 285 194 l 222 -21 l 119 -7 l 178 194 l 40 194 l 58 314 l 214 315 l 254 456 l 106 454 l 124 581 l 292 581 l 354 794 l 456 781 l 397 581 l 514 581 l 576 794 l 678 781 l 619 581 l 763 581 l 744 461 l 583 460 l 543 319 m 361 457 l 319 317 l 436 318 l 478 458 l 361 457 z "},"$":{"ha":703,"x_min":7,"x_max":729,"o":"m 586 785 q 449 817 506 817 q 364 792 392 817 q 336 723 336 768 q 390 619 336 678 q 506 515 443 561 q 623 403 569 468 q 676 276 676 338 q 585 67 676 149 q 349 -24 494 -15 l 329 -128 l 240 -124 l 260 -21 q 7 76 106 -3 l 104 321 l 192 297 l 165 144 q 309 93 246 93 q 406 122 372 93 q 440 195 440 151 q 416 276 440 239 q 356 342 392 313 q 277 407 319 371 q 199 476 235 443 q 138 557 163 510 q 114 654 114 604 q 203 852 114 785 q 436 925 292 919 l 461 1056 l 549 1051 l 525 924 q 678 903 600 918 l 703 899 l 729 858 l 664 629 l 582 633 l 586 785 z "},"%":{"ha":1210,"x_min":74,"x_max":1171,"o":"m 671 217 q 744 453 671 356 q 961 551 817 551 q 1119 488 1068 551 q 1171 322 1171 424 q 1097 87 1171 185 q 879 -11 1024 -11 q 722 52 772 -11 q 671 217 671 115 m 1015 332 q 947 456 1015 456 q 861 370 897 456 q 825 208 825 285 q 893 85 825 85 q 980 171 944 85 q 1015 332 1015 257 m 74 665 q 144 894 74 799 q 353 989 214 989 q 503 927 454 989 q 553 768 553 865 q 482 539 553 635 q 274 443 411 443 q 122 505 171 443 q 74 665 74 567 m 404 778 q 339 897 404 897 q 258 813 292 897 q 224 656 224 729 q 286 536 224 536 q 369 620 335 536 q 404 778 404 704 m 893 1000 l 978 938 l 261 -68 l 174 -6 l 893 1000 z "},"&":{"ha":842,"x_min":17,"x_max":1054,"o":"m 211 -25 q 68 31 119 -25 q 17 190 17 86 q 67 415 17 293 q 192 617 117 536 q 332 699 267 699 q 564 589 564 699 q 535 475 564 528 q 665 546 610 513 q 668 607 668 588 q 622 854 668 739 l 806 924 q 829 717 829 839 q 826 654 829 696 q 968 772 911 717 l 1054 661 l 1036 608 q 803 508 922 565 q 577 127 743 279 q 211 -25 411 -25 m 289 108 q 498 200 400 108 q 640 433 596 292 q 203 271 379 313 q 200 210 200 250 q 289 108 200 108 m 319 575 q 263 513 292 575 q 215 360 233 450 q 343 432 293 383 q 393 535 393 481 q 319 575 393 575 z "},"'":{"ha":276,"x_min":101,"x_max":281,"o":"m 126 1050 l 281 1050 l 215 711 l 101 718 l 122 847 l 126 1050 z "},"(":{"ha":408,"x_min":31,"x_max":468,"o":"m 468 1007 q 270 671 336 867 q 204 244 204 475 q 303 -126 204 13 l 219 -187 q 31 301 31 14 q 124 719 31 521 q 401 1068 217 917 l 468 1007 z "},")":{"ha":407,"x_min":-47,"x_max":389,"o":"m 215 613 q 117 1007 215 865 l 200 1068 q 389 575 389 865 q 295 160 389 357 q 18 -187 201 -37 l -47 -126 q 149 210 82 17 q 215 613 215 404 z "},"*":{"ha":554,"x_min":83,"x_max":540,"o":"m 464 632 l 354 689 q 340 633 340 636 l 329 561 l 233 550 l 240 686 q 192 665 194 668 l 126 629 l 83 711 l 197 790 l 163 824 l 110 861 l 160 954 l 269 897 l 283 951 l 294 1025 l 390 1036 l 382 899 q 433 921 413 911 l 497 957 l 540 875 l 425 794 l 463 761 l 514 725 l 464 632 z "},"+":{"ha":807,"x_min":35,"x_max":771,"o":"m 463 286 l 424 0 l 278 0 l 319 285 l 35 282 l 56 428 l 340 428 l 382 710 l 521 710 l 482 428 l 771 428 l 751 289 l 463 286 z "},",":{"ha":307,"x_min":-28,"x_max":225,"o":"m 31 74 q 62 175 31 136 q 144 214 93 214 q 225 115 225 214 q 160 -76 225 17 q -19 -189 94 -168 l -28 -144 q 103 -14 78 -107 q 31 74 31 -10 z "},"-":{"ha":351,"x_min":24,"x_max":347,"o":"m 347 418 l 322 286 l 24 286 l 39 418 l 347 418 z "},".":{"ha":303,"x_min":21,"x_max":214,"o":"m 21 81 q 21 105 21 81 q 53 172 21 129 q 128 214 85 214 q 192 188 171 214 q 214 113 214 163 q 182 22 214 64 q 107 -21 150 -21 q 42 6 64 -21 q 21 81 21 32 z "},"/":{"ha":522,"x_min":-54,"x_max":656,"o":"m 68 -90 l -54 -49 l 533 1074 l 656 1032 l 68 -90 z "},":":{"ha":301,"x_min":21,"x_max":281,"o":"m 21 78 q 21 102 21 78 q 53 167 21 126 q 127 208 85 208 q 190 183 169 208 q 211 110 211 158 q 179 21 211 63 q 106 -21 147 -21 q 42 5 64 -21 q 21 78 21 31 m 90 547 q 90 570 90 547 q 122 635 90 594 q 197 676 154 676 q 260 651 239 676 q 281 578 281 626 q 249 489 281 531 q 175 447 217 447 q 112 473 133 447 q 90 547 90 499 z "},";":{"ha":285,"x_min":-42,"x_max":279,"o":"m 86 567 q 86 591 86 567 q 118 658 86 615 q 193 700 150 700 q 258 674 236 700 q 279 599 279 649 q 247 508 279 550 q 172 465 215 465 q 108 492 129 465 q 86 567 86 518 m 17 74 q 48 175 17 136 q 131 214 79 214 q 211 115 211 214 q 146 -76 211 17 q -33 -189 81 -168 l -42 -144 q 89 -14 64 -107 q 17 74 17 -10 z "},"<":{"ha":668,"x_min":56,"x_max":594,"o":"m 413 -21 l 56 346 l 519 713 l 594 608 l 258 346 l 518 83 l 413 -21 z "},"=":{"ha":813,"x_min":60,"x_max":751,"o":"m 731 407 l 99 400 l 119 547 l 751 547 l 731 407 m 693 143 l 60 136 l 81 283 l 713 283 l 693 143 z "},">":{"ha":668,"x_min":72,"x_max":613,"o":"m 254 711 l 613 344 l 147 -22 l 72 82 l 410 344 l 149 607 l 254 711 z "},"?":{"ha":586,"x_min":74,"x_max":617,"o":"m 282 546 q 400 615 356 546 q 444 758 444 683 q 329 907 444 907 q 239 885 275 907 l 206 756 l 126 750 l 142 956 q 370 1010 260 1010 q 549 951 481 1010 q 617 781 617 892 q 528 540 617 631 q 301 446 439 450 l 290 335 l 264 313 q 136 318 225 318 l 132 322 l 158 503 l 206 550 q 282 546 239 546 m 74 81 q 74 105 74 81 q 106 172 74 129 q 181 214 138 214 q 245 188 224 214 q 267 113 267 163 q 235 22 267 64 q 160 -21 203 -21 q 95 6 117 -21 q 74 81 74 32 z "},"@":{"ha":1289,"x_min":32,"x_max":1267,"o":"m 436 -25 q 352 38 381 -25 q 324 203 324 100 q 370 428 324 307 q 492 628 417 549 q 646 708 568 708 q 749 695 681 708 q 829 681 817 682 l 942 708 l 996 669 q 906 96 914 350 q 1058 241 1003 144 q 1113 475 1113 338 q 1003 742 1113 646 q 724 838 894 838 q 436 747 554 838 q 262 513 318 656 q 206 194 206 371 q 301 -79 206 17 q 575 -175 397 -175 q 817 -158 619 -175 l 878 -154 l 888 -228 q 507 -289 674 -289 q 160 -172 288 -289 q 32 203 32 -54 q 226 731 32 536 q 753 926 419 926 q 1129 816 992 926 q 1267 495 1267 706 q 1114 138 1267 285 q 735 -26 961 -10 l 686 0 q 774 299 757 188 q 620 64 708 153 q 436 -25 532 -25 m 622 564 q 551 460 585 564 q 517 238 517 357 q 554 151 517 151 q 675 268 604 151 q 768 526 746 385 q 622 564 679 564 z "},"A":{"ha":899,"x_min":-43,"x_max":864,"o":"m 864 90 l 843 -7 q 732 0 781 0 l 450 -7 l 458 94 l 539 107 l 544 179 l 536 249 l 285 249 l 250 160 l 235 107 l 310 90 l 289 -7 q 144 0 210 0 l -43 -7 l -36 94 l 25 104 l 99 224 l 461 979 l 619 994 l 772 178 l 790 103 l 864 90 m 482 692 l 339 363 l 518 365 l 482 692 z "},"B":{"ha":876,"x_min":25,"x_max":865,"o":"m 303 979 l 585 993 q 785 936 706 993 q 865 782 865 879 q 799 612 865 685 q 633 515 733 539 l 632 506 q 780 438 725 492 q 835 297 835 385 q 726 72 835 150 q 460 -7 618 -7 l 154 0 l 25 -7 l 32 90 l 118 107 q 147 226 142 174 l 222 711 q 233 816 233 782 q 232 865 233 850 l 153 882 l 175 986 q 303 979 238 979 m 426 107 q 568 163 513 107 q 624 299 624 218 q 580 413 624 381 q 468 444 536 444 l 456 444 l 482 565 l 490 565 q 612 617 564 565 q 660 757 660 668 q 625 844 660 810 q 535 879 590 879 q 465 874 510 879 q 443 753 457 839 l 369 268 q 350 111 354 174 q 426 107 388 107 z "},"C":{"ha":861,"x_min":47,"x_max":890,"o":"m 461 -21 q 153 92 260 -21 q 47 399 47 206 q 193 832 47 664 q 601 1000 339 1000 q 890 953 710 1000 l 838 704 l 733 710 l 742 794 q 733 851 743 807 q 579 871 649 871 q 451 828 510 871 q 361 714 393 785 q 296 385 296 572 q 339 184 296 260 q 466 108 382 108 q 643 129 550 108 q 653 147 644 132 q 675 197 675 190 l 689 263 l 792 265 l 768 26 q 461 -21 574 -21 z "},"D":{"ha":997,"x_min":17,"x_max":992,"o":"m 297 979 l 578 993 q 885 880 779 993 q 992 576 992 767 q 847 155 992 318 q 440 -8 703 -8 l 150 0 l 17 -7 l 24 90 l 114 107 q 143 226 140 199 l 214 711 q 225 842 225 772 l 225 865 l 140 882 l 163 986 q 297 979 232 979 m 546 878 q 457 867 521 878 q 447 816 457 865 q 436 753 438 767 l 365 268 q 347 111 354 203 q 431 107 385 107 q 592 150 524 107 q 694 267 660 193 q 761 588 761 406 q 710 798 761 718 q 546 878 658 878 z "},"E":{"ha":833,"x_min":17,"x_max":838,"o":"m 294 979 l 660 979 l 815 993 l 838 968 l 815 751 l 717 744 l 717 826 q 708 860 717 843 q 603 865 656 865 l 457 865 q 447 811 456 857 q 436 753 438 765 l 407 554 q 440 553 419 553 l 514 553 q 574 565 542 553 l 599 654 l 682 647 q 664 532 668 560 l 643 356 l 553 347 l 553 431 q 469 439 497 439 l 431 439 q 390 438 399 439 l 365 268 q 347 121 356 211 l 514 121 q 618 132 563 121 q 653 192 638 161 q 679 271 671 236 l 774 264 l 718 19 l 689 -6 q 536 0 564 0 l 151 0 l 17 -7 l 24 90 l 114 107 q 131 162 119 118 q 143 226 142 206 l 214 711 q 226 820 226 788 q 225 865 226 853 l 140 882 l 163 986 q 294 979 244 979 z "},"F":{"ha":768,"x_min":17,"x_max":838,"o":"m 603 865 l 457 865 q 447 811 456 857 q 436 753 438 765 l 404 539 q 435 538 418 538 l 511 538 q 571 550 531 538 l 596 639 l 681 632 q 663 517 665 544 l 640 340 l 551 332 l 551 415 q 468 424 494 424 l 419 424 q 388 422 397 424 l 364 264 q 353 151 353 183 q 354 107 353 119 l 481 99 l 458 -7 q 150 0 306 0 l 17 -7 l 24 90 l 114 107 q 131 162 119 118 q 143 226 142 206 l 214 711 q 226 822 226 790 q 225 865 226 853 l 140 882 l 163 986 q 294 979 229 979 l 660 979 l 815 993 l 838 968 l 815 751 l 717 744 l 717 826 l 710 858 q 603 865 643 865 z "},"G":{"ha":946,"x_min":49,"x_max":931,"o":"m 624 1000 q 931 953 742 1000 l 879 724 l 772 729 l 778 794 q 769 851 779 807 q 610 871 681 871 q 431 799 503 871 q 297 393 297 667 q 346 186 297 264 q 497 108 394 108 q 626 119 556 108 q 644 178 642 160 l 658 272 l 657 357 l 515 368 l 542 504 l 692 504 l 851 508 l 885 474 q 844 272 854 342 l 808 26 q 483 -21 628 -21 q 160 94 272 -21 q 49 403 49 208 q 199 833 49 667 q 624 1000 350 1000 z "},"H":{"ha":1119,"x_min":17,"x_max":1146,"o":"m 1146 986 l 1136 874 l 1047 865 q 1018 753 1025 799 l 949 268 q 936 107 936 200 l 1021 99 l 999 -7 q 733 0 889 0 l 600 -7 l 607 90 l 697 107 q 710 160 697 110 q 726 226 724 210 l 754 419 l 388 419 l 365 268 q 354 107 354 199 l 438 99 l 415 -7 q 150 0 306 0 l 17 -7 l 24 90 l 114 107 q 143 226 140 193 l 214 711 q 225 865 217 726 l 140 882 l 163 986 q 294 979 229 979 l 563 986 l 553 874 l 464 865 q 436 753 444 806 l 404 540 l 774 546 l 797 711 q 808 865 800 731 l 724 882 l 746 986 q 878 979 813 979 l 1146 986 z "},"I":{"ha":550,"x_min":24,"x_max":569,"o":"m 569 986 l 560 874 l 471 865 q 442 753 449 799 l 372 268 q 360 107 360 200 l 444 99 l 422 -7 q 157 0 313 0 l 24 -7 l 31 90 l 121 107 q 134 160 121 110 q 150 226 147 210 l 221 711 q 232 865 224 731 l 147 882 l 169 986 q 301 979 236 979 l 569 986 z "},"J":{"ha":504,"x_min":-43,"x_max":546,"o":"m 536 874 l 447 865 q 418 753 425 799 l 311 14 q 226 -99 306 -19 q 26 -278 147 -179 l -43 -235 q 96 15 92 -12 l 197 711 q 208 865 208 790 l 124 882 l 146 986 q 278 979 213 979 l 546 986 l 536 874 z "},"K":{"ha":1017,"x_min":21,"x_max":1051,"o":"m 990 99 l 968 -7 q 690 0 844 0 l 565 -7 l 572 90 l 625 101 q 564 228 564 226 l 403 490 l 664 801 l 711 874 l 672 882 l 694 986 q 824 979 756 979 l 1051 986 l 1042 874 l 965 865 q 850 758 907 815 l 640 514 q 867 179 779 313 q 928 107 876 165 l 990 99 m 558 986 l 549 874 l 464 865 q 436 753 444 806 l 365 268 q 354 107 354 199 l 432 99 l 410 -7 q 149 0 303 0 l 21 -7 l 28 90 l 114 107 q 143 226 140 193 l 214 711 q 225 865 217 726 l 146 882 l 167 986 q 293 979 226 979 l 558 986 z "},"L":{"ha":764,"x_min":17,"x_max":739,"o":"m 354 121 l 479 121 q 583 132 531 121 q 644 271 628 207 l 739 264 l 683 19 l 654 -6 q 501 0 528 0 l 150 0 l 17 -7 l 24 90 l 114 107 q 143 226 140 193 l 214 711 q 225 865 217 726 l 140 882 l 163 986 q 294 979 229 979 l 563 986 l 553 874 l 464 865 q 436 753 444 806 l 365 268 q 354 121 354 190 z "},"M":{"ha":1325,"x_min":7,"x_max":1303,"o":"m 1144 183 l 1150 103 l 1238 94 l 1217 -7 q 971 0 1119 0 l 833 -7 l 840 86 l 932 103 q 956 225 940 142 l 1007 719 l 657 0 l 528 0 l 396 719 l 299 225 q 286 103 289 174 l 375 94 l 351 -7 q 143 0 292 0 l 7 -7 l 14 86 l 107 103 q 136 183 128 157 l 264 790 q 267 869 267 824 l 181 886 l 201 986 q 340 979 281 979 l 539 979 l 561 951 q 588 742 579 793 l 660 307 l 875 763 l 957 951 l 988 979 l 1125 979 l 1303 986 l 1293 886 l 1206 871 q 1190 790 1196 829 l 1144 183 z "},"N":{"ha":1085,"x_min":17,"x_max":1144,"o":"m 296 979 l 439 979 l 460 951 q 547 746 532 776 l 778 319 l 835 711 q 844 865 844 783 l 761 882 l 783 986 l 918 979 l 1144 986 l 1135 874 l 1046 865 q 1018 753 1026 806 l 908 0 l 718 0 l 379 625 l 326 268 q 315 107 315 186 l 400 99 l 378 -7 q 151 0 307 0 l 17 -7 l 24 90 l 114 107 q 143 226 138 172 l 214 711 q 225 865 225 781 l 142 882 l 163 986 q 296 979 229 979 z "},"O":{"ha":1038,"x_min":49,"x_max":1032,"o":"m 1032 572 q 874 140 1032 307 q 469 -26 717 -26 q 162 91 275 -26 q 49 406 49 208 q 206 838 49 671 q 611 1006 364 1006 q 919 888 806 1006 q 1032 572 1032 771 m 294 376 q 485 108 294 108 q 712 239 639 108 q 785 601 785 369 q 596 871 785 871 q 367 740 440 871 q 294 376 294 608 z "},"P":{"ha":840,"x_min":17,"x_max":869,"o":"m 314 979 l 590 993 q 794 925 719 993 q 869 735 869 857 q 744 474 869 572 q 451 376 618 376 l 381 376 l 365 268 q 354 107 354 199 l 451 99 l 429 -7 q 150 0 306 0 l 17 -7 l 24 90 l 114 107 q 143 226 140 193 l 214 711 q 225 865 217 726 l 140 882 l 163 986 q 294 979 229 979 l 314 979 m 415 490 q 583 555 521 490 q 646 735 646 619 q 609 844 646 808 q 493 879 572 879 q 458 878 474 879 q 436 753 440 790 l 397 490 l 415 490 z "},"Q":{"ha":1046,"x_min":49,"x_max":1032,"o":"m 469 -26 q 162 91 275 -26 q 49 406 49 208 q 206 838 49 671 q 611 1006 364 1006 q 919 888 806 1006 q 1032 575 1032 771 q 943 233 1032 379 q 699 19 854 88 l 781 -44 l 979 -139 l 831 -311 l 496 -26 l 469 -26 m 294 376 q 485 108 294 108 q 712 239 639 108 q 785 601 785 369 q 596 871 785 871 q 367 740 440 871 q 294 376 294 608 z "},"R":{"ha":914,"x_min":17,"x_max":882,"o":"m 310 979 l 597 993 q 805 926 728 993 q 882 749 882 858 q 824 560 882 640 q 671 435 767 481 q 757 228 706 338 q 815 104 808 119 l 881 99 l 860 -7 q 596 0 753 0 q 551 161 564 128 l 469 385 l 451 385 q 389 389 425 385 l 371 268 q 358 107 358 190 l 447 99 l 424 -7 q 156 0 313 0 l 17 -7 l 24 90 l 118 107 q 147 226 144 193 l 222 711 q 233 865 233 789 l 144 882 l 167 986 q 310 979 240 979 m 500 879 q 471 878 483 879 l 443 753 l 406 501 l 439 501 q 658 736 658 501 q 500 879 658 879 z "},"S":{"ha":774,"x_min":24,"x_max":765,"o":"m 196 307 q 182 203 182 213 q 193 153 182 194 q 327 114 257 114 q 442 149 397 114 q 488 239 488 183 q 449 332 488 294 q 355 398 410 369 q 245 459 300 426 q 151 549 190 492 q 113 683 113 607 q 214 913 113 826 q 463 1000 315 1000 q 765 950 611 1000 l 708 682 l 594 689 q 610 794 610 789 q 600 839 610 800 q 492 871 553 871 q 390 837 432 871 q 349 751 349 803 q 388 665 349 700 q 481 602 426 631 q 592 541 536 574 q 686 453 647 508 q 725 322 725 397 q 612 73 725 167 q 333 -21 499 -21 q 175 -4 253 -21 q 61 29 97 13 l 24 46 l 83 314 l 196 307 z "},"T":{"ha":846,"x_min":71,"x_max":915,"o":"m 793 731 q 796 794 796 774 q 789 858 796 825 q 688 865 731 865 l 619 865 q 592 753 599 799 l 521 268 q 510 107 510 189 l 593 99 l 571 -7 q 307 0 461 0 l 172 -7 l 179 90 l 269 107 q 300 226 294 192 l 369 711 q 381 865 381 772 l 318 865 q 210 858 279 865 q 188 810 194 829 q 168 731 181 790 l 71 738 l 114 968 l 143 993 q 294 979 268 979 l 738 979 l 893 993 l 915 968 l 892 738 l 793 731 z "},"U":{"ha":1054,"x_min":114,"x_max":1107,"o":"m 781 85 q 723 32 781 85 q 474 -21 664 -21 q 197 85 283 -21 q 133 290 133 165 q 139 372 133 329 l 188 711 q 200 819 200 786 q 199 865 200 853 l 114 882 l 136 986 q 268 979 203 979 l 543 986 l 533 874 l 444 865 q 417 753 422 803 l 358 361 q 356 315 356 338 q 386 200 356 249 q 525 138 429 138 q 672 194 621 138 q 739 361 724 251 l 790 711 q 801 865 792 722 l 717 882 l 739 986 q 872 979 806 979 l 1107 986 l 1097 874 l 1008 865 q 981 753 989 813 l 925 372 q 781 85 899 190 z "},"V":{"ha":954,"x_min":78,"x_max":1039,"o":"m 346 0 l 181 801 l 157 876 l 78 889 l 99 986 q 221 979 171 979 l 508 986 l 500 885 l 411 872 l 410 800 l 489 288 l 735 819 q 751 872 746 844 l 669 889 l 690 986 q 839 979 774 979 l 1039 986 l 1031 885 l 964 875 q 886 756 906 797 l 507 0 l 346 0 z "},"W":{"ha":1388,"x_min":82,"x_max":1468,"o":"m 1460 885 l 1393 875 q 1322 756 1349 811 l 981 0 l 821 0 l 733 588 l 474 0 l 313 0 l 179 801 l 161 876 l 82 889 l 103 986 q 225 979 175 979 l 513 986 l 504 885 l 415 872 q 408 800 408 851 l 453 288 l 724 938 l 882 938 l 960 288 l 1172 819 q 1181 872 1183 847 l 1099 889 l 1119 986 q 1268 979 1204 979 l 1468 986 l 1460 885 z "},"X":{"ha":938,"x_min":-40,"x_max":996,"o":"m 369 476 l 156 878 l 88 889 l 110 986 q 236 979 185 979 l 501 986 l 489 883 l 436 876 q 475 771 457 806 l 531 651 l 642 803 q 692 878 658 824 l 642 889 l 664 986 q 800 979 735 979 l 996 986 l 986 883 l 897 872 q 808 790 824 808 l 601 525 l 786 183 q 840 106 838 108 l 904 99 l 882 -7 q 608 0 771 0 l 499 -7 l 507 90 l 556 100 q 518 197 532 175 l 439 351 l 307 183 q 254 104 293 167 l 317 99 l 293 -7 q 89 0 207 0 l -40 -7 l -32 90 l 40 103 q 167 228 144 200 l 369 476 z "},"Y":{"ha":964,"x_min":71,"x_max":1050,"o":"m 1042 885 l 961 875 q 860 756 888 800 l 590 339 l 581 268 q 569 107 569 186 l 654 99 l 632 -7 q 367 0 522 0 l 233 -7 l 240 90 l 331 107 q 344 160 331 110 q 360 226 357 210 l 378 353 l 201 801 q 158 865 190 832 l 149 876 l 71 889 l 92 986 q 213 979 163 979 l 500 986 l 492 885 l 421 872 q 431 800 424 826 l 531 513 l 724 819 l 735 872 l 681 889 l 701 986 q 850 979 786 979 l 1050 986 l 1042 885 z "},"Z":{"ha":829,"x_min":13,"x_max":835,"o":"m 358 856 q 247 849 317 856 l 225 810 q 190 704 201 750 l 93 711 l 136 968 l 167 993 q 319 979 293 979 l 835 979 l 833 868 l 660 644 l 406 294 l 299 124 l 506 124 q 619 135 564 124 q 685 282 669 217 l 776 275 l 722 19 l 690 -6 q 536 0 564 0 l 13 0 l 14 111 q 193 329 154 272 l 479 717 l 563 856 l 358 856 z "},"[":{"ha":368,"x_min":-28,"x_max":411,"o":"m 274 835 l 161 56 q 154 -69 154 4 l 249 -82 l 232 -174 q 0 -168 94 -168 l -28 -128 q 15 131 13 103 l 108 765 l 139 1018 l 178 1058 l 411 1064 l 403 972 l 306 960 q 274 835 282 890 z "},"\\":{"ha":553,"x_min":101,"x_max":460,"o":"m 460 -49 l 332 -90 l 101 1032 l 228 1074 l 460 -49 z "},"]":{"ha":368,"x_min":-43,"x_max":396,"o":"m 93 56 l 206 835 q 213 960 213 886 l 118 972 l 135 1064 q 368 1058 272 1058 l 396 1018 q 351 765 356 793 l 258 131 l 228 -128 l 189 -168 l -43 -174 l -35 -82 l 61 -69 q 93 56 85 0 z "},"^":{"ha":792,"x_min":51,"x_max":790,"o":"m 494 1017 l 790 518 l 660 436 l 463 803 l 161 436 l 51 518 l 494 1017 z "},"_":{"ha":700,"x_min":-6,"x_max":708,"o":"m -6 -322 l 8 -190 l 708 -190 l 683 -322 l -6 -322 z "},"`":{"ha":485,"x_min":156,"x_max":499,"o":"m 499 865 l 435 785 l 344 853 l 156 943 l 219 1049 l 499 865 z "},"a":{"ha":768,"x_min":26,"x_max":721,"o":"m 138 -25 q 54 38 82 -25 q 26 204 26 100 q 73 429 26 308 q 195 629 119 550 q 349 708 271 708 q 453 695 385 708 q 533 681 521 682 l 646 708 l 701 669 q 613 117 624 367 l 721 107 l 715 33 l 436 -25 l 388 0 q 478 299 461 190 q 322 65 411 154 q 138 -25 233 -25 m 258 154 q 377 269 307 154 q 471 525 447 383 q 325 561 379 561 q 254 460 288 561 q 221 239 221 358 q 258 154 221 154 z "},"b":{"ha":714,"x_min":24,"x_max":696,"o":"m 585 704 q 668 642 640 704 q 696 475 696 579 q 649 250 696 371 q 527 50 603 129 q 374 -29 451 -29 q 204 -4 342 -29 l 72 -25 l 24 0 q 120 478 81 196 q 172 938 160 761 l 78 950 l 74 1024 l 349 1069 l 396 1031 q 290 468 310 590 q 428 640 353 576 q 585 704 504 704 m 397 117 q 467 218 435 117 q 500 440 500 319 q 493 504 500 483 q 464 525 486 525 q 345 410 415 525 q 251 154 275 296 q 397 117 347 117 z "},"c":{"ha":539,"x_min":10,"x_max":549,"o":"m 326 699 q 514 686 419 699 l 549 632 l 500 406 l 424 410 l 424 540 q 318 563 363 563 q 240 447 278 563 q 203 207 203 331 q 272 115 203 115 q 443 221 338 115 l 508 165 q 367 28 451 81 q 195 -24 282 -24 q 59 31 108 -25 q 10 192 10 88 q 60 417 10 296 q 185 618 110 538 q 326 699 260 699 z "},"d":{"ha":768,"x_min":26,"x_max":747,"o":"m 138 -25 q 54 38 82 -25 q 26 204 26 100 q 73 429 26 308 q 195 629 119 550 q 349 708 271 708 q 496 688 378 708 q 524 938 518 844 l 414 950 l 410 1024 l 700 1069 l 747 1031 q 601 118 658 594 l 721 107 l 715 33 l 436 -25 l 388 0 q 478 297 451 169 q 322 64 410 153 q 138 -25 233 -25 m 325 561 q 254 460 288 561 q 221 239 221 358 q 258 154 221 154 q 377 269 307 154 q 471 525 447 383 q 325 561 379 561 z "},"e":{"ha":586,"x_min":10,"x_max":585,"o":"m 361 699 q 585 575 585 699 q 483 382 585 464 q 204 269 382 300 q 201 210 201 249 q 276 110 201 110 q 372 144 317 110 q 471 224 428 179 l 535 168 q 379 30 474 85 q 199 -25 285 -25 q 62 27 114 -25 q 10 188 10 79 q 67 417 10 296 q 207 618 124 538 q 361 699 290 699 m 333 574 q 267 512 300 574 q 217 358 235 450 q 356 431 304 381 q 407 535 407 482 q 333 574 407 574 z "},"f":{"ha":456,"x_min":-246,"x_max":706,"o":"m 131 -225 q 93 -256 131 -225 q -17 -306 56 -286 q -150 -326 -89 -326 q -246 -322 -211 -326 l -185 -167 q -104 -175 -132 -175 q 31 -142 -10 -175 q 76 -39 57 -119 q 103 88 94 42 q 124 215 113 135 q 140 338 135 296 q 156 467 146 381 q 169 575 167 554 l 47 575 l 57 667 q 165 708 153 700 q 183 725 176 715 q 200 764 193 742 q 349 985 232 901 q 625 1069 467 1069 l 706 1061 l 646 911 q 562 919 600 919 q 481 908 524 919 q 428 881 439 897 q 375 686 406 846 l 524 686 l 494 575 l 354 575 q 316 307 336 463 q 281 66 296 151 q 246 -67 267 -19 q 131 -225 206 -164 z "},"g":{"ha":717,"x_min":-39,"x_max":700,"o":"m -39 -289 l 21 -124 q 239 -176 133 -176 q 383 -142 344 -176 q 406 -10 406 -122 q 436 117 406 3 q 474 293 467 232 q 320 63 408 150 q 136 -25 232 -25 q 53 38 82 -25 q 25 205 25 101 q 72 429 25 308 q 194 629 118 550 q 349 708 271 708 q 454 695 386 708 q 533 681 522 682 l 646 708 l 700 669 q 588 21 643 463 q 531 -151 575 -79 q 425 -258 488 -222 q 169 -326 307 -326 q -39 -289 31 -326 m 325 561 q 254 460 288 561 q 221 239 221 358 q 257 154 221 154 q 377 269 307 154 q 469 525 447 383 q 325 561 381 561 z "},"h":{"ha":806,"x_min":24,"x_max":758,"o":"m 624 708 q 706 676 676 708 q 735 587 735 644 q 702 363 735 529 q 663 114 669 196 l 758 107 l 753 33 l 474 -25 l 426 0 q 533 468 533 372 q 504 529 533 529 q 397 445 457 529 q 294 244 338 361 q 239 28 250 126 l 235 0 l 75 -25 l 24 0 q 120 478 81 196 q 172 938 160 761 l 78 950 l 74 1024 l 349 1069 l 396 1031 q 353 803 381 944 q 275 375 299 524 q 624 708 422 708 z "},"i":{"ha":426,"x_min":47,"x_max":406,"o":"m 317 708 l 371 669 q 272 117 303 401 l 381 107 l 375 33 l 94 -25 l 47 0 q 146 571 128 301 l 50 576 l 51 649 l 317 708 m 314 1036 q 406 944 406 1036 q 371 855 406 896 q 290 814 336 814 q 199 903 199 814 q 233 994 199 953 q 314 1036 268 1036 z "},"j":{"ha":418,"x_min":-83,"x_max":406,"o":"m 314 708 l 369 669 q 303 354 325 486 q 253 -21 282 222 q 193 -112 250 -51 q 113 -197 136 -174 q 38 -272 90 -221 q -18 -326 -14 -322 l -83 -279 q 6 -98 -39 -199 q 54 19 51 3 q 143 571 131 340 l 49 576 l 49 649 l 314 708 m 313 1036 q 406 944 406 1036 q 370 855 406 896 q 289 814 335 814 q 197 903 197 814 q 232 994 197 953 q 313 1036 267 1036 z "},"k":{"ha":753,"x_min":24,"x_max":742,"o":"m 619 708 q 742 592 742 708 q 503 299 742 410 q 636 118 569 185 l 731 107 l 725 33 l 489 -25 l 331 246 l 331 314 q 491 404 433 350 q 549 521 549 458 q 513 560 549 560 q 358 408 442 560 q 238 0 263 232 l 76 -25 l 24 0 q 112 435 67 153 q 172 938 157 718 l 78 950 l 74 1024 l 349 1069 l 396 1031 q 341 741 381 944 q 286 443 301 538 q 442 633 347 557 q 619 708 538 708 z "},"l":{"ha":404,"x_min":24,"x_max":396,"o":"m 349 1069 l 396 1031 q 253 117 283 415 l 357 107 l 351 33 l 72 -25 l 24 0 q 120 478 81 196 q 172 938 160 761 l 78 950 l 74 1024 l 349 1069 z "},"m":{"ha":1211,"x_min":38,"x_max":1164,"o":"m 632 708 q 715 676 685 708 q 744 598 744 643 q 735 482 744 553 q 1029 708 864 708 q 1111 676 1082 708 q 1140 587 1140 644 q 1108 363 1140 529 q 1068 114 1075 196 l 1164 107 l 1158 33 l 879 -25 l 832 0 q 939 468 939 372 q 910 529 939 529 q 806 449 864 529 q 705 253 749 368 q 647 39 661 139 l 643 0 l 483 -25 l 435 0 q 543 468 543 378 q 513 529 543 529 q 413 455 468 529 q 315 273 357 381 q 256 67 272 165 l 246 0 l 85 -25 l 38 0 q 146 571 131 339 l 51 576 l 51 649 l 317 708 l 371 669 q 293 397 319 515 q 632 708 438 708 z "},"n":{"ha":821,"x_min":38,"x_max":774,"o":"m 636 708 q 719 676 689 708 q 749 585 749 643 q 716 362 749 528 q 676 117 683 196 l 774 107 l 768 33 l 489 -25 l 439 0 q 547 468 547 367 q 517 529 547 529 q 365 375 449 529 q 256 65 282 221 q 246 0 254 57 l 85 -25 l 38 0 q 146 571 131 349 l 51 576 l 51 649 l 317 708 l 371 669 q 293 397 319 515 q 636 708 439 708 z "},"o":{"ha":675,"x_min":21,"x_max":651,"o":"m 424 708 q 593 643 535 708 q 651 451 651 578 q 533 115 651 254 q 249 -25 415 -25 q 79 41 138 -25 q 21 232 21 107 q 139 569 21 429 q 424 708 257 708 m 379 579 q 264 490 304 579 q 224 238 224 401 q 242 140 224 175 q 294 104 261 104 q 408 193 368 104 q 449 446 449 282 q 430 544 449 508 q 379 579 411 579 z "},"p":{"ha":718,"x_min":-8,"x_max":704,"o":"m 593 708 q 676 645 647 708 q 704 478 704 582 q 658 254 704 375 q 535 54 611 133 q 381 -25 458 -25 q 244 -6 349 -25 q 200 -360 217 -201 l 39 -385 l -8 -360 q 84 108 44 -165 q 136 571 124 381 l 39 576 l 39 649 l 304 708 l 360 669 q 300 479 322 560 q 593 708 438 708 m 406 122 q 475 224 442 122 q 508 444 508 325 q 472 529 508 529 q 352 415 422 529 q 260 158 282 300 q 406 122 349 122 z "},"q":{"ha":714,"x_min":26,"x_max":686,"o":"m 138 -25 q 54 38 82 -25 q 26 204 26 100 q 73 429 26 308 q 195 629 119 550 q 349 708 271 708 q 447 696 379 708 q 524 682 514 683 l 632 708 l 686 669 q 542 -247 618 424 l 650 -257 l 644 -331 l 365 -389 l 317 -364 q 381 -92 363 -190 q 422 92 400 7 q 454 253 443 178 q 308 51 390 126 q 138 -25 226 -25 m 325 561 q 255 460 288 561 q 222 239 222 360 q 222 228 222 233 q 258 154 222 154 q 377 269 307 154 q 471 525 447 383 q 325 561 379 561 z "},"r":{"ha":590,"x_min":38,"x_max":629,"o":"m 560 708 q 594 701 569 708 l 629 647 l 569 385 l 493 389 l 492 518 q 369 388 436 493 q 268 161 303 282 l 246 0 l 85 -25 l 38 0 q 146 571 129 346 l 51 576 l 51 649 l 317 708 l 371 669 q 278 392 301 504 q 419 617 338 525 q 560 708 501 708 z "},"s":{"ha":567,"x_min":-4,"x_max":556,"o":"m 349 708 q 497 692 414 708 l 525 686 l 556 632 l 501 453 l 428 457 l 425 575 q 329 608 383 608 q 287 592 303 608 q 271 548 271 575 q 309 481 271 521 q 392 406 347 442 q 476 318 438 371 q 514 213 514 265 q 435 42 514 108 q 239 -25 356 -25 q 10 43 122 -25 l -4 106 l 63 271 l 129 253 l 126 124 q 231 82 174 82 q 304 158 304 82 q 224 267 304 200 q 157 326 190 294 q 76 501 76 404 q 149 653 76 597 q 349 708 221 708 z "},"t":{"ha":458,"x_min":43,"x_max":490,"o":"m 463 575 l 336 575 q 271 117 297 344 l 408 107 l 403 33 l 94 -25 l 47 0 q 150 575 117 276 l 43 575 l 54 665 q 100 683 67 671 q 194 721 176 708 q 272 822 221 738 l 289 850 l 381 821 l 356 686 l 490 686 l 463 575 z "},"u":{"ha":799,"x_min":31,"x_max":760,"o":"m 371 81 q 273 3 328 32 q 162 -25 218 -25 q 76 7 106 -25 q 47 95 47 39 q 84 317 47 151 q 126 571 121 483 l 31 576 l 31 649 l 296 708 l 351 669 q 249 215 249 314 q 278 154 249 154 q 394 249 331 154 q 540 615 494 400 q 551 683 549 657 l 711 708 l 760 683 q 643 117 657 296 l 751 107 l 746 33 l 467 -25 l 418 0 q 507 297 492 194 q 371 81 453 175 z "},"v":{"ha":692,"x_min":33,"x_max":708,"o":"m 419 77 q 359 26 419 77 q 182 -25 299 -25 q 65 74 65 -25 q 97 273 65 113 q 128 474 128 433 q 125 571 128 515 l 33 576 l 33 649 l 260 708 l 317 669 l 317 524 q 289 341 317 496 q 261 167 261 186 q 294 131 261 131 q 442 248 369 131 q 514 488 514 365 q 507 571 514 490 l 419 576 l 419 649 l 654 708 l 708 669 q 619 342 700 504 q 419 77 539 179 z "},"w":{"ha":1088,"x_min":17,"x_max":1111,"o":"m 942 208 q 906 158 942 208 q 773 41 871 107 q 574 -25 675 -25 q 474 74 474 -25 q 476 149 474 85 q 165 -25 333 -25 q 49 74 49 -25 q 80 273 49 113 q 111 473 111 433 q 108 571 111 513 l 17 576 l 17 649 l 244 708 l 300 669 l 300 524 q 272 341 300 496 q 244 158 244 186 q 278 131 244 131 q 437 244 367 131 q 507 488 507 357 q 486 682 507 510 l 640 707 l 688 682 l 696 524 q 672 341 696 496 q 647 166 647 186 q 658 138 647 146 q 681 131 668 131 q 840 247 763 131 q 917 488 917 364 q 910 571 917 501 l 822 576 l 822 649 l 1057 708 l 1111 669 q 1059 433 1106 556 q 942 208 1013 310 z "},"x":{"ha":707,"x_min":-36,"x_max":721,"o":"m 713 678 l 721 557 q 658 534 699 547 q 613 517 618 521 q 449 353 593 506 q 550 118 494 235 l 679 107 l 674 33 l 426 -25 l 378 0 q 306 208 336 128 q 242 144 288 189 q 174 75 196 99 l 42 -22 l -1 8 l -36 114 q 100 172 75 156 q 258 329 125 188 q 143 571 201 471 l 53 576 l 38 647 l 283 708 l 339 669 q 403 476 363 589 l 465 539 q 536 611 513 586 l 668 708 l 713 678 z "},"y":{"ha":749,"x_min":-7,"x_max":732,"o":"m -7 -289 l 53 -124 q 273 -176 168 -176 q 415 -142 378 -176 q 439 -7 439 -121 q 470 123 439 6 q 506 296 501 240 q 358 67 446 160 q 158 -25 271 -25 q 76 7 106 -25 q 47 95 47 39 q 84 317 47 151 q 126 571 121 483 l 31 576 l 31 649 l 296 708 l 351 669 q 249 215 249 314 q 278 154 249 154 q 416 283 344 154 q 531 571 488 413 l 435 576 l 435 649 l 678 708 l 732 669 q 619 21 679 479 q 563 -151 607 -79 q 457 -258 519 -222 q 201 -326 339 -326 q -7 -289 63 -326 z "},"z":{"ha":631,"x_min":-8,"x_max":638,"o":"m 97 708 l 524 676 l 604 697 l 638 633 q 269 113 404 338 q 472 131 394 113 q 529 256 486 165 l 599 235 q 589 168 594 210 q 567 26 581 108 l 519 -18 l 117 0 l 46 -18 l -8 35 q 374 561 236 331 q 160 544 225 560 l 125 440 l 51 444 l 63 654 l 97 708 z "},"{":{"ha":401,"x_min":18,"x_max":458,"o":"m 269 381 l 208 56 q 201 -69 201 7 l 296 -82 l 279 -174 q 46 -168 142 -168 l 18 -128 l 129 358 q 83 394 115 376 q 36 411 50 411 l 51 479 q 99 497 63 479 q 156 531 136 514 l 186 1018 l 225 1058 l 458 1064 l 450 972 l 353 960 q 321 835 329 890 l 288 510 q 199 458 247 478 l 183 451 l 182 439 q 269 381 233 419 z "},"|":{"ha":388,"x_min":39,"x_max":347,"o":"m 169 -169 l 39 -157 l 217 1056 l 347 1044 l 169 -169 z "},"}":{"ha":401,"x_min":-57,"x_max":382,"o":"m 131 510 l 192 835 q 199 960 199 886 l 104 972 l 121 1064 q 354 1058 258 1058 l 382 1018 l 269 532 q 317 497 285 514 q 364 479 349 479 l 349 411 q 300 394 338 411 q 243 358 263 376 l 214 -128 l 175 -168 l -57 -174 l -49 -82 l 47 -69 q 79 56 71 0 l 113 381 q 201 433 153 413 l 217 439 l 218 451 q 131 510 167 471 z "},"~":{"ha":839,"x_min":63,"x_max":747,"o":"m 712 338 q 701 325 712 338 q 640 267 690 311 q 553 222 590 222 q 392 264 517 222 q 242 306 268 306 q 146 256 194 306 l 129 238 l 63 300 q 98 345 76 318 q 169 417 119 372 q 250 461 219 461 q 422 419 301 461 q 569 378 543 378 q 664 428 615 378 l 681 446 l 747 383 q 712 338 733 365 z "}," ":{"ha":311,"x_min":0,"x_max":0,"o":""},"¡":{"ha":332,"x_min":-24,"x_max":307,"o":"m 94 350 l 119 372 q 250 365 154 365 q 236 274 242 315 l 163 -304 l 6 -317 l -24 -278 q 83 243 51 25 l 94 350 m 114 572 q 114 597 114 572 q 146 663 114 621 q 221 706 178 706 q 285 680 264 706 q 307 605 307 654 q 275 513 307 556 q 200 471 243 471 q 135 497 157 471 q 114 572 114 524 z "},"¢":{"ha":701,"x_min":43,"x_max":683,"o":"m 453 700 q 310 608 354 700 q 265 381 265 515 q 404 225 265 225 q 490 236 447 225 q 553 258 532 247 l 574 269 l 610 189 q 368 90 496 99 l 340 -54 l 251 -54 l 279 93 q 43 368 43 122 q 142 674 43 551 q 411 808 240 797 l 440 953 l 528 953 l 501 807 q 660 782 588 799 l 683 776 l 626 535 l 522 535 l 535 610 l 538 664 q 453 700 501 700 z "},"£":{"ha":831,"x_min":28,"x_max":857,"o":"m 213 649 q 332 853 232 781 q 571 926 432 926 q 857 896 710 926 l 782 629 l 700 633 l 704 797 q 567 814 624 814 q 469 776 511 814 q 418 678 426 738 l 401 567 l 668 578 l 657 489 l 389 476 l 378 404 l 654 417 l 643 328 l 365 314 l 358 268 q 347 121 347 197 l 517 121 q 633 133 571 121 l 700 267 l 781 260 l 731 31 l 685 -10 q 540 0 568 0 l 149 0 l 33 -4 l 28 86 l 121 101 q 151 226 147 199 l 163 306 l 69 301 l 81 392 l 176 396 l 186 467 l 83 463 l 94 553 l 199 557 l 213 649 z "},"¥":{"ha":815,"x_min":36,"x_max":939,"o":"m 128 463 l 139 553 l 225 556 l 154 739 l 101 808 l 36 819 l 47 913 q 164 906 115 906 l 438 913 l 424 817 l 358 804 q 371 738 367 751 l 456 494 l 626 756 l 639 804 l 585 821 l 599 913 q 746 906 685 906 l 939 913 l 924 817 l 851 807 q 754 696 768 717 l 672 574 l 754 578 l 743 489 l 610 483 l 561 410 l 740 417 l 729 328 l 511 318 l 500 239 q 489 101 499 229 l 568 93 l 553 -7 q 308 0 457 0 l 174 -7 l 169 85 l 268 101 q 275 129 269 106 q 287 177 281 153 q 294 213 293 201 l 307 310 l 114 301 l 125 392 l 288 399 l 260 468 l 128 463 z "},"¦":{"ha":388,"x_min":39,"x_max":347,"o":"m 274 544 l 143 556 l 217 1056 l 347 1044 l 274 544 m 106 294 l 236 285 l 169 -169 l 39 -157 l 106 294 z "},"§":{"ha":613,"x_min":-18,"x_max":618,"o":"m 492 754 l 490 810 l 490 867 q 371 897 432 897 q 322 875 342 897 q 301 824 301 853 q 348 756 301 794 q 449 682 394 717 q 551 593 504 647 q 597 489 597 539 q 583 401 597 439 q 550 338 569 363 q 478 268 513 289 l 464 260 l 419 299 q 450 373 450 342 q 415 438 450 404 q 331 504 381 472 q 232 573 282 536 q 147 665 182 610 q 113 783 113 719 q 192 942 113 885 q 385 1000 271 1000 q 561 983 482 1000 l 588 978 l 618 924 l 564 749 l 492 754 m 213 538 q 186 472 186 507 q 219 403 186 438 q 301 336 253 368 q 397 267 349 304 q 478 178 444 231 q 511 63 511 125 q 418 -99 511 -40 q 206 -158 325 -158 q 94 -146 150 -158 q 11 -122 39 -133 l -18 -110 l 33 93 l 106 88 l 110 29 l 115 -29 q 215 -56 165 -56 q 292 -36 265 -56 q 319 13 319 -17 q 290 72 319 43 q 219 128 261 100 q 134 190 176 157 q 63 265 92 222 q 33 353 33 308 q 48 438 33 397 q 93 515 63 479 q 147 564 124 550 l 169 578 l 213 538 z "},"¨":{"ha":485,"x_min":72,"x_max":578,"o":"m 181 1007 q 258 928 258 1007 q 230 846 258 878 q 158 814 201 814 q 93 835 114 814 q 72 900 72 857 q 101 975 72 943 q 181 1007 131 1007 m 500 1007 q 578 928 578 1007 q 549 846 578 878 q 477 814 521 814 q 413 835 433 814 q 393 900 393 857 q 422 975 393 943 q 500 1007 450 1007 z "},"©":{"ha":1174,"x_min":79,"x_max":1094,"o":"m 588 854 q 693 854 588 854 q 947 707 799 854 q 1094 350 1094 560 q 945 -10 1094 140 q 587 -160 796 -160 q 228 -12 378 -160 q 79 346 79 135 q 228 706 79 557 q 588 854 378 854 m 587 -64 q 672 -64 587 -64 q 877 57 757 -64 q 997 347 997 178 q 876 637 997 515 q 586 758 756 758 q 296 639 417 758 q 175 349 175 519 q 296 57 175 178 q 587 -64 417 -64 m 604 61 q 384 140 460 61 q 308 352 308 219 q 384 564 308 485 q 604 643 460 643 q 785 615 664 643 l 772 464 l 704 467 l 700 521 q 690 550 700 531 q 604 558 640 558 q 479 352 479 558 q 603 146 479 146 q 701 157 650 146 q 714 192 714 188 l 718 231 l 783 232 l 790 89 q 604 61 669 61 z "},"ª":{"ha":522,"x_min":90,"x_max":557,"o":"m 306 1086 q 429 1068 321 1086 l 506 1086 l 544 1060 q 486 703 494 867 l 557 697 l 553 646 l 361 608 l 328 625 q 392 825 382 760 q 288 667 349 728 q 161 607 228 607 q 108 649 125 607 q 90 749 90 690 q 158 978 90 869 q 306 1086 225 1086 m 249 735 q 324 803 281 735 q 383 961 368 871 q 289 983 324 983 q 247 922 267 983 q 226 783 226 860 q 249 735 226 735 z "},"«":{"ha":606,"x_min":22,"x_max":607,"o":"m 531 76 l 429 14 l 264 336 l 522 658 l 607 596 l 422 336 l 531 76 m 281 658 l 365 596 l 181 336 l 289 76 l 188 14 l 22 336 l 281 658 z "},"¬":{"ha":813,"x_min":93,"x_max":746,"o":"m 114 428 l 746 428 l 697 90 l 564 90 l 596 293 l 93 288 l 114 428 z "},"®":{"ha":1174,"x_min":79,"x_max":1094,"o":"m 588 854 q 693 854 588 854 q 947 707 799 854 q 1094 350 1094 560 q 945 -10 1094 140 q 587 -160 796 -160 q 228 -12 378 -160 q 79 346 79 135 q 228 706 79 557 q 588 854 378 854 m 587 -64 q 672 -64 587 -64 q 877 57 757 -64 q 997 347 997 178 q 876 637 997 515 q 586 758 756 758 q 296 639 417 758 q 175 349 175 519 q 296 57 175 178 q 587 -64 417 -64 m 433 646 l 608 654 q 751 608 696 654 q 806 477 806 563 q 713 338 806 392 q 772 233 746 271 q 801 192 799 196 q 813 175 804 189 l 825 154 l 856 150 l 853 85 q 686 89 789 89 q 647 181 657 161 l 583 301 l 547 301 l 547 250 q 557 156 547 233 l 601 150 l 599 85 q 424 89 526 89 l 347 85 l 343 147 l 393 156 q 400 226 400 197 l 400 475 q 393 574 400 490 l 344 583 l 349 650 q 433 646 388 646 m 558 579 l 551 579 q 547 518 547 542 l 547 376 l 554 376 q 629 403 608 376 q 650 481 650 429 q 629 556 650 533 q 558 579 608 579 z "},"¯":{"ha":485,"x_min":100,"x_max":578,"o":"m 553 828 l 100 828 l 115 929 l 578 929 l 553 828 z "},"°":{"ha":529,"x_min":81,"x_max":532,"o":"m 532 754 q 459 578 532 646 q 288 511 386 511 q 135 555 189 511 q 81 679 81 599 q 153 856 81 788 q 323 925 225 925 q 476 880 421 925 q 532 754 532 835 m 324 840 q 243 794 271 840 q 215 685 215 747 q 289 596 215 596 q 369 640 342 596 q 396 747 396 685 q 324 840 396 840 z "},"±":{"ha":835,"x_min":44,"x_max":757,"o":"m 486 421 l 456 190 l 317 190 l 350 419 l 104 417 l 125 556 l 369 556 l 403 781 l 535 781 l 504 556 l 757 556 l 738 424 l 486 421 m 63 126 l 696 133 l 676 0 l 44 0 l 63 126 z "},"²":{"ha":506,"x_min":68,"x_max":539,"o":"m 160 1192 q 346 1222 251 1222 q 490 1187 440 1222 q 539 1085 539 1151 q 476 941 539 1019 q 265 750 413 863 l 343 750 q 426 760 390 750 q 434 778 425 760 q 443 799 443 797 l 454 829 l 529 824 l 494 640 l 463 622 q 369 625 385 625 l 68 625 l 69 719 q 318 938 260 872 q 376 1067 376 1004 q 313 1126 376 1126 q 235 1106 275 1126 q 224 1074 228 1090 l 217 1035 l 140 1031 l 160 1192 z "},"³":{"ha":453,"x_min":57,"x_max":494,"o":"m 310 1222 q 494 1088 494 1222 q 375 924 494 983 q 449 878 419 915 q 478 797 478 842 q 358 619 478 697 q 67 531 238 542 l 57 604 q 243 666 172 615 q 314 791 314 717 q 243 865 314 865 l 190 861 l 188 932 q 304 986 263 946 q 346 1082 346 1026 q 292 1138 346 1138 q 226 1128 258 1138 l 218 1103 l 210 1046 l 131 1040 l 140 1196 q 310 1222 218 1222 z "},"´":{"ha":485,"x_min":156,"x_max":499,"o":"m 435 1049 l 499 943 q 310 853 333 865 l 219 785 l 156 865 l 435 1049 z "},"µ":{"ha":797,"x_min":-35,"x_max":757,"o":"m 247 214 q 278 151 247 151 q 442 334 354 151 q 551 683 531 517 l 710 708 l 757 683 q 640 115 656 300 l 750 107 l 744 33 l 467 -25 l 419 0 q 507 296 493 204 q 182 -24 376 0 l 172 -83 q 150 -292 157 -168 l 135 -303 q 31 -294 83 -303 l 4 -290 q -35 -275 -24 -286 q -29 -251 -32 -262 q -24 -224 -26 -239 q -17 -193 -21 -210 q -10 -159 -14 -176 q 31 36 -7 -142 q 128 571 106 382 l 32 576 l 32 649 l 296 708 l 350 669 q 247 214 247 311 z "},"¶":{"ha":740,"x_min":35,"x_max":786,"o":"m 546 979 l 786 989 l 776 892 l 692 874 q 588 264 607 501 q 544 79 576 125 q 456 -25 511 31 q 354 -126 400 -81 q 299 -181 308 -171 l 233 -133 q 323 45 278 -56 q 372 165 368 146 q 500 979 425 385 l 546 979 m 379 993 q 446 986 407 993 l 368 439 l 326 404 q 117 469 200 404 q 35 653 35 533 q 131 900 35 807 q 379 993 226 993 z "},"·":{"ha":269,"x_min":49,"x_max":242,"o":"m 49 493 q 49 517 49 493 q 81 584 49 542 q 156 626 113 626 q 220 601 199 626 q 242 526 242 575 q 210 435 242 478 q 135 392 178 392 q 70 418 92 392 q 49 493 49 444 z "},"¸":{"ha":485,"x_min":29,"x_max":329,"o":"m 329 -186 q 280 -291 329 -256 q 155 -326 231 -326 q 29 -301 79 -326 l 64 -233 q 136 -249 110 -249 q 207 -196 207 -249 q 156 -160 207 -160 l 128 -161 l 115 -142 l 153 14 l 242 14 l 208 -82 q 296 -111 263 -83 q 329 -186 329 -139 z "},"¹":{"ha":400,"x_min":118,"x_max":442,"o":"m 433 692 l 417 621 q 235 625 344 625 l 118 621 l 124 688 l 204 697 q 208 711 204 697 q 224 776 221 760 l 265 1054 l 171 1024 l 144 1083 q 286 1181 265 1165 l 338 1232 l 442 1221 q 403 1010 408 1054 l 372 804 q 365 697 365 765 l 433 692 z "},"º":{"ha":458,"x_min":86,"x_max":510,"o":"m 357 1086 q 470 1043 431 1086 q 510 917 510 1000 q 431 697 510 788 q 239 607 351 607 q 126 650 165 607 q 86 776 86 693 q 165 996 86 906 q 357 1086 244 1086 m 325 997 q 228 782 228 997 q 272 697 228 697 q 368 913 368 697 q 356 974 368 951 q 325 997 344 997 z "},"»":{"ha":606,"x_min":-1,"x_max":583,"o":"m 315 596 l 417 658 l 583 336 l 324 14 l 239 76 l 422 336 l 315 596 m 74 596 l 175 658 l 342 336 l 82 14 l -1 76 l 182 336 l 74 596 z "},"¼":{"ha":1083,"x_min":76,"x_max":1029,"o":"m 392 483 l 375 413 q 193 417 303 417 l 76 413 l 82 479 l 163 489 q 167 503 163 489 q 182 568 179 551 l 224 846 l 129 815 l 103 875 q 244 972 224 957 l 296 1024 l 400 1013 q 361 801 367 846 l 331 596 q 324 489 324 557 l 392 483 m 836 1000 l 921 938 l 203 -68 l 117 -6 l 836 1000 m 931 667 l 1015 585 q 899 478 914 499 l 696 250 l 804 250 l 815 329 l 961 376 l 944 258 l 1029 263 l 1014 161 l 931 161 l 928 143 q 925 71 926 133 l 979 67 l 967 -4 q 779 0 883 0 l 679 -4 l 683 61 l 769 71 q 775 93 772 83 q 781 114 778 103 q 786 135 783 125 q 790 161 789 153 l 617 161 l 556 251 l 931 667 z "},"½":{"ha":1150,"x_min":76,"x_max":1086,"o":"m 392 483 l 375 413 q 193 417 303 417 l 76 413 l 82 479 l 163 489 q 167 503 163 489 q 182 568 179 551 l 224 846 l 129 815 l 103 875 q 244 972 224 957 l 296 1024 l 400 1013 q 361 801 367 846 l 331 596 q 324 489 324 557 l 392 483 m 836 1000 l 921 938 l 203 -68 l 117 -6 l 836 1000 m 707 567 q 893 597 799 597 q 1037 562 988 597 q 1086 460 1086 526 q 1023 316 1086 394 q 813 125 960 238 l 890 125 q 974 135 938 125 q 981 153 972 135 q 990 174 990 172 l 1001 204 l 1076 199 l 1042 15 l 1010 -3 q 917 0 932 0 l 615 0 l 617 94 q 865 313 807 247 q 924 442 924 379 q 860 501 924 501 q 782 481 822 501 q 771 449 775 465 l 764 410 l 688 406 l 707 567 z "},"¾":{"ha":1067,"x_min":15,"x_max":1013,"o":"m 268 1014 q 453 879 453 1014 q 333 715 453 775 q 407 670 378 707 q 436 589 436 633 q 316 411 436 489 q 25 322 196 333 l 15 396 q 201 458 131 407 q 272 583 272 508 q 201 657 272 657 l 149 653 l 146 724 q 263 778 221 738 q 304 874 304 818 q 250 929 304 929 q 185 919 217 929 l 176 894 l 168 838 l 89 832 l 99 988 q 268 1014 176 1014 m 819 1000 l 904 938 l 186 -68 l 100 -6 l 819 1000 m 914 667 l 999 585 q 882 478 897 499 l 679 250 l 788 250 l 799 329 l 944 376 l 928 258 l 1013 263 l 997 161 l 914 161 l 911 143 q 908 71 910 133 l 963 67 l 950 -4 q 763 0 867 0 l 663 -4 l 667 61 l 753 71 q 758 93 756 83 q 764 114 761 103 q 769 135 767 125 q 774 161 772 153 l 600 161 l 539 251 l 914 667 z "},"¿":{"ha":586,"x_min":-18,"x_max":522,"o":"m 317 139 q 199 70 243 139 q 154 -72 154 1 q 269 -222 154 -222 q 360 -200 324 -222 l 394 -72 l 472 -65 l 457 -271 q 229 -325 340 -325 q 50 -266 118 -325 q -18 -96 -18 -207 q 71 144 -18 54 q 297 239 160 235 l 308 350 l 335 372 q 463 367 374 367 l 467 363 l 440 182 l 393 135 q 317 139 360 139 m 329 572 q 329 597 329 572 q 361 663 329 621 q 436 706 393 706 q 501 680 479 706 q 522 605 522 654 q 490 513 522 556 q 415 471 458 471 q 351 497 372 471 q 329 572 329 524 z "},"À":{"ha":899,"x_min":-43,"x_max":864,"o":"m 864 90 l 843 -7 q 732 0 781 0 l 450 -7 l 458 94 l 539 107 l 544 179 l 536 249 l 285 249 l 250 160 l 235 107 l 310 90 l 289 -7 q 144 0 210 0 l -43 -7 l -36 94 l 25 104 l 99 224 l 461 979 l 619 994 l 772 178 l 790 103 l 864 90 m 482 692 l 339 363 l 518 365 l 482 692 m 708 1117 l 658 1028 l 558 1081 l 340 1144 l 389 1261 l 708 1117 z "},"Á":{"ha":899,"x_min":-43,"x_max":864,"o":"m 864 90 l 843 -7 q 732 0 781 0 l 450 -7 l 458 94 l 539 107 l 544 179 l 536 249 l 285 249 l 250 160 l 235 107 l 310 90 l 289 -7 q 144 0 210 0 l -43 -7 l -36 94 l 25 104 l 99 224 l 461 979 l 619 994 l 772 178 l 790 103 l 864 90 m 482 692 l 339 363 l 518 365 l 482 692 m 711 1247 l 760 1131 q 540 1067 567 1075 l 442 1014 l 392 1103 l 711 1247 z "},"Â":{"ha":899,"x_min":-43,"x_max":864,"o":"m 864 90 l 843 -7 q 732 0 781 0 l 450 -7 l 458 94 l 539 107 l 544 179 l 536 249 l 285 249 l 250 160 l 235 107 l 310 90 l 289 -7 q 144 0 210 0 l -43 -7 l -36 94 l 25 104 l 99 224 l 461 979 l 619 994 l 772 178 l 790 103 l 864 90 m 482 692 l 339 363 l 518 365 l 482 692 m 568 1254 l 806 1069 l 729 989 l 650 1056 l 546 1114 l 424 1056 l 322 989 l 272 1069 l 568 1254 z "},"Ã":{"ha":899,"x_min":-43,"x_max":864,"o":"m 864 90 l 843 -7 q 732 0 781 0 l 450 -7 l 458 94 l 539 107 l 544 179 l 536 249 l 285 249 l 250 160 l 235 107 l 310 90 l 289 -7 q 144 0 210 0 l -43 -7 l -36 94 l 25 104 l 99 224 l 461 979 l 619 994 l 772 178 l 790 103 l 864 90 m 482 692 l 339 363 l 518 365 l 482 692 m 791 1149 q 783 1137 791 1149 q 736 1086 775 1125 q 668 1047 697 1047 q 557 1074 639 1047 q 451 1100 475 1100 q 376 1056 414 1100 l 364 1042 l 304 1081 q 381 1182 338 1138 q 453 1226 425 1226 q 565 1200 482 1226 q 672 1174 649 1174 q 743 1214 710 1174 l 754 1226 l 817 1188 q 791 1149 807 1172 z "},"Ä":{"ha":899,"x_min":-43,"x_max":864,"o":"m 864 90 l 843 -7 q 732 0 781 0 l 450 -7 l 458 94 l 539 107 l 544 179 l 536 249 l 285 249 l 250 160 l 235 107 l 310 90 l 289 -7 q 144 0 210 0 l -43 -7 l -36 94 l 25 104 l 99 224 l 461 979 l 619 994 l 772 178 l 790 103 l 864 90 m 482 692 l 339 363 l 518 365 l 482 692 m 407 1244 q 485 1165 485 1244 q 457 1083 485 1115 q 385 1051 429 1051 q 320 1073 340 1051 q 300 1138 300 1094 q 328 1213 300 1181 q 407 1244 357 1244 m 726 1244 q 804 1165 804 1244 q 776 1083 804 1115 q 699 1051 749 1051 q 621 1131 621 1051 q 649 1213 621 1181 q 726 1244 676 1244 z "},"Å":{"ha":899,"x_min":-43,"x_max":864,"o":"m 864 90 l 843 -7 q 732 0 781 0 l 450 -7 l 458 94 l 539 107 l 544 179 l 536 249 l 285 249 l 250 160 l 235 107 l 310 90 l 289 -7 q 144 0 210 0 l -43 -7 l -36 94 l 25 104 l 99 224 l 461 979 l 619 994 l 772 178 l 790 103 l 864 90 m 482 692 l 339 363 l 518 365 l 482 692 m 426 1140 q 426 1170 426 1140 q 467 1243 426 1200 q 574 1286 508 1286 q 699 1175 699 1286 q 658 1063 699 1106 q 551 1021 617 1021 q 456 1051 486 1021 q 426 1140 426 1081 m 571 1206 q 532 1187 544 1206 q 519 1143 519 1168 q 556 1101 519 1101 q 594 1120 581 1101 q 607 1163 607 1139 q 571 1206 607 1206 z "},"Æ":{"ha":1229,"x_min":-43,"x_max":1278,"o":"m 815 858 l 808 753 l 810 556 q 844 553 821 553 l 953 553 q 1014 565 982 553 l 1040 654 l 1122 647 q 1104 536 1108 564 l 1083 360 l 996 351 l 996 435 q 911 443 938 443 l 836 443 q 810 440 818 443 l 811 268 l 817 121 l 953 121 q 1058 132 1000 121 q 1119 271 1103 207 l 1214 264 l 1157 19 l 1128 -6 q 975 0 1003 0 l 610 0 l 500 -7 l 507 90 l 600 107 q 608 183 610 163 l 608 256 l 317 256 l 250 160 q 238 138 249 158 q 219 107 226 117 l 311 99 l 289 -7 q 93 0 204 0 l -43 -7 l -36 90 l 35 103 q 133 224 100 178 l 582 865 l 499 882 l 521 986 q 654 979 590 979 l 1100 979 l 1254 993 l 1278 968 l 1253 744 l 1156 738 q 1158 786 1158 765 q 1147 851 1158 817 q 1040 858 1085 858 l 815 858 m 394 369 l 608 372 l 607 665 l 606 676 l 394 369 z "},"Ç":{"ha":861,"x_min":47,"x_max":890,"o":"m 593 -186 q 544 -291 593 -256 q 419 -326 494 -326 q 293 -301 343 -326 l 328 -233 q 400 -249 374 -249 q 471 -196 471 -249 q 419 -160 471 -160 l 392 -161 l 379 -142 l 408 -18 q 140 107 232 -4 q 47 399 47 218 q 193 832 47 664 q 601 1000 339 1000 q 890 953 710 1000 l 838 704 l 733 710 l 742 794 q 733 851 743 807 q 579 871 649 871 q 451 828 510 871 q 361 714 393 785 q 296 385 296 572 q 339 184 296 260 q 466 108 382 108 q 643 129 550 108 q 653 147 644 132 q 675 197 675 190 l 689 263 l 792 265 l 768 26 q 493 -19 603 -15 l 472 -82 q 560 -111 526 -83 q 593 -186 593 -139 z "},"È":{"ha":833,"x_min":17,"x_max":838,"o":"m 294 979 l 660 979 l 815 993 l 838 968 l 815 751 l 717 744 l 717 826 q 708 860 717 843 q 603 865 656 865 l 457 865 q 447 811 456 857 q 436 753 438 765 l 407 554 q 440 553 419 553 l 514 553 q 574 565 542 553 l 599 654 l 682 647 q 664 532 668 560 l 643 356 l 553 347 l 553 431 q 469 439 497 439 l 431 439 q 390 438 399 439 l 365 268 q 347 121 356 211 l 514 121 q 618 132 563 121 q 653 192 638 161 q 679 271 671 236 l 774 264 l 718 19 l 689 -6 q 536 0 564 0 l 151 0 l 17 -7 l 24 90 l 114 107 q 131 162 119 118 q 143 226 142 206 l 214 711 q 226 820 226 788 q 225 865 226 853 l 140 882 l 163 986 q 294 979 244 979 m 669 1117 l 619 1028 l 519 1081 l 301 1144 l 350 1261 l 669 1117 z "},"É":{"ha":833,"x_min":17,"x_max":838,"o":"m 294 979 l 660 979 l 815 993 l 838 968 l 815 751 l 717 744 l 717 826 q 708 860 717 843 q 603 865 656 865 l 457 865 q 447 811 456 857 q 436 753 438 765 l 407 554 q 440 553 419 553 l 514 553 q 574 565 542 553 l 599 654 l 682 647 q 664 532 668 560 l 643 356 l 553 347 l 553 431 q 469 439 497 439 l 431 439 q 390 438 399 439 l 365 268 q 347 121 356 211 l 514 121 q 618 132 563 121 q 653 192 638 161 q 679 271 671 236 l 774 264 l 718 19 l 689 -6 q 536 0 564 0 l 151 0 l 17 -7 l 24 90 l 114 107 q 131 162 119 118 q 143 226 142 206 l 214 711 q 226 820 226 788 q 225 865 226 853 l 140 882 l 163 986 q 294 979 244 979 m 658 1247 l 707 1131 q 488 1067 514 1075 l 389 1014 l 339 1103 l 658 1247 z "},"Ê":{"ha":833,"x_min":17,"x_max":838,"o":"m 294 979 l 660 979 l 815 993 l 838 968 l 815 751 l 717 744 l 717 826 q 708 860 717 843 q 603 865 656 865 l 457 865 q 447 811 456 857 q 436 753 438 765 l 407 554 q 440 553 419 553 l 514 553 q 574 565 542 553 l 599 654 l 682 647 q 664 532 668 560 l 643 356 l 553 347 l 553 431 q 469 439 497 439 l 431 439 q 390 438 399 439 l 365 268 q 347 121 356 211 l 514 121 q 618 132 563 121 q 653 192 638 161 q 679 271 671 236 l 774 264 l 718 19 l 689 -6 q 536 0 564 0 l 151 0 l 17 -7 l 24 90 l 114 107 q 131 162 119 118 q 143 226 142 206 l 214 711 q 226 820 226 788 q 225 865 226 853 l 140 882 l 163 986 q 294 979 244 979 m 529 1310 l 767 1125 l 690 1044 l 611 1111 l 507 1169 l 385 1111 l 283 1044 l 233 1125 l 529 1310 z "},"Ë":{"ha":833,"x_min":17,"x_max":838,"o":"m 294 979 l 660 979 l 815 993 l 838 968 l 815 751 l 717 744 l 717 826 q 708 860 717 843 q 603 865 656 865 l 457 865 q 447 811 456 857 q 436 753 438 765 l 407 554 q 440 553 419 553 l 514 553 q 574 565 542 553 l 599 654 l 682 647 q 664 532 668 560 l 643 356 l 553 347 l 553 431 q 469 439 497 439 l 431 439 q 390 438 399 439 l 365 268 q 347 121 356 211 l 514 121 q 618 132 563 121 q 653 192 638 161 q 679 271 671 236 l 774 264 l 718 19 l 689 -6 q 536 0 564 0 l 151 0 l 17 -7 l 24 90 l 114 107 q 131 162 119 118 q 143 226 142 206 l 214 711 q 226 820 226 788 q 225 865 226 853 l 140 882 l 163 986 q 294 979 244 979 m 368 1244 q 446 1165 446 1244 q 418 1083 446 1115 q 346 1051 390 1051 q 281 1073 301 1051 q 261 1138 261 1094 q 290 1213 261 1181 q 368 1244 318 1244 m 688 1244 q 765 1165 765 1244 q 738 1083 765 1115 q 660 1051 710 1051 q 582 1131 582 1051 q 610 1213 582 1181 q 688 1244 638 1244 z "},"Ì":{"ha":550,"x_min":24,"x_max":569,"o":"m 569 986 l 560 874 l 471 865 q 442 753 449 799 l 372 268 q 360 107 360 200 l 444 99 l 422 -7 q 157 0 313 0 l 24 -7 l 31 90 l 121 107 q 134 160 121 110 q 150 226 147 210 l 221 711 q 232 865 224 731 l 147 882 l 169 986 q 301 979 236 979 l 569 986 m 532 1117 l 482 1028 l 382 1081 l 164 1144 l 213 1261 l 532 1117 z "},"Í":{"ha":550,"x_min":24,"x_max":593,"o":"m 569 986 l 560 874 l 471 865 q 442 753 449 799 l 372 268 q 360 107 360 200 l 444 99 l 422 -7 q 157 0 313 0 l 24 -7 l 31 90 l 121 107 q 134 160 121 110 q 150 226 147 210 l 221 711 q 232 865 224 731 l 147 882 l 169 986 q 301 979 236 979 l 569 986 m 544 1247 l 593 1131 q 374 1067 400 1075 l 275 1014 l 225 1103 l 544 1247 z "},"Î":{"ha":550,"x_min":24,"x_max":649,"o":"m 569 986 l 560 874 l 471 865 q 442 753 449 799 l 372 268 q 360 107 360 200 l 444 99 l 422 -7 q 157 0 313 0 l 24 -7 l 31 90 l 121 107 q 134 160 121 110 q 150 226 147 210 l 221 711 q 232 865 224 731 l 147 882 l 169 986 q 301 979 236 979 l 569 986 m 411 1296 l 649 1111 l 572 1031 l 493 1097 l 389 1156 l 267 1097 l 165 1031 l 115 1111 l 411 1296 z "},"Ï":{"ha":550,"x_min":24,"x_max":597,"o":"m 288 1244 q 363 1165 363 1244 q 335 1083 363 1115 q 266 1051 308 1051 q 203 1073 224 1051 q 183 1137 183 1094 q 212 1212 183 1179 q 288 1244 240 1244 m 522 1244 q 597 1165 597 1244 q 570 1083 597 1115 q 501 1051 543 1051 q 439 1073 458 1051 q 419 1138 419 1094 q 447 1213 419 1181 q 522 1244 474 1244 m 569 986 l 560 874 l 471 865 q 442 753 449 799 l 372 268 q 360 107 360 200 l 444 99 l 422 -7 q 157 0 313 0 l 24 -7 l 31 90 l 121 107 q 134 160 121 110 q 150 226 147 210 l 221 711 q 232 865 224 731 l 147 882 l 169 986 q 301 979 236 979 l 569 986 z "},"Ð":{"ha":997,"x_min":17,"x_max":992,"o":"m 440 -8 l 150 0 l 17 -7 l 24 90 l 114 107 q 143 226 140 199 l 175 447 l 74 447 l 88 549 l 190 549 l 214 711 q 225 842 225 772 l 225 865 l 140 882 l 163 986 q 297 979 232 979 l 578 993 q 885 880 779 993 q 992 576 992 767 q 847 155 992 318 q 440 -8 703 -8 m 546 878 q 457 867 521 878 q 447 816 457 865 q 436 753 438 767 l 406 549 l 521 549 l 499 447 l 392 447 l 365 268 q 347 111 354 203 q 431 107 385 107 q 592 150 524 107 q 694 267 660 193 q 761 588 761 406 q 710 798 761 718 q 546 878 658 878 z "},"Ñ":{"ha":1085,"x_min":17,"x_max":1144,"o":"m 296 979 l 439 979 l 460 951 q 547 746 532 776 l 778 319 l 835 711 q 844 865 844 783 l 761 882 l 783 986 l 918 979 l 1144 986 l 1135 874 l 1046 865 q 1018 753 1026 806 l 908 0 l 718 0 l 379 625 l 326 268 q 315 107 315 186 l 400 99 l 378 -7 q 151 0 307 0 l 17 -7 l 24 90 l 114 107 q 143 226 138 172 l 214 711 q 225 865 225 781 l 142 882 l 163 986 q 296 979 229 979 m 895 1149 q 887 1137 895 1149 q 840 1086 879 1125 q 772 1047 801 1047 q 661 1074 743 1047 q 556 1100 579 1100 q 481 1056 518 1100 l 468 1042 l 408 1081 q 485 1182 442 1138 q 558 1226 529 1226 q 669 1200 586 1226 q 775 1174 753 1174 q 847 1214 814 1174 l 858 1226 l 921 1188 q 895 1149 911 1172 z "},"Ò":{"ha":1038,"x_min":49,"x_max":1032,"o":"m 1032 572 q 874 140 1032 307 q 469 -26 717 -26 q 162 91 275 -26 q 49 406 49 208 q 206 838 49 671 q 611 1006 364 1006 q 919 888 806 1006 q 1032 572 1032 771 m 294 376 q 485 108 294 108 q 712 239 639 108 q 785 601 785 369 q 596 871 785 871 q 367 740 440 871 q 294 376 294 608 m 761 1117 l 711 1028 l 611 1081 l 393 1144 l 442 1261 l 761 1117 z "},"Ó":{"ha":1038,"x_min":49,"x_max":1032,"o":"m 1032 572 q 874 140 1032 307 q 469 -26 717 -26 q 162 91 275 -26 q 49 406 49 208 q 206 838 49 671 q 611 1006 364 1006 q 919 888 806 1006 q 1032 572 1032 771 m 294 376 q 485 108 294 108 q 712 239 639 108 q 785 601 785 369 q 596 871 785 871 q 367 740 440 871 q 294 376 294 608 m 763 1261 l 811 1144 q 592 1081 618 1089 l 493 1028 l 443 1117 l 763 1261 z "},"Ô":{"ha":1038,"x_min":49,"x_max":1032,"o":"m 1032 572 q 874 140 1032 307 q 469 -26 717 -26 q 162 91 275 -26 q 49 406 49 208 q 206 838 49 671 q 611 1006 364 1006 q 919 888 806 1006 q 1032 572 1032 771 m 294 376 q 485 108 294 108 q 712 239 639 108 q 785 601 785 369 q 596 871 785 871 q 367 740 440 871 q 294 376 294 608 m 635 1296 l 872 1111 l 796 1031 l 717 1097 l 613 1156 l 490 1097 l 389 1031 l 339 1111 l 635 1296 z "},"Õ":{"ha":1038,"x_min":49,"x_max":1032,"o":"m 1032 572 q 874 140 1032 307 q 469 -26 717 -26 q 162 91 275 -26 q 49 406 49 208 q 206 838 49 671 q 611 1006 364 1006 q 919 888 806 1006 q 1032 572 1032 771 m 294 376 q 485 108 294 108 q 712 239 639 108 q 785 601 785 369 q 596 871 785 871 q 367 740 440 871 q 294 376 294 608 m 842 1149 q 834 1137 842 1149 q 788 1086 826 1125 q 719 1047 749 1047 q 608 1074 690 1047 q 503 1100 526 1100 q 428 1056 465 1100 l 415 1042 l 356 1081 q 433 1182 389 1138 q 505 1226 476 1226 q 617 1200 533 1226 q 722 1174 700 1174 q 794 1214 761 1174 l 806 1226 l 868 1188 q 842 1149 858 1172 z "},"Ö":{"ha":1038,"x_min":49,"x_max":1032,"o":"m 1032 572 q 874 140 1032 307 q 469 -26 717 -26 q 162 91 275 -26 q 49 406 49 208 q 206 838 49 671 q 611 1006 364 1006 q 919 888 806 1006 q 1032 572 1032 771 m 294 376 q 485 108 294 108 q 712 239 639 108 q 785 601 785 369 q 596 871 785 871 q 367 740 440 871 q 294 376 294 608 m 460 1244 q 538 1165 538 1244 q 510 1083 538 1115 q 438 1051 482 1051 q 373 1073 393 1051 q 353 1138 353 1094 q 381 1213 353 1181 q 460 1244 410 1244 m 779 1244 q 857 1165 857 1244 q 829 1083 857 1115 q 751 1051 801 1051 q 674 1131 674 1051 q 701 1213 674 1181 q 779 1244 729 1244 z "},"×":{"ha":772,"x_min":54,"x_max":715,"o":"m 399 433 l 629 639 l 715 540 l 483 336 l 658 136 l 546 36 l 371 239 l 136 33 l 54 128 l 289 336 l 113 542 l 221 638 l 399 433 z "},"Ø":{"ha":1032,"x_min":49,"x_max":1026,"o":"m 1026 574 q 868 141 1026 308 q 461 -26 710 -26 q 274 10 361 -26 l 142 -190 l 71 -150 l 203 51 q 49 406 49 165 q 207 838 49 671 q 613 1006 365 1006 q 803 968 717 1006 l 932 1164 l 1006 1124 l 875 925 q 1026 574 1026 810 m 288 378 q 313 218 288 281 l 714 831 q 592 871 667 871 q 361 740 435 871 q 288 378 288 610 m 786 600 q 763 756 786 692 l 363 146 q 481 108 408 108 q 786 600 786 108 z "},"Ù":{"ha":1054,"x_min":114,"x_max":1107,"o":"m 781 85 q 723 32 781 85 q 474 -21 664 -21 q 197 85 283 -21 q 133 290 133 165 q 139 372 133 329 l 188 711 q 200 819 200 786 q 199 865 200 853 l 114 882 l 136 986 q 268 979 203 979 l 543 986 l 533 874 l 444 865 q 417 753 422 803 l 358 361 q 356 315 356 338 q 386 200 356 249 q 525 138 429 138 q 672 194 621 138 q 739 361 724 251 l 790 711 q 801 865 792 722 l 717 882 l 739 986 q 872 979 806 979 l 1107 986 l 1097 874 l 1008 865 q 981 753 989 813 l 925 372 q 781 85 899 190 m 797 1117 l 747 1028 l 647 1081 l 429 1144 l 478 1261 l 797 1117 z "},"Ú":{"ha":1054,"x_min":114,"x_max":1107,"o":"m 781 85 q 723 32 781 85 q 474 -21 664 -21 q 197 85 283 -21 q 133 290 133 165 q 139 372 133 329 l 188 711 q 200 819 200 786 q 199 865 200 853 l 114 882 l 136 986 q 268 979 203 979 l 543 986 l 533 874 l 444 865 q 417 753 422 803 l 358 361 q 356 315 356 338 q 386 200 356 249 q 525 138 429 138 q 672 194 621 138 q 739 361 724 251 l 790 711 q 801 865 792 722 l 717 882 l 739 986 q 872 979 806 979 l 1107 986 l 1097 874 l 1008 865 q 981 753 989 813 l 925 372 q 781 85 899 190 m 800 1247 l 849 1131 q 629 1067 656 1075 l 531 1014 l 481 1103 l 800 1247 z "},"Û":{"ha":1054,"x_min":114,"x_max":1107,"o":"m 781 85 q 723 32 781 85 q 474 -21 664 -21 q 197 85 283 -21 q 133 290 133 165 q 139 372 133 329 l 188 711 q 200 819 200 786 q 199 865 200 853 l 114 882 l 136 986 q 268 979 203 979 l 543 986 l 533 874 l 444 865 q 417 753 422 803 l 358 361 q 356 315 356 338 q 386 200 356 249 q 525 138 429 138 q 672 194 621 138 q 739 361 724 251 l 790 711 q 801 865 792 722 l 717 882 l 739 986 q 872 979 806 979 l 1107 986 l 1097 874 l 1008 865 q 981 753 989 813 l 925 372 q 781 85 899 190 m 658 1296 l 896 1111 l 819 1031 l 740 1097 l 636 1156 l 514 1097 l 413 1031 l 363 1111 l 658 1296 z "},"Ü":{"ha":1054,"x_min":114,"x_max":1107,"o":"m 781 85 q 723 32 781 85 q 474 -21 664 -21 q 197 85 283 -21 q 133 290 133 165 q 139 372 133 329 l 188 711 q 200 819 200 786 q 199 865 200 853 l 114 882 l 136 986 q 268 979 203 979 l 543 986 l 533 874 l 444 865 q 417 753 422 803 l 358 361 q 356 315 356 338 q 386 200 356 249 q 525 138 429 138 q 672 194 621 138 q 739 361 724 251 l 790 711 q 801 865 792 722 l 717 882 l 739 986 q 872 979 806 979 l 1107 986 l 1097 874 l 1008 865 q 981 753 989 813 l 925 372 q 781 85 899 190 m 497 1244 q 575 1165 575 1244 q 547 1083 575 1115 q 475 1051 519 1051 q 410 1073 431 1051 q 390 1138 390 1094 q 419 1213 390 1181 q 497 1244 447 1244 m 817 1244 q 894 1165 894 1244 q 867 1083 894 1115 q 789 1051 839 1051 q 711 1131 711 1051 q 739 1213 711 1181 q 817 1244 767 1244 z "},"Ý":{"ha":925,"x_min":71,"x_max":1050,"o":"m 1042 885 l 961 875 q 860 756 888 800 l 590 339 l 581 268 q 569 107 569 186 l 654 99 l 632 -7 q 367 0 522 0 l 233 -7 l 240 90 l 331 107 q 344 160 331 110 q 360 226 357 210 l 378 353 l 201 801 q 158 865 190 832 l 149 876 l 71 889 l 92 986 q 213 979 163 979 l 500 986 l 492 885 l 421 872 q 431 800 424 826 l 531 513 l 724 819 l 735 872 l 681 889 l 701 986 q 850 979 786 979 l 1050 986 l 1042 885 m 754 1247 l 803 1131 q 583 1067 610 1075 l 485 1014 l 435 1103 l 754 1247 z "},"Þ":{"ha":813,"x_min":14,"x_max":833,"o":"m 350 203 q 346 107 346 132 l 432 99 l 410 -7 q 150 0 301 0 l 14 -7 l 21 90 l 113 107 q 143 226 138 192 l 214 711 q 224 865 224 781 l 139 882 l 161 986 q 294 979 231 979 l 557 986 l 547 874 l 457 865 q 435 786 449 844 q 554 792 526 792 q 758 725 683 792 q 833 540 833 658 q 722 294 833 385 q 450 203 610 203 l 350 203 m 386 317 q 555 374 493 317 q 617 536 617 431 q 460 678 617 678 q 417 676 435 678 l 364 317 l 386 317 z "},"ß":{"ha":792,"x_min":-292,"x_max":792,"o":"m 578 1069 q 792 917 792 1069 q 708 760 792 832 q 636 699 672 729 q 553 547 553 626 q 653 404 553 497 q 722 317 690 369 q 753 213 753 265 q 688 40 753 106 q 510 -25 622 -25 q 278 18 397 -25 l 326 178 q 494 93 447 93 q 550 149 550 93 q 464 292 550 200 q 403 383 431 326 q 376 496 376 439 q 410 606 376 553 q 485 697 444 660 q 593 864 593 799 q 573 909 593 896 q 513 922 553 922 q 431 910 472 922 q 379 882 390 899 q 265 289 333 817 q 210 -38 232 31 q 139 -170 189 -107 q 28 -265 89 -233 q -215 -326 -89 -326 q -292 -322 -256 -326 l -231 -169 q -151 -178 -181 -178 q -15 -143 -57 -178 q 64 178 14 -117 q 154 754 99 385 q 297 981 176 892 q 578 1069 418 1069 z "},"à":{"ha":768,"x_min":26,"x_max":721,"o":"m 138 -25 q 54 38 82 -25 q 26 204 26 100 q 73 429 26 308 q 195 629 119 550 q 349 708 271 708 q 453 695 385 708 q 533 681 521 682 l 646 708 l 701 669 q 613 117 624 367 l 721 107 l 715 33 l 436 -25 l 388 0 q 478 299 461 190 q 322 65 411 154 q 138 -25 233 -25 m 258 154 q 377 269 307 154 q 471 525 447 383 q 325 561 379 561 q 254 460 288 561 q 221 239 221 358 q 258 154 221 154 m 611 865 l 547 785 l 457 853 l 268 943 l 332 1049 l 611 865 z "},"á":{"ha":768,"x_min":26,"x_max":721,"o":"m 138 -25 q 54 38 82 -25 q 26 204 26 100 q 73 429 26 308 q 195 629 119 550 q 349 708 271 708 q 453 695 385 708 q 533 681 521 682 l 646 708 l 701 669 q 613 117 624 367 l 721 107 l 715 33 l 436 -25 l 388 0 q 478 299 461 190 q 322 65 411 154 q 138 -25 233 -25 m 258 154 q 377 269 307 154 q 471 525 447 383 q 325 561 379 561 q 254 460 288 561 q 221 239 221 358 q 258 154 221 154 m 601 1049 l 665 943 q 476 853 500 865 l 386 785 l 322 865 l 601 1049 z "},"â":{"ha":768,"x_min":26,"x_max":725,"o":"m 138 -25 q 54 38 82 -25 q 26 204 26 100 q 73 429 26 308 q 195 629 119 550 q 349 708 271 708 q 453 695 385 708 q 533 681 521 682 l 646 708 l 701 669 q 613 117 624 367 l 721 107 l 715 33 l 436 -25 l 388 0 q 478 299 461 190 q 322 65 411 154 q 138 -25 233 -25 m 258 154 q 377 269 307 154 q 471 525 447 383 q 325 561 379 561 q 254 460 288 561 q 221 239 221 358 q 258 154 221 154 m 488 1063 l 725 864 l 649 783 l 569 857 l 465 919 q 343 857 371 869 l 242 783 l 192 864 l 488 1063 z "},"ã":{"ha":768,"x_min":26,"x_max":721,"o":"m 138 -25 q 54 38 82 -25 q 26 204 26 100 q 73 429 26 308 q 195 629 119 550 q 349 708 271 708 q 453 695 385 708 q 533 681 521 682 l 646 708 l 701 669 q 613 117 624 367 l 721 107 l 715 33 l 436 -25 l 388 0 q 478 299 461 190 q 322 65 411 154 q 138 -25 233 -25 m 258 154 q 377 269 307 154 q 471 525 447 383 q 325 561 379 561 q 254 460 288 561 q 221 239 221 358 q 258 154 221 154 m 644 870 q 624 848 644 870 q 575 825 603 825 q 469 851 547 825 q 369 878 390 878 q 297 833 333 878 l 286 819 l 229 858 q 303 960 264 917 q 370 1004 343 1004 q 476 978 397 1004 q 578 951 556 951 q 644 992 615 951 l 654 1004 l 714 965 q 644 870 686 915 z "},"ä":{"ha":768,"x_min":26,"x_max":721,"o":"m 138 -25 q 54 38 82 -25 q 26 204 26 100 q 73 429 26 308 q 195 629 119 550 q 349 708 271 708 q 453 695 385 708 q 533 681 521 682 l 646 708 l 701 669 q 613 117 624 367 l 721 107 l 715 33 l 436 -25 l 388 0 q 478 299 461 190 q 322 65 411 154 q 138 -25 233 -25 m 258 154 q 377 269 307 154 q 471 525 447 383 q 325 561 379 561 q 254 460 288 561 q 221 239 221 358 q 258 154 221 154 m 319 1007 q 397 928 397 1007 q 369 846 397 878 q 297 814 340 814 q 232 835 253 814 q 211 900 211 857 q 240 975 211 943 q 319 1007 269 1007 m 639 1007 q 717 928 717 1007 q 688 846 717 878 q 616 814 660 814 q 552 835 572 814 q 532 900 532 857 q 560 975 532 943 q 639 1007 589 1007 z "},"å":{"ha":768,"x_min":26,"x_max":721,"o":"m 138 -25 q 54 38 82 -25 q 26 204 26 100 q 73 429 26 308 q 195 629 119 550 q 349 708 271 708 q 453 695 385 708 q 533 681 521 682 l 646 708 l 701 669 q 613 117 624 367 l 721 107 l 715 33 l 436 -25 l 388 0 q 478 299 461 190 q 322 65 411 154 q 138 -25 233 -25 m 258 154 q 377 269 307 154 q 471 525 447 383 q 325 561 379 561 q 254 460 288 561 q 221 239 221 358 q 258 154 221 154 m 317 911 q 317 941 317 911 q 358 1014 317 971 q 464 1057 399 1057 q 589 946 589 1057 q 548 834 589 876 q 442 792 507 792 q 347 822 376 792 q 317 911 317 851 m 461 976 q 422 958 435 976 q 410 914 410 939 q 446 872 410 872 q 484 891 471 872 q 497 933 497 910 q 461 976 497 976 z "},"æ":{"ha":969,"x_min":26,"x_max":971,"o":"m 747 699 q 971 575 971 699 q 869 383 971 465 q 590 271 768 301 q 588 210 588 250 q 663 108 588 108 q 760 142 704 108 q 860 219 817 176 l 922 169 q 767 30 861 85 q 590 -25 672 -25 q 458 20 508 -25 q 400 157 407 65 q 139 -25 275 -25 q 55 38 83 -25 q 26 203 26 100 q 73 428 26 307 q 195 628 119 549 q 349 708 271 708 q 642 658 381 708 q 747 699 700 699 m 257 151 q 378 268 307 151 q 471 526 449 385 q 325 564 382 564 q 253 460 288 564 q 219 238 219 357 q 257 151 219 151 m 721 575 q 653 512 686 575 q 603 357 621 449 q 742 431 690 379 q 794 535 794 482 q 721 575 794 575 z "},"ç":{"ha":539,"x_min":10,"x_max":549,"o":"m 326 699 q 514 686 419 699 l 549 632 l 500 406 l 424 410 l 424 540 q 318 563 363 563 q 240 447 278 563 q 203 207 203 331 q 272 115 203 115 q 443 221 338 115 l 508 165 q 390 44 460 93 q 247 -19 321 -6 l 226 -82 q 314 -111 281 -83 q 347 -186 347 -139 q 298 -291 347 -256 q 173 -326 249 -326 q 47 -301 97 -326 l 82 -233 q 154 -249 128 -249 q 225 -196 225 -249 q 174 -160 225 -160 l 146 -161 l 133 -142 l 161 -22 q 49 42 89 -11 q 10 196 10 96 q 60 417 10 296 q 185 618 110 538 q 326 699 260 699 z "},"è":{"ha":586,"x_min":10,"x_max":585,"o":"m 361 699 q 585 575 585 699 q 483 382 585 464 q 204 269 382 300 q 201 210 201 249 q 276 110 201 110 q 372 144 317 110 q 471 224 428 179 l 535 168 q 379 30 474 85 q 199 -25 285 -25 q 62 27 114 -25 q 10 188 10 79 q 67 417 10 296 q 207 618 124 538 q 361 699 290 699 m 553 865 l 489 785 l 399 853 l 210 943 l 274 1049 l 553 865 m 333 574 q 267 512 300 574 q 217 358 235 450 q 356 431 304 381 q 407 535 407 482 q 333 574 407 574 z "},"é":{"ha":586,"x_min":10,"x_max":607,"o":"m 361 699 q 585 575 585 699 q 483 382 585 464 q 204 269 382 300 q 201 210 201 249 q 276 110 201 110 q 372 144 317 110 q 471 224 428 179 l 535 168 q 379 30 474 85 q 199 -25 285 -25 q 62 27 114 -25 q 10 188 10 79 q 67 417 10 296 q 207 618 124 538 q 361 699 290 699 m 543 1049 l 607 943 q 418 853 442 865 l 328 785 l 264 865 l 543 1049 m 333 574 q 267 512 300 574 q 217 358 235 450 q 356 431 304 381 q 407 535 407 482 q 333 574 407 574 z "},"ê":{"ha":586,"x_min":10,"x_max":668,"o":"m 361 699 q 585 575 585 699 q 483 382 585 464 q 204 269 382 300 q 201 210 201 249 q 276 110 201 110 q 372 144 317 110 q 471 224 428 179 l 535 168 q 379 30 474 85 q 199 -25 285 -25 q 62 27 114 -25 q 10 188 10 79 q 67 417 10 296 q 207 618 124 538 q 361 699 290 699 m 431 1063 l 668 864 l 592 783 l 513 857 l 408 919 q 286 857 314 869 l 185 783 l 135 864 l 431 1063 m 333 574 q 267 512 300 574 q 217 358 235 450 q 356 431 304 381 q 407 535 407 482 q 333 574 407 574 z "},"ë":{"ha":586,"x_min":10,"x_max":672,"o":"m 361 699 q 585 575 585 699 q 483 382 585 464 q 204 269 382 300 q 201 210 201 249 q 276 110 201 110 q 372 144 317 110 q 471 224 428 179 l 535 168 q 379 30 474 85 q 199 -25 285 -25 q 62 27 114 -25 q 10 188 10 79 q 67 417 10 296 q 207 618 124 538 q 361 699 290 699 m 275 1007 q 353 928 353 1007 q 324 846 353 878 q 252 814 296 814 q 188 835 208 814 q 167 900 167 857 q 196 975 167 943 q 275 1007 225 1007 m 594 1007 q 672 928 672 1007 q 644 846 672 878 q 572 814 615 814 q 508 835 528 814 q 488 900 488 857 q 516 975 488 943 q 594 1007 544 1007 m 333 574 q 267 512 300 574 q 217 358 235 450 q 356 431 304 381 q 407 535 407 482 q 333 574 407 574 z "},"ì":{"ha":424,"x_min":47,"x_max":413,"o":"m 314 708 l 368 669 q 269 115 300 401 l 378 107 l 372 33 l 94 -25 l 47 0 q 146 571 128 304 l 50 576 l 50 649 l 314 708 m 413 865 l 349 785 l 258 853 l 69 943 l 133 1049 l 413 865 z "},"í":{"ha":424,"x_min":47,"x_max":467,"o":"m 314 708 l 368 669 q 269 115 300 401 l 378 107 l 372 33 l 94 -25 l 47 0 q 146 571 128 304 l 50 576 l 50 649 l 314 708 m 403 1049 l 467 943 q 278 853 301 865 l 188 785 l 124 865 l 403 1049 z "},"î":{"ha":424,"x_min":-7,"x_max":526,"o":"m 314 708 l 368 669 q 269 115 300 401 l 378 107 l 372 33 l 94 -25 l 47 0 q 146 571 128 304 l 50 576 l 50 649 l 314 708 m 289 1063 l 526 864 l 450 783 l 371 857 l 267 919 q 144 857 172 869 l 43 783 l -7 864 l 289 1063 z "},"ï":{"ha":424,"x_min":47,"x_max":504,"o":"m 194 1007 q 269 928 269 1007 q 242 846 269 878 q 173 814 215 814 q 110 835 131 814 q 90 899 90 857 q 119 974 90 942 q 194 1007 147 1007 m 429 1007 q 504 928 504 1007 q 477 846 504 878 q 408 814 450 814 q 346 835 365 814 q 326 900 326 857 q 353 975 326 943 q 429 1007 381 1007 m 314 708 l 368 669 q 269 115 300 401 l 378 107 l 372 33 l 94 -25 l 47 0 q 146 571 128 304 l 50 576 l 50 649 l 314 708 z "},"ð":{"ha":674,"x_min":22,"x_max":689,"o":"m 561 168 q 433 29 514 83 q 254 -25 353 -25 q 22 233 22 -25 q 140 558 22 417 q 407 699 257 699 q 461 696 419 699 q 426 831 449 775 l 263 753 l 225 829 l 389 908 q 310 1026 376 931 l 410 1069 q 507 965 461 1022 l 653 1036 l 689 957 l 557 893 q 661 536 661 729 q 561 168 661 343 m 472 547 q 471 588 472 575 q 438 592 450 592 q 313 536 363 592 q 224 249 224 439 q 293 103 224 103 q 426 235 381 103 q 472 547 472 367 z "},"ñ":{"ha":821,"x_min":38,"x_max":774,"o":"m 636 708 q 719 676 689 708 q 749 585 749 643 q 716 362 749 528 q 676 117 683 196 l 774 107 l 768 33 l 489 -25 l 439 0 q 547 468 547 367 q 517 529 547 529 q 365 375 449 529 q 256 65 282 221 q 246 0 254 57 l 85 -25 l 38 0 q 146 571 131 349 l 51 576 l 51 649 l 317 708 l 371 669 q 293 397 319 515 q 636 708 439 708 m 664 870 q 643 848 664 870 q 594 825 622 825 q 488 851 567 825 q 389 878 410 878 q 317 833 353 878 l 306 819 l 249 858 q 323 960 283 917 q 390 1004 363 1004 q 496 978 417 1004 q 597 951 575 951 q 664 992 635 951 l 674 1004 l 733 965 q 664 870 706 915 z "},"ò":{"ha":675,"x_min":21,"x_max":651,"o":"m 424 708 q 593 643 535 708 q 651 451 651 578 q 533 115 651 254 q 249 -25 415 -25 q 79 41 138 -25 q 21 232 21 107 q 139 569 21 429 q 424 708 257 708 m 379 579 q 264 490 304 579 q 224 238 224 401 q 242 140 224 175 q 294 104 261 104 q 408 193 368 104 q 449 446 449 282 q 430 544 449 508 q 379 579 411 579 m 582 865 l 518 785 l 428 853 l 239 943 l 303 1049 l 582 865 z "},"ó":{"ha":675,"x_min":21,"x_max":651,"o":"m 424 708 q 593 643 535 708 q 651 451 651 578 q 533 115 651 254 q 249 -25 415 -25 q 79 41 138 -25 q 21 232 21 107 q 139 569 21 429 q 424 708 257 708 m 379 579 q 264 490 304 579 q 224 238 224 401 q 242 140 224 175 q 294 104 261 104 q 408 193 368 104 q 449 446 449 282 q 430 544 449 508 q 379 579 411 579 m 558 1049 l 622 943 q 433 853 457 865 l 343 785 l 279 865 l 558 1049 z "},"ô":{"ha":675,"x_min":21,"x_max":682,"o":"m 424 708 q 593 643 535 708 q 651 451 651 578 q 533 115 651 254 q 249 -25 415 -25 q 79 41 138 -25 q 21 232 21 107 q 139 569 21 429 q 424 708 257 708 m 379 579 q 264 490 304 579 q 224 238 224 401 q 242 140 224 175 q 294 104 261 104 q 408 193 368 104 q 449 446 449 282 q 430 544 449 508 q 379 579 411 579 m 444 1063 l 682 864 l 606 783 l 526 857 l 422 919 q 300 857 328 869 l 199 783 l 149 864 l 444 1063 z "},"õ":{"ha":675,"x_min":21,"x_max":671,"o":"m 424 708 q 593 643 535 708 q 651 451 651 578 q 533 115 651 254 q 249 -25 415 -25 q 79 41 138 -25 q 21 232 21 107 q 139 569 21 429 q 424 708 257 708 m 379 579 q 264 490 304 579 q 224 238 224 401 q 242 140 224 175 q 294 104 261 104 q 408 193 368 104 q 449 446 449 282 q 430 544 449 508 q 379 579 411 579 m 601 870 q 581 848 601 870 q 532 825 560 825 q 426 851 504 825 q 325 878 347 878 q 256 833 290 878 l 243 819 l 186 858 q 260 960 221 917 q 327 1004 300 1004 q 434 978 354 1004 q 536 951 514 951 q 601 992 572 951 l 611 1004 l 671 965 q 601 870 643 915 z "},"ö":{"ha":675,"x_min":21,"x_max":674,"o":"m 424 708 q 593 643 535 708 q 651 451 651 578 q 533 115 651 254 q 249 -25 415 -25 q 79 41 138 -25 q 21 232 21 107 q 139 569 21 429 q 424 708 257 708 m 379 579 q 264 490 304 579 q 224 238 224 401 q 242 140 224 175 q 294 104 261 104 q 408 193 368 104 q 449 446 449 282 q 430 544 449 508 q 379 579 411 579 m 276 1007 q 354 928 354 1007 q 326 846 354 878 q 253 814 297 814 q 189 835 210 814 q 168 900 168 857 q 197 975 168 943 q 276 1007 226 1007 m 596 1007 q 674 928 674 1007 q 645 846 674 878 q 573 814 617 814 q 509 835 529 814 q 489 900 489 857 q 517 975 489 943 q 596 1007 546 1007 z "},"÷":{"ha":821,"x_min":69,"x_max":722,"o":"m 703 289 l 69 282 l 90 428 l 722 428 l 703 289 m 443 717 q 535 626 535 717 q 500 537 535 578 q 419 496 465 496 q 329 585 329 496 q 363 675 329 633 q 443 717 397 717 m 369 213 q 461 122 461 213 q 426 33 461 74 q 346 -8 392 -8 q 256 81 256 -8 q 290 171 256 129 q 369 213 324 213 z "},"ø":{"ha":683,"x_min":17,"x_max":690,"o":"m 422 708 q 526 692 483 708 l 618 836 l 690 797 l 596 649 q 660 444 660 585 q 544 119 660 263 q 258 -25 428 -25 q 169 -14 211 -25 l 88 -143 l 17 -104 l 97 22 q 21 252 21 83 q 137 565 21 421 q 422 708 253 708 m 436 553 q 383 581 419 581 q 312 547 346 581 q 258 461 278 514 q 222 239 222 356 l 222 218 l 436 553 m 290 103 q 386 158 347 103 q 458 435 456 258 l 254 117 q 290 103 268 103 z "},"ù":{"ha":799,"x_min":31,"x_max":760,"o":"m 371 81 q 273 3 328 32 q 162 -25 218 -25 q 76 7 106 -25 q 47 95 47 39 q 84 317 47 151 q 126 571 121 483 l 31 576 l 31 649 l 296 708 l 351 669 q 249 215 249 314 q 278 154 249 154 q 394 249 331 154 q 540 615 494 400 q 551 683 549 657 l 711 708 l 760 683 q 643 117 657 296 l 751 107 l 746 33 l 467 -25 l 418 0 q 507 297 492 194 q 371 81 453 175 m 621 865 l 557 785 l 467 853 l 278 943 l 342 1049 l 621 865 z "},"ú":{"ha":799,"x_min":31,"x_max":760,"o":"m 371 81 q 273 3 328 32 q 162 -25 218 -25 q 76 7 106 -25 q 47 95 47 39 q 84 317 47 151 q 126 571 121 483 l 31 576 l 31 649 l 296 708 l 351 669 q 249 215 249 314 q 278 154 249 154 q 394 249 331 154 q 540 615 494 400 q 551 683 549 657 l 711 708 l 760 683 q 643 117 657 296 l 751 107 l 746 33 l 467 -25 l 418 0 q 507 297 492 194 q 371 81 453 175 m 611 1049 l 675 943 q 486 853 510 865 l 396 785 l 332 865 l 611 1049 z "},"û":{"ha":799,"x_min":31,"x_max":760,"o":"m 371 81 q 273 3 328 32 q 162 -25 218 -25 q 76 7 106 -25 q 47 95 47 39 q 84 317 47 151 q 126 571 121 483 l 31 576 l 31 649 l 296 708 l 351 669 q 249 215 249 314 q 278 154 249 154 q 394 249 331 154 q 540 615 494 400 q 551 683 549 657 l 711 708 l 760 683 q 643 117 657 296 l 751 107 l 746 33 l 467 -25 l 418 0 q 507 297 492 194 q 371 81 453 175 m 497 1063 l 735 864 l 658 783 l 579 857 l 475 919 q 353 857 381 869 l 251 783 l 201 864 l 497 1063 z "},"ü":{"ha":799,"x_min":31,"x_max":760,"o":"m 371 81 q 273 3 328 32 q 162 -25 218 -25 q 76 7 106 -25 q 47 95 47 39 q 84 317 47 151 q 126 571 121 483 l 31 576 l 31 649 l 296 708 l 351 669 q 249 215 249 314 q 278 154 249 154 q 394 249 331 154 q 540 615 494 400 q 551 683 549 657 l 711 708 l 760 683 q 643 117 657 296 l 751 107 l 746 33 l 467 -25 l 418 0 q 507 297 492 194 q 371 81 453 175 m 325 1007 q 403 928 403 1007 q 374 846 403 878 q 302 814 346 814 q 238 835 258 814 q 217 900 217 857 q 246 975 217 943 q 325 1007 275 1007 m 644 1007 q 722 928 722 1007 q 694 846 722 878 q 622 814 665 814 q 558 835 578 814 q 538 900 538 857 q 566 975 538 943 q 644 1007 594 1007 z "},"ý":{"ha":749,"x_min":-7,"x_max":732,"o":"m -7 -289 l 53 -124 q 273 -176 168 -176 q 415 -142 378 -176 q 439 -7 439 -121 q 470 123 439 6 q 506 296 501 240 q 358 67 446 160 q 158 -25 271 -25 q 76 7 106 -25 q 47 95 47 39 q 84 317 47 151 q 126 571 121 483 l 31 576 l 31 649 l 296 708 l 351 669 q 249 215 249 314 q 278 154 249 154 q 416 283 344 154 q 531 571 488 413 l 435 576 l 435 649 l 678 708 l 732 669 q 619 21 679 479 q 563 -151 607 -79 q 457 -258 519 -222 q 201 -326 339 -326 q -7 -289 63 -326 m 590 1049 l 654 943 q 465 853 489 865 l 375 785 l 311 865 l 590 1049 z "},"þ":{"ha":710,"x_min":-7,"x_max":694,"o":"m 582 704 q 666 642 638 704 q 694 476 694 579 q 648 251 694 372 q 526 51 601 131 q 372 -29 450 -29 q 235 -10 342 -29 q 199 -360 211 -222 l 40 -385 l -7 -360 q 101 267 47 -168 q 174 939 154 703 l 78 951 l 74 1024 l 347 1069 l 394 1031 q 288 468 306 575 q 426 640 350 576 q 582 704 501 704 m 464 528 q 343 411 414 528 q 250 153 272 294 q 396 115 332 115 q 467 219 433 115 q 501 442 501 322 q 464 528 501 528 z "},"ÿ":{"ha":749,"x_min":-7,"x_max":732,"o":"m -7 -289 l 53 -124 q 273 -176 168 -176 q 415 -142 378 -176 q 439 -7 439 -121 q 470 123 439 6 q 506 296 501 240 q 358 67 446 160 q 158 -25 271 -25 q 76 7 106 -25 q 47 95 47 39 q 84 317 47 151 q 126 571 121 483 l 31 576 l 31 649 l 296 708 l 351 669 q 249 215 249 314 q 278 154 249 154 q 416 283 344 154 q 531 571 488 413 l 435 576 l 435 649 l 678 708 l 732 669 q 619 21 679 479 q 563 -151 607 -79 q 457 -258 519 -222 q 201 -326 339 -326 q -7 -289 63 -326 m 310 1007 q 388 928 388 1007 q 359 846 388 878 q 287 814 331 814 q 222 835 243 814 q 201 900 201 857 q 231 975 201 943 q 310 1007 260 1007 m 629 1007 q 707 928 707 1007 q 678 846 707 878 q 606 814 650 814 q 542 835 563 814 q 522 900 522 857 q 551 975 522 943 q 629 1007 579 1007 z "},"Ā":{"ha":899,"x_min":-43,"x_max":864,"o":"m 864 90 l 843 -7 q 732 0 781 0 l 450 -7 l 458 94 l 539 107 l 544 179 l 536 249 l 285 249 l 250 160 l 235 107 l 310 90 l 289 -7 q 144 0 210 0 l -43 -7 l -36 94 l 25 104 l 99 224 l 461 979 l 619 994 l 772 178 l 790 103 l 864 90 m 482 692 l 339 363 l 518 365 l 482 692 m 788 1071 l 335 1071 l 350 1172 l 813 1172 l 788 1071 z "},"ā":{"ha":768,"x_min":26,"x_max":721,"o":"m 138 -25 q 54 38 82 -25 q 26 204 26 100 q 73 429 26 308 q 195 629 119 550 q 349 708 271 708 q 453 695 385 708 q 533 681 521 682 l 646 708 l 701 669 q 613 117 624 367 l 721 107 l 715 33 l 436 -25 l 388 0 q 478 299 461 190 q 322 65 411 154 q 138 -25 233 -25 m 258 154 q 377 269 307 154 q 471 525 447 383 q 325 561 379 561 q 254 460 288 561 q 221 239 221 358 q 258 154 221 154 m 692 828 l 239 828 l 254 929 l 717 929 l 692 828 z "},"Ă":{"ha":899,"x_min":-43,"x_max":864,"o":"m 864 90 l 843 -7 q 732 0 781 0 l 450 -7 l 458 94 l 539 107 l 544 179 l 536 249 l 285 249 l 250 160 l 235 107 l 310 90 l 289 -7 q 144 0 210 0 l -43 -7 l -36 94 l 25 104 l 99 224 l 461 979 l 619 994 l 772 178 l 790 103 l 864 90 m 482 692 l 339 363 l 518 365 l 482 692 m 696 1088 q 664 1060 696 1088 q 536 1032 632 1032 q 392 1089 440 1032 q 356 1203 356 1132 q 358 1247 356 1224 l 447 1247 q 446 1228 446 1238 q 472 1164 446 1190 q 551 1138 499 1138 q 640 1167 603 1138 q 685 1247 678 1196 l 774 1247 q 696 1088 760 1144 z "},"ă":{"ha":768,"x_min":26,"x_max":721,"o":"m 138 -25 q 54 38 82 -25 q 26 204 26 100 q 73 429 26 308 q 195 629 119 550 q 349 708 271 708 q 453 695 385 708 q 533 681 521 682 l 646 708 l 701 669 q 613 117 624 367 l 721 107 l 715 33 l 436 -25 l 388 0 q 478 299 461 190 q 322 65 411 154 q 138 -25 233 -25 m 258 154 q 377 269 307 154 q 471 525 447 383 q 325 561 379 561 q 254 460 288 561 q 221 239 221 358 q 258 154 221 154 m 607 851 q 575 823 607 851 q 447 794 543 794 q 303 850 351 794 q 267 963 267 893 q 271 1010 267 985 l 360 1010 q 358 990 358 1000 q 385 926 358 953 q 463 900 411 900 q 553 929 515 900 q 597 1010 590 958 l 686 1010 q 607 851 671 907 z "},"Ą":{"ha":893,"x_min":-46,"x_max":860,"o":"m 492 -129 q 544 -185 492 -185 q 592 -175 564 -185 l 607 -242 q 474 -274 536 -274 q 378 -247 413 -274 q 343 -175 343 -219 q 364 -98 343 -131 q 415 -39 385 -65 q 474 14 444 -12 q 544 167 544 81 l 544 179 l 536 249 l 281 249 l 246 160 l 229 107 l 304 90 l 283 -7 q 143 0 206 0 l -46 -7 l -37 94 l 25 104 l 97 224 l 464 979 l 615 994 l 767 178 l 788 103 l 860 90 l 839 -7 q 728 0 775 0 l 611 0 q 525 -48 558 -8 q 492 -129 492 -87 m 479 692 l 335 363 l 517 365 l 479 692 z "},"ą":{"ha":768,"x_min":26,"x_max":721,"o":"m 478 -17 q 408 -126 408 -67 q 460 -185 408 -185 q 507 -175 482 -185 l 522 -242 q 390 -274 451 -274 q 294 -247 329 -274 q 258 -174 258 -219 q 281 -93 258 -128 q 326 -39 303 -58 q 389 4 350 -19 q 478 299 464 211 q 322 65 411 154 q 138 -25 233 -25 q 54 38 82 -25 q 26 204 26 100 q 73 429 26 308 q 195 629 119 550 q 349 708 271 708 q 453 695 385 708 q 533 681 521 682 l 646 708 l 701 669 q 613 117 624 367 l 721 107 l 715 33 l 478 -17 m 258 154 q 377 269 307 154 q 471 525 447 383 q 325 561 379 561 q 254 460 288 561 q 221 239 221 358 q 258 154 221 154 z "},"Ć":{"ha":861,"x_min":47,"x_max":890,"o":"m 461 -21 q 153 92 260 -21 q 47 399 47 206 q 193 832 47 664 q 601 1000 339 1000 q 890 953 710 1000 l 838 704 l 733 710 l 742 794 q 733 851 743 807 q 579 871 649 871 q 451 828 510 871 q 361 714 393 785 q 296 385 296 572 q 339 184 296 260 q 466 108 382 108 q 643 129 550 108 q 653 147 644 132 q 675 197 675 190 l 689 263 l 792 265 l 768 26 q 461 -21 574 -21 m 729 1261 l 778 1144 q 558 1081 585 1089 l 460 1028 l 410 1117 l 729 1261 z "},"ć":{"ha":539,"x_min":10,"x_max":596,"o":"m 326 699 q 514 686 419 699 l 549 632 l 500 406 l 424 410 l 424 540 q 318 563 363 563 q 240 447 278 563 q 203 207 203 331 q 272 115 203 115 q 443 221 338 115 l 508 165 q 367 28 451 81 q 195 -24 282 -24 q 59 31 108 -25 q 10 192 10 88 q 60 417 10 296 q 185 618 110 538 q 326 699 260 699 m 532 1049 l 596 943 q 407 853 431 865 l 317 785 l 253 865 l 532 1049 z "},"Ĉ":{"ha":861,"x_min":47,"x_max":890,"o":"m 461 -21 q 153 92 260 -21 q 47 399 47 206 q 193 832 47 664 q 601 1000 339 1000 q 890 953 710 1000 l 838 704 l 733 710 l 742 794 q 733 851 743 807 q 579 871 649 871 q 451 828 510 871 q 361 714 393 785 q 296 385 296 572 q 339 184 296 260 q 466 108 382 108 q 643 129 550 108 q 653 147 644 132 q 675 197 675 190 l 689 263 l 792 265 l 768 26 q 461 -21 574 -21 m 642 1310 l 879 1125 l 803 1044 l 724 1111 l 619 1169 l 497 1111 l 396 1044 l 346 1125 l 642 1310 z "},"ĉ":{"ha":539,"x_min":10,"x_max":656,"o":"m 326 699 q 514 686 419 699 l 549 632 l 500 406 l 424 410 l 424 540 q 318 563 363 563 q 240 447 278 563 q 203 207 203 331 q 272 115 203 115 q 443 221 338 115 l 508 165 q 367 28 451 81 q 195 -24 282 -24 q 59 31 108 -25 q 10 192 10 88 q 60 417 10 296 q 185 618 110 538 q 326 699 260 699 m 418 1063 l 656 864 l 579 783 l 500 857 l 396 919 q 274 857 301 869 l 172 783 l 122 864 l 418 1063 z "},"Ċ":{"ha":861,"x_min":47,"x_max":890,"o":"m 461 -21 q 153 92 260 -21 q 47 399 47 206 q 193 832 47 664 q 601 1000 339 1000 q 890 953 710 1000 l 838 704 l 733 710 l 742 794 q 733 851 743 807 q 579 871 649 871 q 451 828 510 871 q 361 714 393 785 q 296 385 296 572 q 339 184 296 260 q 466 108 382 108 q 643 129 550 108 q 653 147 644 132 q 675 197 675 190 l 689 263 l 792 265 l 768 26 q 461 -21 574 -21 m 497 1135 q 497 1160 497 1135 q 531 1221 497 1185 q 615 1257 564 1257 q 690 1233 665 1257 q 714 1158 714 1208 q 681 1072 714 1108 q 597 1036 647 1036 q 522 1061 546 1036 q 497 1135 497 1086 z "},"ċ":{"ha":539,"x_min":10,"x_max":549,"o":"m 326 699 q 514 686 419 699 l 549 632 l 500 406 l 424 410 l 424 540 q 318 563 363 563 q 240 447 278 563 q 203 207 203 331 q 272 115 203 115 q 443 221 338 115 l 508 165 q 367 28 451 81 q 195 -24 282 -24 q 59 31 108 -25 q 10 192 10 88 q 60 417 10 296 q 185 618 110 538 q 326 699 260 699 m 286 899 q 286 924 286 899 q 319 985 286 949 q 403 1021 353 1021 q 478 997 454 1021 q 503 922 503 972 q 469 836 503 872 q 385 800 436 800 q 310 825 335 800 q 286 899 286 850 z "},"Č":{"ha":861,"x_min":47,"x_max":900,"o":"m 461 -21 q 153 92 260 -21 q 47 399 47 206 q 193 832 47 664 q 601 1000 339 1000 q 890 953 710 1000 l 838 704 l 733 710 l 742 794 q 733 851 743 807 q 579 871 649 871 q 451 828 510 871 q 361 714 393 785 q 296 385 296 572 q 339 184 296 260 q 466 108 382 108 q 643 129 550 108 q 653 147 644 132 q 675 197 675 190 l 689 263 l 792 265 l 768 26 q 461 -21 574 -21 m 847 1304 l 900 1224 l 606 1039 l 367 1224 l 440 1304 l 521 1236 l 626 1179 l 747 1236 l 847 1304 z "},"č":{"ha":539,"x_min":10,"x_max":672,"o":"m 326 699 q 514 686 419 699 l 549 632 l 500 406 l 424 410 l 424 540 q 318 563 363 563 q 240 447 278 563 q 203 207 203 331 q 272 115 203 115 q 443 221 338 115 l 508 165 q 367 28 451 81 q 195 -24 282 -24 q 59 31 108 -25 q 10 192 10 88 q 60 417 10 296 q 185 618 110 538 q 326 699 260 699 m 221 1063 l 300 989 q 397 924 326 975 q 513 989 483 975 l 614 1063 l 672 982 l 376 783 l 139 982 l 221 1063 z "},"Ď":{"ha":997,"x_min":17,"x_max":992,"o":"m 297 979 l 578 993 q 885 880 779 993 q 992 576 992 767 q 847 155 992 318 q 440 -8 703 -8 l 150 0 l 17 -7 l 24 90 l 114 107 q 143 226 140 199 l 214 711 q 225 842 225 772 l 225 865 l 140 882 l 163 986 q 297 979 232 979 m 546 878 q 457 867 521 878 q 447 816 457 865 q 436 753 438 767 l 365 268 q 347 111 354 203 q 431 107 385 107 q 592 150 524 107 q 694 267 660 193 q 761 588 761 406 q 710 798 761 718 q 546 878 658 878 m 782 1290 l 835 1210 l 540 1025 l 301 1210 l 375 1290 l 456 1222 l 561 1165 l 682 1222 l 782 1290 z "},"ď":{"ha":768,"x_min":26,"x_max":967,"o":"m 833 1050 l 967 1050 l 901 711 l 796 718 l 817 847 l 833 1050 m 138 -25 q 54 38 82 -25 q 26 204 26 100 q 73 429 26 308 q 195 629 119 550 q 349 708 271 708 q 496 688 378 708 q 524 938 518 844 l 414 950 l 410 1024 l 700 1069 l 747 1031 q 601 118 658 594 l 721 107 l 715 33 l 436 -25 l 388 0 q 478 297 451 169 q 322 64 410 153 q 138 -25 233 -25 m 325 561 q 254 460 288 561 q 221 239 221 358 q 258 154 221 154 q 377 269 307 154 q 471 525 447 383 q 325 561 379 561 z "},"Đ":{"ha":997,"x_min":17,"x_max":992,"o":"m 440 -8 l 150 0 l 17 -7 l 24 90 l 114 107 q 143 226 140 199 l 175 447 l 74 447 l 88 549 l 190 549 l 214 711 q 225 842 225 772 l 225 865 l 140 882 l 163 986 q 297 979 232 979 l 578 993 q 885 880 779 993 q 992 576 992 767 q 847 155 992 318 q 440 -8 703 -8 m 546 878 q 457 867 521 878 q 447 816 457 865 q 436 753 438 767 l 406 549 l 521 549 l 499 447 l 392 447 l 365 268 q 347 111 354 203 q 431 107 385 107 q 592 150 524 107 q 694 267 660 193 q 761 588 761 406 q 710 798 761 718 q 546 878 658 878 z "},"đ":{"ha":768,"x_min":26,"x_max":839,"o":"m 138 -25 q 54 38 82 -25 q 26 204 26 100 q 73 429 26 308 q 195 629 119 550 q 349 708 271 708 q 496 688 378 708 q 507 774 504 736 l 367 774 l 381 863 l 517 863 l 524 938 l 414 950 l 410 1024 l 700 1069 l 747 1031 q 729 940 740 999 q 714 863 718 882 l 839 863 l 825 774 l 697 774 q 601 118 638 433 l 721 107 l 715 33 l 436 -25 l 388 0 q 478 297 451 169 q 322 64 410 153 q 138 -25 233 -25 m 325 561 q 254 460 288 561 q 221 239 221 358 q 258 154 221 154 q 377 269 307 154 q 471 525 447 383 q 325 561 379 561 z "},"Ē":{"ha":833,"x_min":17,"x_max":838,"o":"m 294 979 l 660 979 l 815 993 l 838 968 l 815 751 l 717 744 l 717 826 q 708 860 717 843 q 603 865 656 865 l 457 865 q 447 811 456 857 q 436 753 438 765 l 407 554 q 440 553 419 553 l 514 553 q 574 565 542 553 l 599 654 l 682 647 q 664 532 668 560 l 643 356 l 553 347 l 553 431 q 469 439 497 439 l 431 439 q 390 438 399 439 l 365 268 q 347 121 356 211 l 514 121 q 618 132 563 121 q 653 192 638 161 q 679 271 671 236 l 774 264 l 718 19 l 689 -6 q 536 0 564 0 l 151 0 l 17 -7 l 24 90 l 114 107 q 131 162 119 118 q 143 226 142 206 l 214 711 q 226 820 226 788 q 225 865 226 853 l 140 882 l 163 986 q 294 979 244 979 m 753 1071 l 300 1071 l 315 1172 l 778 1172 l 753 1071 z "},"ē":{"ha":586,"x_min":10,"x_max":660,"o":"m 361 699 q 585 575 585 699 q 483 382 585 464 q 204 269 382 300 q 201 210 201 249 q 276 110 201 110 q 372 144 317 110 q 471 224 428 179 l 535 168 q 379 30 474 85 q 199 -25 285 -25 q 62 27 114 -25 q 10 188 10 79 q 67 417 10 296 q 207 618 124 538 q 361 699 290 699 m 635 828 l 182 828 l 197 929 l 660 929 l 635 828 m 333 574 q 267 512 300 574 q 217 358 235 450 q 356 431 304 381 q 407 535 407 482 q 333 574 407 574 z "},"Ĕ":{"ha":833,"x_min":17,"x_max":838,"o":"m 294 979 l 660 979 l 815 993 l 838 968 l 815 751 l 717 744 l 717 826 q 708 860 717 843 q 603 865 656 865 l 457 865 q 447 811 456 857 q 436 753 438 765 l 407 554 q 440 553 419 553 l 514 553 q 574 565 542 553 l 599 654 l 682 647 q 664 532 668 560 l 643 356 l 553 347 l 553 431 q 469 439 497 439 l 431 439 q 390 438 399 439 l 365 268 q 347 121 356 211 l 514 121 q 618 132 563 121 q 653 192 638 161 q 679 271 671 236 l 774 264 l 718 19 l 689 -6 q 536 0 564 0 l 151 0 l 17 -7 l 24 90 l 114 107 q 131 162 119 118 q 143 226 142 206 l 214 711 q 226 820 226 788 q 225 865 226 853 l 140 882 l 163 986 q 294 979 244 979 m 657 1088 q 625 1060 657 1088 q 497 1032 593 1032 q 353 1089 401 1032 q 317 1203 317 1132 q 319 1247 317 1224 l 408 1247 q 407 1228 407 1238 q 433 1164 407 1190 q 512 1138 460 1138 q 601 1167 564 1138 q 646 1247 639 1196 l 735 1247 q 657 1088 721 1144 z "},"ĕ":{"ha":586,"x_min":10,"x_max":629,"o":"m 361 699 q 585 575 585 699 q 483 382 585 464 q 204 269 382 300 q 201 210 201 249 q 276 110 201 110 q 372 144 317 110 q 471 224 428 179 l 535 168 q 379 30 474 85 q 199 -25 285 -25 q 62 27 114 -25 q 10 188 10 79 q 67 417 10 296 q 207 618 124 538 q 361 699 290 699 m 550 851 q 518 823 550 851 q 390 794 486 794 q 247 850 294 794 q 210 963 210 893 q 214 1010 210 985 l 303 1010 q 301 990 301 1000 q 328 926 301 953 q 406 900 354 900 q 496 929 458 900 q 540 1010 533 958 l 629 1010 q 550 851 614 907 m 333 574 q 267 512 300 574 q 217 358 235 450 q 356 431 304 381 q 407 535 407 482 q 333 574 407 574 z "},"Ė":{"ha":833,"x_min":17,"x_max":838,"o":"m 294 979 l 660 979 l 815 993 l 838 968 l 815 751 l 717 744 l 717 826 q 708 860 717 843 q 603 865 656 865 l 457 865 q 447 811 456 857 q 436 753 438 765 l 407 554 q 440 553 419 553 l 514 553 q 574 565 542 553 l 599 654 l 682 647 q 664 532 668 560 l 643 356 l 553 347 l 553 431 q 469 439 497 439 l 431 439 q 390 438 399 439 l 365 268 q 347 121 356 211 l 514 121 q 618 132 563 121 q 653 192 638 161 q 679 271 671 236 l 774 264 l 718 19 l 689 -6 q 536 0 564 0 l 151 0 l 17 -7 l 24 90 l 114 107 q 131 162 119 118 q 143 226 142 206 l 214 711 q 226 820 226 788 q 225 865 226 853 l 140 882 l 163 986 q 294 979 244 979 m 417 1135 q 417 1160 417 1135 q 450 1221 417 1185 q 534 1257 483 1257 q 609 1233 585 1257 q 633 1158 633 1208 q 600 1072 633 1108 q 516 1036 567 1036 q 441 1061 465 1036 q 417 1135 417 1086 z "},"ė":{"ha":586,"x_min":10,"x_max":585,"o":"m 361 699 q 585 575 585 699 q 483 382 585 464 q 204 269 382 300 q 201 210 201 249 q 276 110 201 110 q 372 144 317 110 q 471 224 428 179 l 535 168 q 379 30 474 85 q 199 -25 285 -25 q 62 27 114 -25 q 10 188 10 79 q 67 417 10 296 q 207 618 124 538 q 361 699 290 699 m 313 899 q 313 924 313 899 q 346 985 313 949 q 430 1021 379 1021 q 505 997 481 1021 q 529 922 529 972 q 496 836 529 872 q 412 800 463 800 q 337 825 361 800 q 313 899 313 850 m 333 574 q 267 512 300 574 q 217 358 235 450 q 356 431 304 381 q 407 535 407 482 q 333 574 407 574 z "},"Ę":{"ha":833,"x_min":17,"x_max":838,"o":"m 535 -131 q 588 -186 535 -186 q 635 -176 607 -186 l 649 -243 q 518 -275 581 -275 q 421 -248 456 -275 q 386 -169 386 -221 q 408 -89 386 -114 q 439 -56 429 -64 q 506 0 456 -37 l 151 0 l 17 -7 l 24 90 l 114 107 q 131 162 119 118 q 143 226 142 206 l 214 711 q 226 820 226 788 q 225 865 226 853 l 140 882 l 163 986 q 294 979 244 979 l 660 979 l 815 993 l 838 968 l 815 751 l 717 744 l 717 826 q 708 860 717 843 q 603 865 656 865 l 457 865 q 447 811 456 857 q 436 753 438 765 l 407 554 q 440 553 419 553 l 514 553 q 574 565 542 553 l 599 654 l 682 647 q 664 532 668 560 l 643 356 l 553 347 l 553 431 q 469 439 497 439 l 431 439 q 390 438 399 439 l 365 268 q 347 121 356 211 l 514 121 q 618 132 563 121 q 653 192 638 161 q 679 271 671 236 l 774 264 l 718 19 l 689 -6 q 567 -56 617 -6 q 535 -131 535 -86 z "},"ę":{"ha":586,"x_min":10,"x_max":585,"o":"m 272 -129 q 325 -185 272 -185 q 372 -175 344 -185 l 386 -242 q 256 -274 318 -274 q 158 -247 193 -274 q 122 -168 122 -219 q 210 -25 122 -86 l 197 -25 q 62 27 114 -25 q 10 188 10 79 q 67 417 10 296 q 207 618 124 538 q 361 699 290 699 q 585 575 585 699 q 483 382 585 464 q 204 269 382 300 q 201 210 201 249 q 276 110 201 110 q 372 144 317 110 q 471 224 428 179 l 535 168 q 385 33 475 85 q 272 -129 272 -56 m 333 574 q 267 512 300 574 q 217 358 235 450 q 356 431 304 381 q 407 535 407 482 q 333 574 407 574 z "},"Ě":{"ha":833,"x_min":17,"x_max":838,"o":"m 294 979 l 660 979 l 815 993 l 838 968 l 815 751 l 717 744 l 717 826 q 708 860 717 843 q 603 865 656 865 l 457 865 q 447 811 456 857 q 436 753 438 765 l 407 554 q 440 553 419 553 l 514 553 q 574 565 542 553 l 599 654 l 682 647 q 664 532 668 560 l 643 356 l 553 347 l 553 431 q 469 439 497 439 l 431 439 q 390 438 399 439 l 365 268 q 347 121 356 211 l 514 121 q 618 132 563 121 q 653 192 638 161 q 679 271 671 236 l 774 264 l 718 19 l 689 -6 q 536 0 564 0 l 151 0 l 17 -7 l 24 90 l 114 107 q 131 162 119 118 q 143 226 142 206 l 214 711 q 226 820 226 788 q 225 865 226 853 l 140 882 l 163 986 q 294 979 244 979 m 739 1276 l 792 1196 l 497 1011 l 258 1196 l 332 1276 l 413 1208 l 518 1151 l 639 1208 l 739 1276 z "},"ě":{"ha":586,"x_min":10,"x_max":685,"o":"m 361 699 q 585 575 585 699 q 483 382 585 464 q 204 269 382 300 q 201 210 201 249 q 276 110 201 110 q 372 144 317 110 q 471 224 428 179 l 535 168 q 379 30 474 85 q 199 -25 285 -25 q 62 27 114 -25 q 10 188 10 79 q 67 417 10 296 q 207 618 124 538 q 361 699 290 699 m 233 1063 l 313 989 q 410 924 339 975 q 525 989 496 975 l 626 1063 l 685 982 l 389 783 l 151 982 l 233 1063 m 333 574 q 267 512 300 574 q 217 358 235 450 q 356 431 304 381 q 407 535 407 482 q 333 574 407 574 z "},"Ĝ":{"ha":946,"x_min":49,"x_max":931,"o":"m 624 1000 q 931 953 742 1000 l 879 724 l 772 729 l 778 794 q 769 851 779 807 q 610 871 681 871 q 431 799 503 871 q 297 393 297 667 q 346 186 297 264 q 497 108 394 108 q 626 119 556 108 q 644 178 642 160 l 658 272 l 657 357 l 515 368 l 542 504 l 692 504 l 851 508 l 885 474 q 844 272 854 342 l 808 26 q 483 -21 628 -21 q 160 94 272 -21 q 49 403 49 208 q 199 833 49 667 q 624 1000 350 1000 m 676 1296 l 914 1111 l 838 1031 l 758 1097 l 654 1156 l 532 1097 l 431 1031 l 381 1111 l 676 1296 z "},"ĝ":{"ha":717,"x_min":-39,"x_max":711,"o":"m -39 -289 l 21 -124 q 239 -176 133 -176 q 383 -142 344 -176 q 406 -10 406 -122 q 436 117 406 3 q 474 293 467 232 q 320 63 408 150 q 136 -25 232 -25 q 53 38 82 -25 q 25 205 25 101 q 72 429 25 308 q 194 629 118 550 q 349 708 271 708 q 454 695 386 708 q 533 681 522 682 l 646 708 l 700 669 q 588 21 643 463 q 531 -151 575 -79 q 425 -258 488 -222 q 169 -326 307 -326 q -39 -289 31 -326 m 325 561 q 254 460 288 561 q 221 239 221 358 q 257 154 221 154 q 377 269 307 154 q 469 525 447 383 q 325 561 381 561 m 474 1063 l 711 864 l 635 783 l 556 857 l 451 919 q 329 857 357 869 l 228 783 l 178 864 l 474 1063 z "},"Ğ":{"ha":946,"x_min":49,"x_max":931,"o":"m 624 1000 q 931 953 742 1000 l 879 724 l 772 729 l 778 794 q 769 851 779 807 q 610 871 681 871 q 431 799 503 871 q 297 393 297 667 q 346 186 297 264 q 497 108 394 108 q 626 119 556 108 q 644 178 642 160 l 658 272 l 657 357 l 515 368 l 542 504 l 692 504 l 851 508 l 885 474 q 844 272 854 342 l 808 26 q 483 -21 628 -21 q 160 94 272 -21 q 49 403 49 208 q 199 833 49 667 q 624 1000 350 1000 m 804 1088 q 772 1060 804 1088 q 644 1032 740 1032 q 500 1089 549 1032 q 464 1203 464 1132 q 467 1247 464 1224 l 556 1247 q 554 1228 554 1238 q 581 1164 554 1190 q 659 1138 607 1138 q 749 1167 711 1138 q 793 1247 786 1196 l 882 1247 q 804 1088 868 1144 z "},"ğ":{"ha":717,"x_min":-39,"x_max":700,"o":"m -39 -289 l 21 -124 q 239 -176 133 -176 q 383 -142 344 -176 q 406 -10 406 -122 q 436 117 406 3 q 474 293 467 232 q 320 63 408 150 q 136 -25 232 -25 q 53 38 82 -25 q 25 205 25 101 q 72 429 25 308 q 194 629 118 550 q 349 708 271 708 q 454 695 386 708 q 533 681 522 682 l 646 708 l 700 669 q 588 21 643 463 q 531 -151 575 -79 q 425 -258 488 -222 q 169 -326 307 -326 q -39 -289 31 -326 m 325 561 q 254 460 288 561 q 221 239 221 358 q 257 154 221 154 q 377 269 307 154 q 469 525 447 383 q 325 561 381 561 m 593 851 q 561 823 593 851 q 433 794 529 794 q 289 850 338 794 q 253 963 253 893 q 257 1010 253 985 l 346 1010 q 344 990 344 1000 q 371 926 344 953 q 449 900 397 900 q 539 929 501 900 q 583 1010 576 958 l 672 1010 q 593 851 657 907 z "},"Ġ":{"ha":946,"x_min":49,"x_max":931,"o":"m 624 1000 q 931 953 742 1000 l 879 724 l 772 729 l 778 794 q 769 851 779 807 q 610 871 681 871 q 431 799 503 871 q 297 393 297 667 q 346 186 297 264 q 497 108 394 108 q 626 119 556 108 q 644 178 642 160 l 658 272 l 657 357 l 515 368 l 542 504 l 692 504 l 851 508 l 885 474 q 844 272 854 342 l 808 26 q 483 -21 628 -21 q 160 94 272 -21 q 49 403 49 208 q 199 833 49 667 q 624 1000 350 1000 m 532 1135 q 532 1160 532 1135 q 565 1221 532 1185 q 649 1257 599 1257 q 724 1233 700 1257 q 749 1158 749 1208 q 715 1072 749 1108 q 631 1036 682 1036 q 556 1061 581 1036 q 532 1135 532 1086 z "},"ġ":{"ha":717,"x_min":-39,"x_max":700,"o":"m -39 -289 l 21 -124 q 239 -176 133 -176 q 383 -142 344 -176 q 406 -10 406 -122 q 436 117 406 3 q 474 293 467 232 q 320 63 408 150 q 136 -25 232 -25 q 53 38 82 -25 q 25 205 25 101 q 72 429 25 308 q 194 629 118 550 q 349 708 271 708 q 454 695 386 708 q 533 681 522 682 l 646 708 l 700 669 q 588 21 643 463 q 531 -151 575 -79 q 425 -258 488 -222 q 169 -326 307 -326 q -39 -289 31 -326 m 325 561 q 254 460 288 561 q 221 239 221 358 q 257 154 221 154 q 377 269 307 154 q 469 525 447 383 q 325 561 381 561 m 356 899 q 356 924 356 899 q 389 985 356 949 q 473 1021 422 1021 q 548 997 524 1021 q 572 922 572 972 q 539 836 572 872 q 455 800 506 800 q 380 825 404 800 q 356 899 356 850 z "},"Ģ":{"ha":946,"x_min":49,"x_max":931,"o":"m 624 1000 q 931 953 742 1000 l 879 724 l 772 729 l 778 794 q 769 851 779 807 q 610 871 681 871 q 431 799 503 871 q 297 393 297 667 q 346 186 297 264 q 497 108 394 108 q 626 119 556 108 q 644 178 642 160 l 658 272 l 657 357 l 515 368 l 542 504 l 692 504 l 851 508 l 885 474 q 844 272 854 342 l 808 26 q 483 -21 628 -21 q 160 94 272 -21 q 49 403 49 208 q 199 833 49 667 q 624 1000 350 1000 m 426 -250 q 382 -185 382 -232 q 413 -109 382 -137 q 481 -81 444 -81 q 538 -103 518 -81 q 558 -165 558 -125 q 531 -258 558 -204 q 475 -347 503 -312 l 446 -381 l 386 -364 q 426 -250 421 -287 z "},"ģ":{"ha":717,"x_min":-39,"x_max":700,"o":"m -39 -289 l 21 -124 q 239 -176 133 -176 q 383 -142 344 -176 q 406 -10 406 -122 q 436 117 406 3 q 474 293 467 232 q 320 63 408 150 q 136 -25 232 -25 q 53 38 82 -25 q 25 205 25 101 q 72 429 25 308 q 194 629 118 550 q 349 708 271 708 q 454 695 386 708 q 533 681 522 682 l 646 708 l 700 669 q 588 21 643 463 q 531 -151 575 -79 q 425 -258 488 -222 q 169 -326 307 -326 q -39 -289 31 -326 m 325 561 q 254 460 288 561 q 221 239 221 358 q 257 154 221 154 q 377 269 307 154 q 469 525 447 383 q 325 561 381 561 m 450 944 q 494 879 494 926 q 463 803 494 832 q 395 775 432 775 q 338 797 358 775 q 318 859 318 819 q 347 953 318 899 q 403 1042 375 1007 l 431 1075 l 490 1058 q 450 944 456 982 z "},"Ĥ":{"ha":1119,"x_min":17,"x_max":1146,"o":"m 1146 986 l 1136 874 l 1047 865 q 1018 753 1025 799 l 949 268 q 936 107 936 200 l 1021 99 l 999 -7 q 733 0 889 0 l 600 -7 l 607 90 l 697 107 q 710 160 697 110 q 726 226 724 210 l 754 419 l 388 419 l 365 268 q 354 107 354 199 l 438 99 l 415 -7 q 150 0 306 0 l 17 -7 l 24 90 l 114 107 q 143 226 140 193 l 214 711 q 225 865 217 726 l 140 882 l 163 986 q 294 979 229 979 l 563 986 l 553 874 l 464 865 q 436 753 444 806 l 404 540 l 774 546 l 797 711 q 808 865 800 731 l 724 882 l 746 986 q 878 979 813 979 l 1146 986 m 690 1296 l 928 1111 l 851 1031 l 772 1097 l 668 1156 l 546 1097 l 444 1031 l 394 1111 l 690 1296 z "},"ĥ":{"ha":806,"x_min":13,"x_max":781,"o":"m 646 708 q 728 676 699 708 q 757 587 757 644 q 724 363 757 529 q 685 114 692 196 l 781 107 l 775 33 l 496 -25 l 449 0 q 556 468 556 372 q 526 529 556 529 q 419 445 479 529 q 316 244 360 361 q 261 28 272 126 l 257 0 l 97 -25 l 46 0 q 142 478 103 196 q 194 938 182 761 l 100 950 l 96 1024 l 371 1069 l 418 1031 q 375 803 403 944 q 297 375 321 524 q 646 708 444 708 m 308 1307 l 546 1122 l 469 1042 l 390 1108 l 286 1167 l 164 1108 l 63 1042 l 13 1122 l 308 1307 z "},"Ħ":{"ha":1119,"x_min":17,"x_max":1146,"o":"m 803 765 q 808 865 808 818 l 724 882 l 746 986 q 878 979 813 979 l 1146 986 l 1136 874 l 1047 865 q 1019 765 1035 833 l 1138 765 l 1125 676 l 1007 676 l 949 268 q 936 107 936 200 l 1021 99 l 999 -7 q 733 0 889 0 l 600 -7 l 607 90 l 697 107 q 710 160 697 110 q 726 226 724 210 l 754 419 l 388 419 l 365 268 q 354 107 354 199 l 438 99 l 415 -7 q 150 0 306 0 l 17 -7 l 24 90 l 114 107 q 143 226 140 193 l 208 676 l 92 676 l 104 765 l 221 765 q 225 865 225 806 l 140 882 l 163 986 q 294 979 229 979 l 563 986 l 553 874 l 464 865 q 438 765 456 842 l 803 765 m 404 540 l 774 546 l 792 676 l 424 676 l 404 540 z "},"ħ":{"ha":806,"x_min":24,"x_max":758,"o":"m 624 708 q 706 676 676 708 q 735 587 735 644 q 702 363 735 529 q 663 114 669 196 l 758 107 l 753 33 l 474 -25 l 426 0 q 533 468 533 372 q 504 529 533 529 q 397 445 457 529 q 294 244 338 361 q 239 28 250 126 l 235 0 l 75 -25 l 24 0 q 157 774 101 271 l 28 774 l 42 863 l 165 863 l 172 938 l 78 950 l 74 1024 l 349 1069 l 396 1031 q 381 951 392 1008 q 364 863 369 893 l 501 863 l 488 774 l 347 774 q 275 375 300 535 q 624 708 422 708 z "},"Ĩ":{"ha":550,"x_min":24,"x_max":647,"o":"m 569 986 l 560 874 l 471 865 q 442 753 449 799 l 372 268 q 360 107 360 200 l 444 99 l 422 -7 q 157 0 313 0 l 24 -7 l 31 90 l 121 107 q 134 160 121 110 q 150 226 147 210 l 221 711 q 232 865 224 731 l 147 882 l 169 986 q 301 979 236 979 l 569 986 m 622 1149 q 614 1137 622 1149 q 567 1086 606 1125 q 499 1047 528 1047 q 388 1074 469 1047 q 282 1100 306 1100 q 207 1056 244 1100 l 194 1042 l 135 1081 q 212 1182 168 1138 q 284 1226 256 1226 q 396 1200 313 1226 q 503 1174 479 1174 q 574 1214 540 1174 l 585 1226 l 647 1188 q 622 1149 638 1172 z "},"ĩ":{"ha":424,"x_min":28,"x_max":461,"o":"m 440 926 q 433 915 440 926 q 394 864 426 903 q 338 825 361 825 q 246 851 314 825 q 161 878 178 878 q 99 833 132 878 l 88 819 l 29 858 q 94 958 57 913 q 155 1004 132 1004 q 247 978 178 1004 q 333 951 317 951 q 390 992 361 951 l 400 1004 l 461 965 q 440 926 453 950 m 294 708 l 349 669 q 250 115 281 401 l 358 107 l 353 33 l 75 -25 l 28 0 q 126 571 108 304 l 31 576 l 31 649 l 294 708 z "},"Ī":{"ha":550,"x_min":24,"x_max":650,"o":"m 569 986 l 560 874 l 471 865 q 442 753 449 799 l 372 268 q 360 107 360 200 l 444 99 l 422 -7 q 157 0 313 0 l 24 -7 l 31 90 l 121 107 q 134 160 121 110 q 150 226 147 210 l 221 711 q 232 865 224 731 l 147 882 l 169 986 q 301 979 236 979 l 569 986 m 625 1071 l 172 1071 l 188 1172 l 650 1172 l 625 1071 z "},"ī":{"ha":424,"x_min":40,"x_max":490,"o":"m 468 828 l 126 828 l 142 929 l 490 929 l 468 828 m 307 708 l 361 669 q 263 115 293 401 l 371 107 l 365 33 l 88 -25 l 40 0 q 139 571 121 304 l 43 576 l 43 649 l 307 708 z "},"Ĭ":{"ha":550,"x_min":24,"x_max":615,"o":"m 569 986 l 560 874 l 471 865 q 442 753 449 799 l 372 268 q 360 107 360 200 l 444 99 l 422 -7 q 157 0 313 0 l 24 -7 l 31 90 l 121 107 q 134 160 121 110 q 150 226 147 210 l 221 711 q 232 865 224 731 l 147 882 l 169 986 q 301 979 236 979 l 569 986 m 538 1088 q 506 1060 538 1088 q 378 1032 474 1032 q 233 1089 282 1032 q 197 1203 197 1132 q 200 1247 197 1224 l 289 1247 q 288 1228 288 1238 q 314 1164 288 1190 q 392 1138 340 1138 q 482 1167 444 1138 q 526 1247 519 1196 l 615 1247 q 538 1088 601 1144 z "},"ĭ":{"ha":424,"x_min":47,"x_max":488,"o":"m 314 708 l 368 669 q 269 115 300 401 l 378 107 l 372 33 l 94 -25 l 47 0 q 146 571 128 304 l 50 576 l 50 649 l 314 708 m 408 851 q 376 823 408 851 q 249 794 344 794 q 106 850 153 794 q 68 963 68 893 q 72 1010 68 985 l 161 1010 q 160 990 160 1000 q 186 926 160 953 q 265 900 213 900 q 354 929 317 900 q 399 1010 392 958 l 488 1010 q 408 851 472 907 z "},"Į":{"ha":544,"x_min":-49,"x_max":564,"o":"m 101 -129 q 154 -185 101 -185 q 201 -175 174 -185 l 215 -242 q 85 -274 147 -274 q -13 -247 22 -274 q -49 -174 -49 -219 q -32 -99 -49 -128 q 10 -47 -15 -69 q 62 5 35 -24 q 114 90 89 33 q 150 226 139 147 l 221 711 q 232 865 224 731 l 146 882 l 168 986 q 301 979 239 979 l 564 986 l 554 874 l 464 865 q 436 753 444 806 l 365 268 q 353 107 353 179 l 439 99 l 418 -7 q 221 0 338 -1 q 135 -48 168 -8 q 101 -129 101 -87 z "},"į":{"ha":426,"x_min":-87,"x_max":406,"o":"m 63 -131 q 110 -185 63 -185 q 154 -175 131 -185 l 169 -242 q 40 -274 99 -274 q -53 -247 -19 -274 q -87 -178 -87 -219 q -69 -107 -87 -136 q -26 -53 -51 -78 q 31 26 -1 -28 q 83 149 63 79 q 146 571 132 364 l 50 576 l 51 649 l 317 708 l 371 669 q 272 117 303 401 l 381 107 l 375 33 l 128 -18 q 80 -69 97 -37 q 63 -131 63 -100 m 314 1036 q 406 944 406 1036 q 371 855 406 896 q 290 814 336 814 q 199 903 199 814 q 233 994 199 953 q 314 1036 268 1036 z "},"İ":{"ha":550,"x_min":24,"x_max":569,"o":"m 569 986 l 560 874 l 471 865 q 442 753 449 799 l 372 268 q 360 107 360 200 l 444 99 l 422 -7 q 157 0 313 0 l 24 -7 l 31 90 l 121 107 q 134 160 121 110 q 150 226 147 210 l 221 711 q 232 865 224 731 l 147 882 l 169 986 q 301 979 236 979 l 569 986 m 278 1135 q 278 1160 278 1135 q 311 1221 278 1185 q 395 1257 344 1257 q 470 1233 446 1257 q 494 1158 494 1208 q 461 1072 494 1108 q 377 1036 428 1036 q 302 1061 326 1036 q 278 1135 278 1086 z "},"ı":{"ha":426,"x_min":49,"x_max":379,"o":"m 315 708 l 369 669 q 271 115 301 401 l 379 107 l 374 33 l 96 -25 l 49 0 q 147 571 129 304 l 51 576 l 51 649 l 315 708 z "},"Ĳ":{"ha":979,"x_min":22,"x_max":1021,"o":"m 678 711 q 689 819 689 786 q 688 865 689 853 l 579 878 l 465 865 q 438 753 449 826 l 367 268 q 354 107 354 176 l 440 99 l 419 -7 q 158 0 311 0 l 22 -7 l 29 90 l 122 107 q 136 163 124 114 q 151 226 149 211 l 222 711 q 233 865 233 790 l 147 882 l 169 986 q 303 979 240 979 l 758 979 l 1021 986 l 1011 874 l 921 865 q 892 753 899 799 l 782 0 q 707 -99 778 -32 q 504 -278 636 -167 l 436 -235 q 576 15 572 -12 l 678 711 z "},"ĳ":{"ha":788,"x_min":32,"x_max":751,"o":"m 306 1035 q 397 944 397 1035 q 363 855 397 896 q 282 814 328 814 q 192 903 192 814 q 226 993 192 951 q 306 1035 260 1035 m 660 1035 q 751 944 751 1035 q 717 855 751 896 q 636 814 682 814 q 546 903 546 814 q 580 993 546 951 q 660 1035 614 1035 m 160 -25 q 78 7 107 -25 q 49 90 49 39 q 86 319 49 140 q 128 571 124 499 l 32 576 l 32 649 l 296 708 l 350 669 q 247 214 247 311 q 278 151 247 151 q 416 281 343 151 q 529 567 489 410 l 529 571 l 435 576 l 435 649 l 683 708 l 738 669 q 673 358 694 490 q 621 -21 651 226 q 367 -326 614 -79 l 301 -279 q 401 -93 351 -192 q 454 19 451 6 q 493 267 469 85 q 160 -25 351 -25 z "},"Ĵ":{"ha":504,"x_min":-43,"x_max":607,"o":"m 536 874 l 447 865 q 418 753 425 799 l 311 14 q 226 -99 306 -19 q 26 -278 147 -179 l -43 -235 q 96 15 92 -12 l 197 711 q 208 865 208 790 l 124 882 l 146 986 q 278 979 213 979 l 546 986 l 536 874 m 369 1296 l 607 1111 l 531 1031 l 451 1097 l 347 1156 l 225 1097 l 124 1031 l 74 1111 l 369 1296 z "},"ĵ":{"ha":417,"x_min":-83,"x_max":525,"o":"m 313 708 l 367 669 q 302 358 324 490 q 250 -21 281 226 q 111 -199 246 -64 q 38 -272 85 -225 q -18 -326 -10 -318 l -83 -279 q 6 -101 -39 -201 q 56 19 51 0 q 144 571 129 329 l 49 576 l 49 649 l 313 708 m 288 1063 l 525 864 l 449 783 l 369 857 l 265 919 q 143 857 171 869 l 42 783 l -8 864 l 288 1063 z "},"Ķ":{"ha":1017,"x_min":21,"x_max":1051,"o":"m 990 99 l 968 -7 q 690 0 844 0 l 565 -7 l 572 90 l 625 101 q 564 228 564 226 l 403 490 l 664 801 l 711 874 l 672 882 l 694 986 q 824 979 756 979 l 1051 986 l 1042 874 l 965 865 q 850 758 907 815 l 640 514 q 867 179 779 313 q 928 107 876 165 l 990 99 m 558 986 l 549 874 l 464 865 q 436 753 444 806 l 365 268 q 354 107 354 199 l 432 99 l 410 -7 q 149 0 303 0 l 21 -7 l 28 90 l 114 107 q 143 226 140 193 l 214 711 q 225 865 217 726 l 146 882 l 167 986 q 293 979 226 979 l 558 986 m 426 -250 q 382 -185 382 -232 q 413 -109 382 -137 q 481 -81 444 -81 q 538 -103 518 -81 q 558 -165 558 -125 q 531 -258 558 -204 q 475 -347 503 -312 l 446 -381 l 386 -364 q 426 -250 421 -287 z "},"ķ":{"ha":753,"x_min":24,"x_max":742,"o":"m 619 708 q 742 592 742 708 q 503 299 742 410 q 636 118 569 185 l 731 107 l 725 33 l 489 -25 l 331 246 l 331 314 q 491 404 433 350 q 549 521 549 458 q 513 560 549 560 q 358 408 442 560 q 238 0 263 232 l 76 -25 l 24 0 q 112 435 67 153 q 172 938 157 718 l 78 950 l 74 1024 l 349 1069 l 396 1031 q 341 741 381 944 q 286 443 301 538 q 442 633 347 557 q 619 708 538 708 m 303 -250 q 258 -185 258 -232 q 290 -109 258 -137 q 358 -81 321 -81 q 415 -103 394 -81 q 435 -165 435 -125 q 406 -258 435 -204 q 350 -347 378 -312 l 322 -381 l 263 -364 q 303 -250 297 -287 z "},"ĸ":{"ha":775,"x_min":3,"x_max":878,"o":"m 629 0 l 497 0 l 471 83 l 446 153 l 357 368 l 557 586 l 485 594 l 507 693 q 719 686 625 686 l 878 692 l 860 594 l 788 588 q 665 508 686 532 l 558 389 l 636 225 q 724 107 638 219 l 803 99 l 781 -7 q 629 0 707 0 m 400 99 l 379 -7 q 139 0 292 0 l 3 -7 l 10 90 l 101 107 q 132 226 128 199 l 164 451 l 168 572 l 71 596 l 97 699 q 254 686 197 686 l 372 689 l 397 663 q 347 410 357 479 l 326 268 l 314 107 l 400 99 z "},"Ĺ":{"ha":764,"x_min":17,"x_max":739,"o":"m 354 121 l 479 121 q 583 132 531 121 q 644 271 628 207 l 739 264 l 683 19 l 654 -6 q 501 0 528 0 l 150 0 l 17 -7 l 24 90 l 114 107 q 143 226 140 193 l 214 711 q 225 865 217 726 l 140 882 l 163 986 q 294 979 229 979 l 563 986 l 553 874 l 464 865 q 436 753 444 806 l 365 268 q 354 121 354 190 m 481 1247 l 529 1131 q 310 1067 336 1075 l 211 1014 l 161 1103 l 481 1247 z "},"ĺ":{"ha":404,"x_min":24,"x_max":497,"o":"m 349 1069 l 396 1031 q 253 117 283 415 l 357 107 l 351 33 l 72 -25 l 24 0 q 120 478 81 196 q 172 938 160 761 l 78 950 l 74 1024 l 349 1069 m 449 1318 l 497 1201 q 278 1138 304 1146 l 179 1085 l 129 1174 l 449 1318 z "},"Ļ":{"ha":764,"x_min":17,"x_max":739,"o":"m 354 121 l 479 121 q 583 132 531 121 q 644 271 628 207 l 739 264 l 683 19 l 654 -6 q 501 0 528 0 l 150 0 l 17 -7 l 24 90 l 114 107 q 143 226 140 193 l 214 711 q 225 865 217 726 l 140 882 l 163 986 q 294 979 229 979 l 563 986 l 553 874 l 464 865 q 436 753 444 806 l 365 268 q 354 121 354 190 m 326 -250 q 282 -185 282 -232 q 313 -109 282 -137 q 381 -81 344 -81 q 438 -103 418 -81 q 458 -165 458 -125 q 431 -258 458 -204 q 375 -347 403 -312 l 346 -381 l 286 -364 q 326 -250 321 -287 z "},"ļ":{"ha":404,"x_min":24,"x_max":396,"o":"m 349 1069 l 396 1031 q 253 117 283 415 l 357 107 l 351 33 l 72 -25 l 24 0 q 120 478 81 196 q 172 938 160 761 l 78 950 l 74 1024 l 349 1069 m 93 -250 q 49 -185 49 -232 q 80 -109 49 -137 q 148 -81 111 -81 q 205 -103 185 -81 q 225 -165 225 -125 q 197 -258 225 -204 q 142 -347 169 -312 l 113 -381 l 53 -364 q 93 -250 88 -287 z "},"Ľ":{"ha":764,"x_min":17,"x_max":779,"o":"m 619 829 l 779 829 l 714 490 l 594 497 l 615 626 l 619 829 m 354 121 l 479 121 q 583 132 531 121 q 644 271 628 207 l 739 264 l 683 19 l 654 -6 q 501 0 528 0 l 150 0 l 17 -7 l 24 90 l 114 107 q 143 226 140 193 l 214 711 q 225 865 217 726 l 140 882 l 163 986 q 294 979 229 979 l 563 986 l 553 874 l 464 865 q 436 753 444 806 l 365 268 q 354 121 354 190 z "},"ľ":{"ha":493,"x_min":24,"x_max":603,"o":"m 469 1050 l 603 1050 l 538 711 l 432 718 l 453 847 l 469 1050 m 349 1069 l 396 1031 q 253 117 283 415 l 357 107 l 351 33 l 72 -25 l 24 0 q 120 478 81 196 q 172 938 160 761 l 78 950 l 74 1024 l 349 1069 z "},"Ŀ":{"ha":764,"x_min":17,"x_max":742,"o":"m 524 559 q 524 585 524 559 q 558 650 524 611 q 643 689 593 689 q 717 663 693 689 q 742 585 742 638 q 707 493 742 532 q 622 454 672 454 q 548 481 572 454 q 524 559 524 507 m 354 121 l 479 121 q 583 132 531 121 q 644 271 628 207 l 739 264 l 683 19 l 654 -6 q 501 0 528 0 l 150 0 l 17 -7 l 24 90 l 114 107 q 143 226 140 193 l 214 711 q 225 865 217 726 l 140 882 l 163 986 q 294 979 229 979 l 563 986 l 553 874 l 464 865 q 436 753 444 806 l 365 268 q 354 121 354 190 z "},"ŀ":{"ha":556,"x_min":24,"x_max":568,"o":"m 351 396 q 385 494 351 456 q 469 533 419 533 q 544 508 519 533 q 568 429 568 482 q 533 338 568 376 q 449 299 499 299 q 351 396 351 299 m 349 1069 l 396 1031 q 253 117 283 415 l 357 107 l 351 33 l 72 -25 l 24 0 q 120 478 81 196 q 172 938 160 761 l 78 950 l 74 1024 l 349 1069 z "},"Ł":{"ha":764,"x_min":17,"x_max":739,"o":"m 354 121 l 479 121 q 583 132 531 121 q 644 271 628 207 l 739 264 l 683 19 l 654 -6 q 501 0 528 0 l 150 0 l 17 -7 l 24 90 l 114 107 q 143 226 140 193 l 174 442 l 42 394 l 24 478 l 188 536 l 214 711 q 225 865 217 726 l 140 882 l 163 986 q 294 979 229 979 l 563 986 l 553 874 l 464 865 q 436 753 444 806 l 417 617 l 610 686 l 626 603 l 403 522 l 365 268 q 354 121 354 190 z "},"ł":{"ha":404,"x_min":7,"x_max":461,"o":"m 349 1069 l 396 1031 q 328 644 346 757 l 444 686 l 461 603 l 313 550 q 253 117 268 267 l 357 107 l 351 33 l 72 -25 l 24 0 q 119 481 74 176 l 24 447 l 7 531 l 133 575 q 172 938 157 757 l 78 950 l 74 1024 l 349 1069 z "},"Ń":{"ha":1085,"x_min":17,"x_max":1144,"o":"m 296 979 l 439 979 l 460 951 q 547 746 532 776 l 778 319 l 835 711 q 844 865 844 783 l 761 882 l 783 986 l 918 979 l 1144 986 l 1135 874 l 1046 865 q 1018 753 1026 806 l 908 0 l 718 0 l 379 625 l 326 268 q 315 107 315 186 l 400 99 l 378 -7 q 151 0 307 0 l 17 -7 l 24 90 l 114 107 q 143 226 138 172 l 214 711 q 225 865 225 781 l 142 882 l 163 986 q 296 979 229 979 m 801 1247 l 850 1131 q 631 1067 657 1075 l 532 1014 l 482 1103 l 801 1247 z "},"ń":{"ha":821,"x_min":38,"x_max":774,"o":"m 636 708 q 719 676 689 708 q 749 585 749 643 q 716 362 749 528 q 676 117 683 196 l 774 107 l 768 33 l 489 -25 l 439 0 q 547 468 547 367 q 517 529 547 529 q 365 375 449 529 q 256 65 282 221 q 246 0 254 57 l 85 -25 l 38 0 q 146 571 131 349 l 51 576 l 51 649 l 317 708 l 371 669 q 293 397 319 515 q 636 708 439 708 m 660 1049 l 724 943 q 535 853 558 865 l 444 785 l 381 865 l 660 1049 z "},"Ņ":{"ha":1085,"x_min":17,"x_max":1144,"o":"m 296 979 l 439 979 l 460 951 q 547 746 532 776 l 778 319 l 835 711 q 844 865 844 783 l 761 882 l 783 986 l 918 979 l 1144 986 l 1135 874 l 1046 865 q 1018 753 1026 806 l 908 0 l 718 0 l 379 625 l 326 268 q 315 107 315 186 l 400 99 l 378 -7 q 151 0 307 0 l 17 -7 l 24 90 l 114 107 q 143 226 138 172 l 214 711 q 225 865 225 781 l 142 882 l 163 986 q 296 979 229 979 m 467 -250 q 422 -185 422 -232 q 453 -109 422 -137 q 522 -81 485 -81 q 578 -103 558 -81 q 599 -165 599 -125 q 570 -258 599 -204 q 514 -347 542 -312 l 486 -381 l 426 -364 q 467 -250 461 -287 z "},"ņ":{"ha":821,"x_min":38,"x_max":774,"o":"m 636 708 q 719 676 689 708 q 749 585 749 643 q 716 362 749 528 q 676 117 683 196 l 774 107 l 768 33 l 489 -25 l 439 0 q 547 468 547 367 q 517 529 547 529 q 365 375 449 529 q 256 65 282 221 q 246 0 254 57 l 85 -25 l 38 0 q 146 571 131 349 l 51 576 l 51 649 l 317 708 l 371 669 q 293 397 319 515 q 636 708 439 708 m 314 -250 q 269 -185 269 -232 q 301 -109 269 -137 q 369 -81 332 -81 q 426 -103 406 -81 q 446 -165 446 -125 q 417 -258 446 -204 q 361 -347 389 -312 l 333 -381 l 274 -364 q 314 -250 308 -287 z "},"Ň":{"ha":1085,"x_min":17,"x_max":1144,"o":"m 296 979 l 439 979 l 460 951 q 547 746 532 776 l 778 319 l 835 711 q 844 865 844 783 l 761 882 l 783 986 l 918 979 l 1144 986 l 1135 874 l 1046 865 q 1018 753 1026 806 l 908 0 l 718 0 l 379 625 l 326 268 q 315 107 315 186 l 400 99 l 378 -7 q 151 0 307 0 l 17 -7 l 24 90 l 114 107 q 143 226 138 172 l 214 711 q 225 865 225 781 l 142 882 l 163 986 q 296 979 229 979 m 864 1235 l 917 1154 l 622 969 l 383 1154 l 457 1235 l 538 1167 l 643 1110 l 764 1167 l 864 1235 z "},"ň":{"ha":821,"x_min":38,"x_max":788,"o":"m 636 708 q 719 676 689 708 q 749 585 749 643 q 716 362 749 528 q 676 117 683 196 l 774 107 l 768 33 l 489 -25 l 439 0 q 547 468 547 367 q 517 529 547 529 q 365 375 449 529 q 256 65 282 221 q 246 0 254 57 l 85 -25 l 38 0 q 146 571 131 349 l 51 576 l 51 649 l 317 708 l 371 669 q 293 397 319 515 q 636 708 439 708 m 336 1063 l 415 989 q 513 924 442 975 q 628 989 599 975 l 729 1063 l 788 982 l 492 783 l 254 982 l 336 1063 z "},"Ŋ":{"ha":1101,"x_min":17,"x_max":1143,"o":"m 297 979 l 435 979 l 457 951 q 544 746 531 776 l 781 319 l 838 711 q 847 865 847 783 l 763 882 l 785 986 l 918 979 l 1143 986 l 1133 874 l 1043 865 q 1014 753 1021 799 l 904 0 q 651 -278 903 -53 l 585 -235 q 722 0 713 -26 l 376 625 l 324 268 q 311 107 311 176 l 397 99 l 376 -7 q 153 0 306 0 l 17 -7 l 25 90 l 117 107 q 146 226 136 160 l 217 711 q 228 865 228 790 l 143 882 l 164 986 q 297 979 235 979 z "},"ŋ":{"ha":821,"x_min":38,"x_max":749,"o":"m 547 468 q 517 529 547 529 q 365 375 449 529 q 256 65 282 221 q 246 0 254 57 l 85 -25 l 38 0 q 146 571 131 349 l 51 576 l 51 649 l 317 708 l 371 669 q 293 397 319 515 q 636 708 439 708 q 719 676 689 708 q 749 591 749 643 q 731 431 749 539 q 682 174 713 322 q 647 -6 651 25 q 623 -64 642 -37 q 565 -132 604 -90 q 503 -197 526 -174 q 428 -272 481 -221 q 372 -326 376 -322 l 307 -279 q 397 -98 351 -199 q 444 19 442 3 q 547 468 547 368 z "},"Ō":{"ha":1038,"x_min":49,"x_max":1032,"o":"m 1032 572 q 874 140 1032 307 q 469 -26 717 -26 q 162 91 275 -26 q 49 406 49 208 q 206 838 49 671 q 611 1006 364 1006 q 919 888 806 1006 q 1032 572 1032 771 m 294 376 q 485 108 294 108 q 712 239 639 108 q 785 601 785 369 q 596 871 785 871 q 367 740 440 871 q 294 376 294 608 m 868 1071 l 415 1071 l 431 1172 l 893 1172 l 868 1071 z "},"ō":{"ha":675,"x_min":21,"x_max":674,"o":"m 424 708 q 593 643 535 708 q 651 451 651 578 q 533 115 651 254 q 249 -25 415 -25 q 79 41 138 -25 q 21 232 21 107 q 139 569 21 429 q 424 708 257 708 m 379 579 q 264 490 304 579 q 224 238 224 401 q 242 140 224 175 q 294 104 261 104 q 408 193 368 104 q 449 446 449 282 q 430 544 449 508 q 379 579 411 579 m 649 828 l 196 828 l 211 929 l 674 929 l 649 828 z "},"Ŏ":{"ha":1038,"x_min":49,"x_max":1032,"o":"m 1032 572 q 874 140 1032 307 q 469 -26 717 -26 q 162 91 275 -26 q 49 406 49 208 q 206 838 49 671 q 611 1006 364 1006 q 919 888 806 1006 q 1032 572 1032 771 m 294 376 q 485 108 294 108 q 712 239 639 108 q 785 601 785 369 q 596 871 785 871 q 367 740 440 871 q 294 376 294 608 m 749 1102 q 717 1074 749 1102 q 589 1046 685 1046 q 444 1103 493 1046 q 408 1217 408 1146 q 411 1261 408 1238 l 500 1261 q 499 1242 499 1251 q 525 1178 499 1204 q 603 1151 551 1151 q 693 1181 656 1151 q 738 1261 731 1210 l 826 1261 q 749 1102 813 1158 z "},"ŏ":{"ha":675,"x_min":21,"x_max":651,"o":"m 424 708 q 593 643 535 708 q 651 451 651 578 q 533 115 651 254 q 249 -25 415 -25 q 79 41 138 -25 q 21 232 21 107 q 139 569 21 429 q 424 708 257 708 m 379 579 q 264 490 304 579 q 224 238 224 401 q 242 140 224 175 q 294 104 261 104 q 408 193 368 104 q 449 446 449 282 q 430 544 449 508 q 379 579 411 579 m 564 851 q 532 823 564 851 q 404 794 500 794 q 261 850 308 794 q 224 963 224 893 q 228 1010 224 985 l 317 1010 q 315 990 315 1000 q 342 926 315 953 q 420 900 368 900 q 510 929 472 900 q 554 1010 547 958 l 643 1010 q 564 851 628 907 z "},"Ő":{"ha":1038,"x_min":49,"x_max":1032,"o":"m 1032 572 q 874 140 1032 307 q 469 -26 717 -26 q 162 91 275 -26 q 49 406 49 208 q 206 838 49 671 q 611 1006 364 1006 q 919 888 806 1006 q 1032 572 1032 771 m 294 376 q 485 108 294 108 q 712 239 639 108 q 785 601 785 369 q 596 871 785 871 q 367 740 440 871 q 294 376 294 608 m 642 1275 l 690 1165 q 478 1075 503 1083 l 378 1019 l 325 1107 l 642 1275 m 946 1268 l 993 1151 q 775 1072 801 1081 l 676 1019 l 628 1106 l 946 1268 z "},"ő":{"ha":675,"x_min":21,"x_max":768,"o":"m 424 708 q 593 643 535 708 q 651 451 651 578 q 533 115 651 254 q 249 -25 415 -25 q 79 41 138 -25 q 21 232 21 107 q 139 569 21 429 q 424 708 257 708 m 379 579 q 264 490 304 579 q 224 238 224 401 q 242 140 224 175 q 294 104 261 104 q 408 193 368 104 q 449 446 449 282 q 430 544 449 508 q 379 579 411 579 m 704 1058 l 768 951 q 564 853 588 865 l 474 785 l 410 865 l 704 1058 m 453 1058 l 508 967 q 313 853 338 869 l 222 785 l 160 865 l 453 1058 z "},"Œ":{"ha":1399,"x_min":49,"x_max":1403,"o":"m 1100 0 l 721 0 l 624 -4 q 461 -26 549 -26 q 158 90 268 -26 q 49 406 49 207 q 207 838 49 671 q 613 1006 365 1006 q 765 983 700 1006 q 864 979 853 979 l 1225 979 l 1379 993 l 1403 968 l 1381 751 l 1282 744 q 1283 793 1283 772 q 1279 834 1283 814 q 1272 860 1275 854 q 1168 865 1222 865 l 1019 865 q 997 753 1001 782 l 968 554 q 1003 553 982 553 l 1079 553 q 1139 565 1107 553 l 1165 654 l 1247 647 q 1229 536 1233 564 l 1208 360 l 1121 351 l 1121 435 q 1036 443 1064 443 l 994 443 q 951 442 963 443 l 926 268 q 910 121 918 207 l 1078 121 q 1183 132 1128 121 q 1244 271 1225 194 l 1339 264 l 1282 19 l 1253 -6 q 1100 0 1128 0 m 592 871 q 361 740 435 871 q 288 378 288 610 q 481 108 288 108 q 628 148 574 108 q 732 272 682 188 l 800 744 q 755 815 772 793 q 697 853 738 836 q 592 871 656 871 z "},"œ":{"ha":1011,"x_min":21,"x_max":1010,"o":"m 786 699 q 1010 575 1010 699 q 908 383 1010 465 q 629 271 807 301 q 626 210 626 250 q 701 108 626 108 q 799 142 743 108 q 899 219 856 176 l 961 169 q 806 30 900 85 q 615 -25 711 -25 q 472 49 519 -25 q 254 -25 374 -25 q 21 239 21 -25 q 137 565 21 421 q 422 708 253 708 q 625 610 569 708 q 786 699 714 699 m 390 581 q 312 547 346 581 q 258 461 278 514 q 222 229 222 356 q 290 103 222 103 q 369 136 335 103 q 422 222 403 169 q 458 454 458 328 q 390 581 458 581 m 760 575 q 692 512 725 575 q 642 357 660 449 q 781 431 729 379 q 833 535 833 482 q 760 575 833 575 z "},"Ŕ":{"ha":914,"x_min":17,"x_max":882,"o":"m 310 979 l 597 993 q 805 926 728 993 q 882 749 882 858 q 824 560 882 640 q 671 435 767 481 q 757 228 706 338 q 815 104 808 119 l 881 99 l 860 -7 q 596 0 753 0 q 551 161 564 128 l 469 385 l 451 385 q 389 389 425 385 l 371 268 q 358 107 358 190 l 447 99 l 424 -7 q 156 0 313 0 l 17 -7 l 24 90 l 118 107 q 147 226 144 193 l 222 711 q 233 865 233 789 l 144 882 l 167 986 q 310 979 240 979 m 500 879 q 471 878 483 879 l 443 753 l 406 501 l 439 501 q 658 736 658 501 q 500 879 658 879 m 693 1247 l 742 1131 q 522 1067 549 1075 l 424 1014 l 374 1103 l 693 1247 z "},"ŕ":{"ha":590,"x_min":38,"x_max":633,"o":"m 560 708 q 594 701 569 708 l 629 647 l 569 385 l 493 389 l 492 518 q 369 388 436 493 q 268 161 303 282 l 246 0 l 85 -25 l 38 0 q 146 571 129 346 l 51 576 l 51 649 l 317 708 l 371 669 q 278 392 301 504 q 419 617 338 525 q 560 708 501 708 m 569 1049 l 633 943 q 444 853 468 865 l 354 785 l 290 865 l 569 1049 z "},"Ŗ":{"ha":914,"x_min":17,"x_max":882,"o":"m 310 979 l 597 993 q 805 926 728 993 q 882 749 882 858 q 824 560 882 640 q 671 435 767 481 q 757 228 706 338 q 815 104 808 119 l 881 99 l 860 -7 q 596 0 753 0 q 551 161 564 128 l 469 385 l 451 385 q 389 389 425 385 l 371 268 q 358 107 358 190 l 447 99 l 424 -7 q 156 0 313 0 l 17 -7 l 24 90 l 118 107 q 147 226 144 193 l 222 711 q 233 865 233 789 l 144 882 l 167 986 q 310 979 240 979 m 500 879 q 471 878 483 879 l 443 753 l 406 501 l 439 501 q 658 736 658 501 q 500 879 658 879 m 440 -250 q 396 -185 396 -232 q 427 -109 396 -137 q 495 -81 458 -81 q 552 -103 532 -81 q 572 -165 572 -125 q 544 -258 572 -204 q 489 -347 517 -312 l 460 -381 l 400 -364 q 440 -250 435 -287 z "},"ŗ":{"ha":590,"x_min":15,"x_max":629,"o":"m 560 708 q 594 701 569 708 l 629 647 l 569 385 l 493 389 l 492 518 q 369 388 436 493 q 268 161 303 282 l 246 0 l 85 -25 l 38 0 q 146 571 129 346 l 51 576 l 51 649 l 317 708 l 371 669 q 278 392 301 504 q 419 617 338 525 q 560 708 501 708 m 60 -250 q 15 -185 15 -232 q 47 -109 15 -137 q 115 -81 78 -81 q 172 -103 151 -81 q 192 -165 192 -125 q 164 -258 192 -204 q 108 -347 136 -312 l 79 -381 l 19 -364 q 60 -250 54 -287 z "},"Ř":{"ha":914,"x_min":17,"x_max":882,"o":"m 310 979 l 597 993 q 805 926 728 993 q 882 749 882 858 q 824 560 882 640 q 671 435 767 481 q 757 228 706 338 q 815 104 808 119 l 881 99 l 860 -7 q 596 0 753 0 q 551 161 564 128 l 469 385 l 451 385 q 389 389 425 385 l 371 268 q 358 107 358 190 l 447 99 l 424 -7 q 156 0 313 0 l 17 -7 l 24 90 l 118 107 q 147 226 144 193 l 222 711 q 233 865 233 789 l 144 882 l 167 986 q 310 979 240 979 m 500 879 q 471 878 483 879 l 443 753 l 406 501 l 439 501 q 658 736 658 501 q 500 879 658 879 m 756 1276 l 808 1196 l 514 1011 l 275 1196 l 349 1276 l 429 1208 l 535 1151 l 656 1208 l 756 1276 z "},"ř":{"ha":590,"x_min":38,"x_max":696,"o":"m 560 708 q 594 701 569 708 l 629 647 l 569 385 l 493 389 l 492 518 q 369 388 436 493 q 268 161 303 282 l 246 0 l 85 -25 l 38 0 q 146 571 129 346 l 51 576 l 51 649 l 317 708 l 371 669 q 278 392 301 504 q 419 617 338 525 q 560 708 501 708 m 244 1063 l 324 989 q 421 924 350 975 q 536 989 507 975 l 638 1063 l 696 982 l 400 783 l 163 982 l 244 1063 z "},"Ś":{"ha":774,"x_min":24,"x_max":765,"o":"m 196 307 q 182 203 182 213 q 193 153 182 194 q 327 114 257 114 q 442 149 397 114 q 488 239 488 183 q 449 332 488 294 q 355 398 410 369 q 245 459 300 426 q 151 549 190 492 q 113 683 113 607 q 214 913 113 826 q 463 1000 315 1000 q 765 950 611 1000 l 708 682 l 594 689 q 610 794 610 789 q 600 839 610 800 q 492 871 553 871 q 390 837 432 871 q 349 751 349 803 q 388 665 349 700 q 481 602 426 631 q 592 541 536 574 q 686 453 647 508 q 725 322 725 397 q 612 73 725 167 q 333 -21 499 -21 q 175 -4 253 -21 q 61 29 97 13 l 24 46 l 83 314 l 196 307 m 638 1247 l 686 1131 q 467 1067 493 1075 l 368 1014 l 318 1103 l 638 1247 z "},"ś":{"ha":567,"x_min":-4,"x_max":567,"o":"m 349 708 q 497 692 414 708 l 525 686 l 556 632 l 501 453 l 428 457 l 425 575 q 329 608 383 608 q 287 592 303 608 q 271 548 271 575 q 309 481 271 521 q 392 406 347 442 q 476 318 438 371 q 514 213 514 265 q 435 42 514 108 q 239 -25 356 -25 q 10 43 122 -25 l -4 106 l 63 271 l 129 253 l 126 124 q 231 82 174 82 q 304 158 304 82 q 224 267 304 200 q 157 326 190 294 q 76 501 76 404 q 149 653 76 597 q 349 708 221 708 m 503 1049 l 567 943 q 378 853 401 865 l 288 785 l 224 865 l 503 1049 z "},"Ŝ":{"ha":774,"x_min":24,"x_max":765,"o":"m 196 307 q 182 203 182 213 q 193 153 182 194 q 327 114 257 114 q 442 149 397 114 q 488 239 488 183 q 449 332 488 294 q 355 398 410 369 q 245 459 300 426 q 151 549 190 492 q 113 683 113 607 q 214 913 113 826 q 463 1000 315 1000 q 765 950 611 1000 l 708 682 l 594 689 q 610 794 610 789 q 600 839 610 800 q 492 871 553 871 q 390 837 432 871 q 349 751 349 803 q 388 665 349 700 q 481 602 426 631 q 592 541 536 574 q 686 453 647 508 q 725 322 725 397 q 612 73 725 167 q 333 -21 499 -21 q 175 -4 253 -21 q 61 29 97 13 l 24 46 l 83 314 l 196 307 m 524 1296 l 761 1111 l 685 1031 l 606 1097 l 501 1156 l 379 1097 l 278 1031 l 228 1111 l 524 1296 z "},"ŝ":{"ha":567,"x_min":-4,"x_max":642,"o":"m 349 708 q 497 692 414 708 l 525 686 l 556 632 l 501 453 l 428 457 l 425 575 q 329 608 383 608 q 287 592 303 608 q 271 548 271 575 q 309 481 271 521 q 392 406 347 442 q 476 318 438 371 q 514 213 514 265 q 435 42 514 108 q 239 -25 356 -25 q 10 43 122 -25 l -4 106 l 63 271 l 129 253 l 126 124 q 231 82 174 82 q 304 158 304 82 q 224 267 304 200 q 157 326 190 294 q 76 501 76 404 q 149 653 76 597 q 349 708 221 708 m 404 1063 l 642 864 l 565 783 l 486 857 l 382 919 q 260 857 288 869 l 158 783 l 108 864 l 404 1063 z "},"Ş":{"ha":774,"x_min":24,"x_max":765,"o":"m 196 307 q 182 203 182 213 q 193 153 182 194 q 327 114 257 114 q 442 149 397 114 q 488 239 488 183 q 449 332 488 294 q 355 398 410 369 q 245 459 300 426 q 151 549 190 492 q 113 683 113 607 q 214 913 113 826 q 463 1000 315 1000 q 765 950 611 1000 l 708 682 l 594 689 q 610 794 610 789 q 600 839 610 800 q 492 871 553 871 q 390 837 432 871 q 349 751 349 803 q 388 665 349 700 q 481 602 426 631 q 592 541 536 574 q 686 453 647 508 q 725 322 725 397 q 621 82 725 175 q 361 -19 517 -11 l 340 -82 q 428 -111 394 -83 q 461 -186 461 -139 q 412 -291 461 -256 q 287 -326 363 -326 q 161 -301 211 -326 l 196 -233 q 268 -249 242 -249 q 339 -196 339 -249 q 288 -160 339 -160 l 260 -161 l 247 -142 l 276 -18 q 147 3 210 -12 q 53 33 83 19 l 24 46 l 83 314 l 196 307 z "},"ş":{"ha":567,"x_min":-4,"x_max":556,"o":"m 349 708 q 497 692 414 708 l 525 686 l 556 632 l 501 453 l 428 457 l 425 575 q 329 608 383 608 q 287 592 303 608 q 271 548 271 575 q 309 481 271 521 q 392 406 347 442 q 476 318 438 371 q 514 213 514 265 q 442 48 514 113 q 253 -24 369 -17 l 233 -82 q 321 -111 288 -83 q 354 -186 354 -139 q 305 -291 354 -256 q 180 -326 256 -326 q 54 -301 104 -326 l 89 -233 q 161 -249 135 -249 q 232 -196 232 -249 q 181 -160 232 -160 l 153 -161 l 140 -142 l 169 -19 q 10 43 89 -7 l -4 106 l 63 271 l 129 253 l 126 124 q 231 82 174 82 q 304 158 304 82 q 224 267 304 200 q 157 326 190 294 q 76 501 76 404 q 149 653 76 597 q 349 708 221 708 z "},"Š":{"ha":774,"x_min":24,"x_max":765,"o":"m 196 307 q 182 203 182 213 q 193 153 182 194 q 327 114 257 114 q 442 149 397 114 q 488 239 488 183 q 449 332 488 294 q 355 398 410 369 q 245 459 300 426 q 151 549 190 492 q 113 683 113 607 q 214 913 113 826 q 463 1000 315 1000 q 765 950 611 1000 l 708 682 l 594 689 q 610 794 610 789 q 600 839 610 800 q 492 871 553 871 q 390 837 432 871 q 349 751 349 803 q 388 665 349 700 q 481 602 426 631 q 592 541 536 574 q 686 453 647 508 q 725 322 725 397 q 612 73 725 167 q 333 -21 499 -21 q 175 -4 253 -21 q 61 29 97 13 l 24 46 l 83 314 l 196 307 m 701 1276 l 754 1196 l 460 1011 l 221 1196 l 294 1276 l 375 1208 l 481 1151 l 601 1208 l 701 1276 z "},"š":{"ha":567,"x_min":-4,"x_max":644,"o":"m 349 708 q 497 692 414 708 l 525 686 l 556 632 l 501 453 l 428 457 l 425 575 q 329 608 383 608 q 287 592 303 608 q 271 548 271 575 q 309 481 271 521 q 392 406 347 442 q 476 318 438 371 q 514 213 514 265 q 435 42 514 108 q 239 -25 356 -25 q 10 43 122 -25 l -4 106 l 63 271 l 129 253 l 126 124 q 231 82 174 82 q 304 158 304 82 q 224 267 304 200 q 157 326 190 294 q 76 501 76 404 q 149 653 76 597 q 349 708 221 708 m 193 1063 l 272 989 q 369 924 299 975 q 485 989 456 975 l 586 1063 l 644 982 l 349 783 l 111 982 l 193 1063 z "},"Ţ":{"ha":846,"x_min":71,"x_max":915,"o":"m 793 731 q 796 794 796 774 q 789 858 796 825 q 688 865 731 865 l 619 865 q 592 753 599 799 l 521 268 q 510 107 510 189 l 593 99 l 571 -7 q 418 0 510 -3 l 390 -82 q 478 -111 444 -83 q 511 -186 511 -139 q 462 -291 511 -256 q 337 -326 413 -326 q 211 -301 261 -326 l 246 -233 q 318 -249 292 -249 q 389 -196 389 -249 q 338 -160 389 -160 l 310 -161 l 297 -142 l 331 0 l 307 0 l 172 -7 l 179 90 l 269 107 q 300 226 294 192 l 369 711 q 381 865 381 772 l 318 865 q 210 858 279 865 q 188 810 194 829 q 168 731 181 790 l 71 738 l 114 968 l 143 993 q 294 979 268 979 l 738 979 l 893 993 l 915 968 l 892 738 l 793 731 z "},"ţ":{"ha":458,"x_min":43,"x_max":490,"o":"m 344 -186 q 295 -291 344 -256 q 170 -326 246 -326 q 44 -301 94 -326 l 79 -233 q 151 -249 125 -249 q 222 -196 222 -249 q 171 -160 222 -160 l 143 -161 l 131 -142 l 161 -12 l 94 -25 l 47 0 q 150 575 117 276 l 43 575 l 54 665 q 100 683 67 671 q 194 721 176 708 q 272 822 221 738 l 289 850 l 381 821 l 356 686 l 490 686 l 463 575 l 336 575 q 271 117 297 344 l 408 107 l 403 33 l 254 4 l 224 -82 q 311 -111 278 -83 q 344 -186 344 -139 z "},"Ť":{"ha":846,"x_min":71,"x_max":915,"o":"m 793 731 q 796 794 796 774 q 789 858 796 825 q 688 865 731 865 l 619 865 q 592 753 599 799 l 521 268 q 510 107 510 189 l 593 99 l 571 -7 q 307 0 461 0 l 172 -7 l 179 90 l 269 107 q 300 226 294 192 l 369 711 q 381 865 381 772 l 318 865 q 210 858 279 865 q 188 810 194 829 q 168 731 181 790 l 71 738 l 114 968 l 143 993 q 294 979 268 979 l 738 979 l 893 993 l 915 968 l 892 738 l 793 731 m 760 1276 l 813 1196 l 518 1011 l 279 1196 l 353 1276 l 433 1208 l 539 1151 l 660 1208 l 760 1276 z "},"ť":{"ha":458,"x_min":43,"x_max":581,"o":"m 463 575 l 336 575 q 271 117 297 344 l 408 107 l 403 33 l 94 -25 l 47 0 q 150 575 117 276 l 43 575 l 54 665 q 100 683 67 671 q 194 721 176 708 q 272 822 221 738 l 289 850 l 381 821 l 356 686 l 490 686 l 463 575 m 447 1050 l 581 1050 l 524 781 l 421 786 l 436 889 l 447 1050 z "},"Ŧ":{"ha":846,"x_min":71,"x_max":915,"o":"m 793 731 q 796 794 796 774 q 789 858 796 825 q 688 865 731 865 l 619 865 q 592 753 599 799 l 567 585 l 768 585 l 756 496 l 554 496 l 521 268 q 510 107 510 189 l 593 99 l 571 -7 q 307 0 461 0 l 172 -7 l 179 90 l 269 107 q 300 226 294 192 l 339 496 l 165 496 l 178 585 l 351 585 l 369 711 q 381 865 381 772 l 318 865 q 210 858 279 865 q 188 810 194 829 q 168 731 181 790 l 71 738 l 114 968 l 143 993 q 294 979 268 979 l 738 979 l 893 993 l 915 968 l 892 738 l 793 731 z "},"ŧ":{"ha":482,"x_min":17,"x_max":490,"o":"m 463 575 l 336 575 l 317 460 l 461 460 l 449 371 l 304 371 q 271 117 288 251 l 408 107 l 403 33 l 94 -25 l 47 0 q 122 371 94 193 l 17 371 l 29 460 l 136 460 q 150 575 146 549 l 43 575 l 54 665 q 100 683 67 671 q 194 721 176 708 q 272 822 221 738 l 289 850 l 381 821 l 356 686 l 490 686 l 463 575 z "},"Ũ":{"ha":1054,"x_min":114,"x_max":1107,"o":"m 781 85 q 723 32 781 85 q 474 -21 664 -21 q 197 85 283 -21 q 133 290 133 165 q 139 372 133 329 l 188 711 q 200 819 200 786 q 199 865 200 853 l 114 882 l 136 986 q 268 979 203 979 l 543 986 l 533 874 l 444 865 q 417 753 422 803 l 358 361 q 356 315 356 338 q 386 200 356 249 q 525 138 429 138 q 672 194 621 138 q 739 361 724 251 l 790 711 q 801 865 792 722 l 717 882 l 739 986 q 872 979 806 979 l 1107 986 l 1097 874 l 1008 865 q 981 753 989 813 l 925 372 q 781 85 899 190 m 877 1149 q 869 1137 877 1149 q 822 1086 861 1125 q 754 1047 783 1047 q 643 1074 725 1047 q 538 1100 561 1100 q 463 1056 500 1100 l 450 1042 l 390 1081 q 467 1182 424 1138 q 540 1226 511 1226 q 651 1200 568 1226 q 758 1174 735 1174 q 829 1214 796 1174 l 840 1226 l 903 1188 q 877 1149 893 1172 z "},"ũ":{"ha":799,"x_min":31,"x_max":760,"o":"m 371 81 q 273 3 328 32 q 162 -25 218 -25 q 76 7 106 -25 q 47 95 47 39 q 84 317 47 151 q 126 571 121 483 l 31 576 l 31 649 l 296 708 l 351 669 q 249 215 249 314 q 278 154 249 154 q 394 249 331 154 q 540 615 494 400 q 551 683 549 657 l 711 708 l 760 683 q 643 117 657 296 l 751 107 l 746 33 l 467 -25 l 418 0 q 507 297 492 194 q 371 81 453 175 m 624 870 q 603 848 624 870 q 554 825 582 825 q 448 851 526 825 q 347 878 369 878 q 278 833 313 878 l 265 819 l 208 858 q 283 960 243 917 q 350 1004 322 1004 q 457 978 378 1004 q 558 951 536 951 q 624 992 594 951 l 633 1004 l 693 965 q 624 870 665 915 z "},"Ū":{"ha":1054,"x_min":114,"x_max":1107,"o":"m 781 85 q 723 32 781 85 q 474 -21 664 -21 q 197 85 283 -21 q 133 290 133 165 q 139 372 133 329 l 188 711 q 200 819 200 786 q 199 865 200 853 l 114 882 l 136 986 q 268 979 203 979 l 543 986 l 533 874 l 444 865 q 417 753 422 803 l 358 361 q 356 315 356 338 q 386 200 356 249 q 525 138 429 138 q 672 194 621 138 q 739 361 724 251 l 790 711 q 801 865 792 722 l 717 882 l 739 986 q 872 979 806 979 l 1107 986 l 1097 874 l 1008 865 q 981 753 989 813 l 925 372 q 781 85 899 190 m 878 1071 l 425 1071 l 440 1172 l 903 1172 l 878 1071 z "},"ū":{"ha":799,"x_min":31,"x_max":760,"o":"m 371 81 q 273 3 328 32 q 162 -25 218 -25 q 76 7 106 -25 q 47 95 47 39 q 84 317 47 151 q 126 571 121 483 l 31 576 l 31 649 l 296 708 l 351 669 q 249 215 249 314 q 278 154 249 154 q 394 249 331 154 q 540 615 494 400 q 551 683 549 657 l 711 708 l 760 683 q 643 117 657 296 l 751 107 l 746 33 l 467 -25 l 418 0 q 507 297 492 194 q 371 81 453 175 m 701 828 l 249 828 l 264 929 l 726 929 l 701 828 z "},"Ŭ":{"ha":1054,"x_min":114,"x_max":1107,"o":"m 781 85 q 723 32 781 85 q 474 -21 664 -21 q 197 85 283 -21 q 133 290 133 165 q 139 372 133 329 l 188 711 q 200 819 200 786 q 199 865 200 853 l 114 882 l 136 986 q 268 979 203 979 l 543 986 l 533 874 l 444 865 q 417 753 422 803 l 358 361 q 356 315 356 338 q 386 200 356 249 q 525 138 429 138 q 672 194 621 138 q 739 361 724 251 l 790 711 q 801 865 792 722 l 717 882 l 739 986 q 872 979 806 979 l 1107 986 l 1097 874 l 1008 865 q 981 753 989 813 l 925 372 q 781 85 899 190 m 786 1088 q 754 1060 786 1088 q 626 1032 722 1032 q 483 1089 531 1032 q 446 1203 446 1132 q 449 1247 446 1224 l 538 1247 q 536 1228 536 1238 q 563 1164 536 1190 q 641 1138 589 1138 q 731 1167 693 1138 q 775 1247 768 1196 l 864 1247 q 786 1088 850 1144 z "},"ŭ":{"ha":799,"x_min":31,"x_max":760,"o":"m 371 81 q 273 3 328 32 q 162 -25 218 -25 q 76 7 106 -25 q 47 95 47 39 q 84 317 47 151 q 126 571 121 483 l 31 576 l 31 649 l 296 708 l 351 669 q 249 215 249 314 q 278 154 249 154 q 394 249 331 154 q 540 615 494 400 q 551 683 549 657 l 711 708 l 760 683 q 643 117 657 296 l 751 107 l 746 33 l 467 -25 l 418 0 q 507 297 492 194 q 371 81 453 175 m 617 851 q 585 823 617 851 q 457 794 553 794 q 314 850 361 794 q 276 963 276 893 q 281 1010 276 985 l 369 1010 q 368 990 368 1000 q 394 926 368 953 q 473 900 421 900 q 563 929 525 900 q 607 1010 600 958 l 696 1010 q 617 851 681 907 z "},"Ů":{"ha":1054,"x_min":114,"x_max":1107,"o":"m 781 85 q 723 32 781 85 q 474 -21 664 -21 q 197 85 283 -21 q 133 290 133 165 q 139 372 133 329 l 188 711 q 200 819 200 786 q 199 865 200 853 l 114 882 l 136 986 q 268 979 203 979 l 543 986 l 533 874 l 444 865 q 417 753 422 803 l 358 361 q 356 315 356 338 q 386 200 356 249 q 525 138 429 138 q 672 194 621 138 q 739 361 724 251 l 790 711 q 801 865 792 722 l 717 882 l 739 986 q 872 979 806 979 l 1107 986 l 1097 874 l 1008 865 q 981 753 989 813 l 925 372 q 781 85 899 190 m 517 1140 q 517 1170 517 1140 q 558 1243 517 1200 q 664 1286 599 1286 q 789 1175 789 1286 q 748 1063 789 1106 q 642 1021 707 1021 q 547 1051 576 1021 q 517 1140 517 1081 m 661 1206 q 622 1187 635 1206 q 610 1143 610 1168 q 646 1101 610 1101 q 684 1120 671 1101 q 697 1163 697 1139 q 661 1206 697 1206 z "},"ů":{"ha":799,"x_min":31,"x_max":760,"o":"m 371 81 q 273 3 328 32 q 162 -25 218 -25 q 76 7 106 -25 q 47 95 47 39 q 84 317 47 151 q 126 571 121 483 l 31 576 l 31 649 l 296 708 l 351 669 q 249 215 249 314 q 278 154 249 154 q 394 249 331 154 q 540 615 494 400 q 551 683 549 657 l 711 708 l 760 683 q 643 117 657 296 l 751 107 l 746 33 l 467 -25 l 418 0 q 507 297 492 194 q 371 81 453 175 m 354 911 q 354 941 354 911 q 395 1014 354 971 q 501 1057 436 1057 q 626 946 626 1057 q 585 834 626 876 q 479 792 544 792 q 384 822 414 792 q 354 911 354 851 m 499 976 q 460 958 472 976 q 447 914 447 939 q 483 872 447 872 q 522 891 508 872 q 535 933 535 910 q 499 976 535 976 z "},"Ű":{"ha":1054,"x_min":114,"x_max":1107,"o":"m 781 85 q 723 32 781 85 q 474 -21 664 -21 q 197 85 283 -21 q 133 290 133 165 q 139 372 133 329 l 188 711 q 200 819 200 786 q 199 865 200 853 l 114 882 l 136 986 q 268 979 203 979 l 543 986 l 533 874 l 444 865 q 417 753 422 803 l 358 361 q 356 315 356 338 q 386 200 356 249 q 525 138 429 138 q 672 194 621 138 q 739 361 724 251 l 790 711 q 801 865 792 722 l 717 882 l 739 986 q 872 979 806 979 l 1107 986 l 1097 874 l 1008 865 q 981 753 989 813 l 925 372 q 781 85 899 190 m 679 1275 l 728 1165 q 515 1075 540 1083 l 415 1019 l 363 1107 l 679 1275 m 983 1268 l 1031 1151 q 813 1072 839 1081 l 714 1019 l 665 1106 l 983 1268 z "},"ű":{"ha":799,"x_min":31,"x_max":833,"o":"m 371 81 q 273 3 328 32 q 162 -25 218 -25 q 76 7 106 -25 q 47 95 47 39 q 84 317 47 151 q 126 571 121 483 l 31 576 l 31 649 l 296 708 l 351 669 q 249 215 249 314 q 278 154 249 154 q 394 249 331 154 q 540 615 494 400 q 551 683 549 657 l 711 708 l 760 683 q 643 117 657 296 l 751 107 l 746 33 l 467 -25 l 418 0 q 507 297 492 194 q 371 81 453 175 m 769 1058 l 833 951 q 629 853 653 865 l 539 785 l 475 865 l 769 1058 m 518 1058 l 574 967 q 378 853 403 869 l 288 785 l 225 865 l 518 1058 z "},"Ų":{"ha":1054,"x_min":114,"x_max":1107,"o":"m 547 -15 q 478 -126 478 -67 q 529 -185 478 -185 q 576 -175 551 -185 l 592 -242 q 460 -274 521 -274 q 363 -247 399 -274 q 328 -168 328 -219 q 424 -18 328 -85 q 186 100 258 -4 q 132 289 132 176 q 139 372 132 329 l 188 711 q 200 819 200 786 q 199 865 200 853 l 114 882 l 136 986 q 268 979 203 979 l 543 986 l 533 874 l 444 865 q 417 753 422 803 l 358 361 q 356 315 356 338 q 386 200 356 249 q 525 138 429 138 q 672 194 621 138 q 739 361 724 251 l 790 711 q 801 865 792 722 l 717 882 l 739 986 q 872 979 806 979 l 1107 986 l 1097 874 l 1008 865 q 981 753 989 813 l 925 372 q 803 107 900 210 q 547 -15 706 4 z "},"ų":{"ha":799,"x_min":31,"x_max":760,"o":"m 508 -17 q 439 -126 439 -67 q 490 -185 439 -185 q 538 -175 513 -185 l 553 -242 q 421 -274 482 -274 q 324 -247 360 -274 q 289 -174 289 -219 q 311 -93 289 -128 q 357 -39 333 -58 q 419 4 381 -19 q 507 297 492 194 q 371 81 453 175 q 158 -25 278 -25 q 76 7 106 -25 q 47 95 47 39 q 84 317 47 151 q 126 571 121 483 l 31 576 l 31 649 l 296 708 l 351 669 q 249 215 249 314 q 278 154 249 154 q 394 249 331 154 q 540 615 494 400 q 551 683 549 657 l 711 708 l 760 683 q 643 117 657 296 l 751 107 l 746 33 l 508 -17 z "},"Ŵ":{"ha":1388,"x_min":82,"x_max":1468,"o":"m 1460 885 l 1393 875 q 1322 756 1349 811 l 981 0 l 821 0 l 733 588 l 474 0 l 313 0 l 179 801 l 161 876 l 82 889 l 103 986 q 225 979 175 979 l 513 986 l 504 885 l 415 872 q 408 800 408 851 l 453 288 l 724 938 l 882 938 l 960 288 l 1172 819 q 1181 872 1183 847 l 1099 889 l 1119 986 q 1268 979 1204 979 l 1468 986 l 1460 885 m 826 1254 l 1064 1069 l 988 989 l 908 1056 l 804 1114 l 682 1056 l 581 989 l 531 1069 l 826 1254 z "},"ŵ":{"ha":1088,"x_min":17,"x_max":1111,"o":"m 942 208 q 906 158 942 208 q 773 41 871 107 q 574 -25 675 -25 q 474 74 474 -25 q 476 149 474 85 q 165 -25 333 -25 q 49 74 49 -25 q 80 273 49 113 q 111 473 111 433 q 108 571 111 513 l 17 576 l 17 649 l 244 708 l 300 669 l 300 524 q 272 341 300 496 q 244 158 244 186 q 278 131 244 131 q 437 244 367 131 q 507 488 507 357 q 486 682 507 510 l 640 707 l 688 682 l 696 524 q 672 341 696 496 q 647 166 647 186 q 658 138 647 146 q 681 131 668 131 q 840 247 763 131 q 917 488 917 364 q 910 571 917 501 l 822 576 l 822 649 l 1057 708 l 1111 669 q 1059 433 1106 556 q 942 208 1013 310 m 668 1063 l 906 864 l 829 783 l 750 857 l 646 919 q 524 857 551 869 l 422 783 l 372 864 l 668 1063 z "},"Ŷ":{"ha":925,"x_min":71,"x_max":1050,"o":"m 1042 885 l 961 875 q 860 756 888 800 l 590 339 l 581 268 q 569 107 569 186 l 654 99 l 632 -7 q 367 0 522 0 l 233 -7 l 240 90 l 331 107 q 344 160 331 110 q 360 226 357 210 l 378 353 l 201 801 q 158 865 190 832 l 149 876 l 71 889 l 92 986 q 213 979 163 979 l 500 986 l 492 885 l 421 872 q 431 800 424 826 l 531 513 l 724 819 l 735 872 l 681 889 l 701 986 q 850 979 786 979 l 1050 986 l 1042 885 m 613 1296 l 850 1111 l 774 1031 l 694 1097 l 590 1156 l 468 1097 l 367 1031 l 317 1111 l 613 1296 z "},"ŷ":{"ha":749,"x_min":-7,"x_max":732,"o":"m -7 -289 l 53 -124 q 273 -176 168 -176 q 415 -142 378 -176 q 439 -7 439 -121 q 470 123 439 6 q 506 296 501 240 q 358 67 446 160 q 158 -25 271 -25 q 76 7 106 -25 q 47 95 47 39 q 84 317 47 151 q 126 571 121 483 l 31 576 l 31 649 l 296 708 l 351 669 q 249 215 249 314 q 278 154 249 154 q 416 283 344 154 q 531 571 488 413 l 435 576 l 435 649 l 678 708 l 732 669 q 619 21 679 479 q 563 -151 607 -79 q 457 -258 519 -222 q 201 -326 339 -326 q -7 -289 63 -326 m 478 1063 l 715 864 l 639 783 l 560 857 l 456 919 q 333 857 361 869 l 232 783 l 182 864 l 478 1063 z "},"Ÿ":{"ha":925,"x_min":71,"x_max":1050,"o":"m 1042 885 l 961 875 q 860 756 888 800 l 590 339 l 581 268 q 569 107 569 186 l 654 99 l 632 -7 q 367 0 522 0 l 233 -7 l 240 90 l 331 107 q 344 160 331 110 q 360 226 357 210 l 378 353 l 201 801 q 158 865 190 832 l 149 876 l 71 889 l 92 986 q 213 979 163 979 l 500 986 l 492 885 l 421 872 q 431 800 424 826 l 531 513 l 724 819 l 735 872 l 681 889 l 701 986 q 850 979 786 979 l 1050 986 l 1042 885 m 451 1244 q 529 1165 529 1244 q 501 1083 529 1115 q 429 1051 474 1051 q 365 1073 385 1051 q 344 1138 344 1094 q 373 1213 344 1181 q 451 1244 401 1244 m 771 1244 q 849 1165 849 1244 q 821 1083 849 1115 q 743 1051 793 1051 q 665 1131 665 1051 q 693 1213 665 1181 q 771 1244 721 1244 z "},"Ź":{"ha":829,"x_min":13,"x_max":835,"o":"m 358 856 q 247 849 317 856 l 225 810 q 190 704 201 750 l 93 711 l 136 968 l 167 993 q 319 979 293 979 l 835 979 l 833 868 l 660 644 l 406 294 l 299 124 l 506 124 q 619 135 564 124 q 685 282 669 217 l 776 275 l 722 19 l 690 -6 q 536 0 564 0 l 13 0 l 14 111 q 193 329 154 272 l 479 717 l 563 856 l 358 856 m 646 1247 l 694 1131 q 475 1067 501 1075 l 376 1014 l 326 1103 l 646 1247 z "},"ź":{"ha":631,"x_min":-8,"x_max":638,"o":"m 97 708 l 524 676 l 604 697 l 638 633 q 269 113 404 338 q 472 131 394 113 q 529 256 486 165 l 599 235 q 589 168 594 210 q 567 26 581 108 l 519 -18 l 117 0 l 46 -18 l -8 35 q 374 561 236 331 q 160 544 225 560 l 125 440 l 51 444 l 63 654 l 97 708 m 488 1049 l 551 943 q 363 853 386 865 l 272 785 l 208 865 l 488 1049 z "},"Ż":{"ha":829,"x_min":13,"x_max":835,"o":"m 358 856 q 247 849 317 856 l 225 810 q 190 704 201 750 l 93 711 l 136 968 l 167 993 q 319 979 293 979 l 835 979 l 833 868 l 660 644 l 406 294 l 299 124 l 506 124 q 619 135 564 124 q 685 282 669 217 l 776 275 l 722 19 l 690 -6 q 536 0 564 0 l 13 0 l 14 111 q 193 329 154 272 l 479 717 l 563 856 l 358 856 m 400 1135 q 400 1160 400 1135 q 433 1221 400 1185 q 517 1257 467 1257 q 592 1233 568 1257 q 617 1158 617 1208 q 583 1072 617 1108 q 499 1036 550 1036 q 424 1061 449 1036 q 400 1135 400 1086 z "},"ż":{"ha":631,"x_min":-8,"x_max":638,"o":"m 97 708 l 524 676 l 604 697 l 638 633 q 269 113 404 338 q 472 131 394 113 q 529 256 486 165 l 599 235 q 589 168 594 210 q 567 26 581 108 l 519 -18 l 117 0 l 46 -18 l -8 35 q 374 561 236 331 q 160 544 225 560 l 125 440 l 51 444 l 63 654 l 97 708 m 257 899 q 257 924 257 899 q 290 985 257 949 q 374 1021 324 1021 q 449 997 425 1021 q 474 922 474 972 q 440 836 474 872 q 356 800 407 800 q 281 825 306 800 q 257 899 257 850 z "},"Ž":{"ha":829,"x_min":13,"x_max":835,"o":"m 358 856 q 247 849 317 856 l 225 810 q 190 704 201 750 l 93 711 l 136 968 l 167 993 q 319 979 293 979 l 835 979 l 833 868 l 660 644 l 406 294 l 299 124 l 506 124 q 619 135 564 124 q 685 282 669 217 l 776 275 l 722 19 l 690 -6 q 536 0 564 0 l 13 0 l 14 111 q 193 329 154 272 l 479 717 l 563 856 l 358 856 m 722 1276 l 775 1196 l 481 1011 l 242 1196 l 315 1276 l 396 1208 l 501 1151 l 622 1208 l 722 1276 z "},"ž":{"ha":631,"x_min":-8,"x_max":638,"o":"m 97 708 l 524 676 l 604 697 l 638 633 q 269 113 404 338 q 472 131 394 113 q 529 256 486 165 l 599 235 q 589 168 594 210 q 567 26 581 108 l 519 -18 l 117 0 l 46 -18 l -8 35 q 374 561 236 331 q 160 544 225 560 l 125 440 l 51 444 l 63 654 l 97 708 m 178 1063 l 257 989 q 354 924 283 975 q 469 989 440 975 l 571 1063 l 629 982 l 333 783 l 96 982 l 178 1063 z "},"ƒ":{"ha":510,"x_min":-90,"x_max":683,"o":"m 482 1069 q 654 1056 567 1069 l 683 1050 l 628 818 l 525 822 l 535 885 l 539 946 q 489 957 514 957 q 419 915 440 957 q 382 778 399 874 l 365 686 l 532 686 l 504 582 l 346 582 l 236 -29 q 131 -205 217 -140 q -90 -269 44 -269 l -71 -161 q 9 -121 -12 -161 q 49 14 31 -81 l 153 582 l 75 582 l 83 669 q 115 679 96 674 q 174 697 158 692 l 199 829 q 293 1005 218 940 q 482 1069 368 1069 z "},"Ǻ":{"ha":899,"x_min":-43,"x_max":864,"o":"m 864 90 l 843 -7 q 732 0 781 0 l 450 -7 l 458 94 l 539 107 l 544 179 l 536 249 l 285 249 l 250 160 l 235 107 l 310 90 l 289 -7 q 144 0 210 0 l -43 -7 l -36 94 l 25 104 l 99 224 l 461 979 l 619 994 l 772 178 l 790 103 l 864 90 m 482 692 l 339 363 l 518 365 l 482 692 m 431 1129 q 431 1155 431 1129 q 465 1217 431 1181 q 556 1253 500 1253 q 663 1158 663 1253 q 628 1063 663 1099 q 538 1026 593 1026 q 456 1052 482 1026 q 431 1129 431 1078 m 554 1185 q 521 1168 532 1185 q 510 1131 510 1151 q 540 1096 510 1096 q 573 1111 561 1096 q 585 1147 585 1126 q 554 1185 585 1185 m 644 1443 l 688 1339 q 490 1281 514 1289 l 401 1233 l 357 1314 l 644 1443 z "},"ǻ":{"ha":768,"x_min":26,"x_max":721,"o":"m 138 -25 q 54 38 82 -25 q 26 204 26 100 q 73 429 26 308 q 195 629 119 550 q 349 708 271 708 q 453 695 385 708 q 533 681 521 682 l 646 708 l 701 669 q 613 117 624 367 l 721 107 l 715 33 l 436 -25 l 388 0 q 478 299 461 190 q 322 65 411 154 q 138 -25 233 -25 m 258 154 q 377 269 307 154 q 471 525 447 383 q 325 561 379 561 q 254 460 288 561 q 221 239 221 358 q 258 154 221 154 m 569 1174 l 613 1069 q 415 1011 439 1019 l 326 964 l 282 1044 l 569 1174 m 331 856 q 331 881 331 856 q 365 943 331 907 q 456 979 400 979 q 563 885 563 979 q 528 789 563 825 q 438 753 493 753 q 356 778 382 753 q 331 856 331 804 m 454 911 q 421 894 432 911 q 410 857 410 878 q 440 822 410 822 q 473 838 461 822 q 485 874 485 853 q 454 911 485 911 z "},"Ǽ":{"ha":1229,"x_min":-43,"x_max":1278,"o":"m 815 858 l 808 753 l 810 556 q 844 553 821 553 l 953 553 q 1014 565 982 553 l 1040 654 l 1122 647 q 1104 536 1108 564 l 1083 360 l 996 351 l 996 435 q 911 443 938 443 l 836 443 q 810 440 818 443 l 811 268 l 817 121 l 953 121 q 1058 132 1000 121 q 1119 271 1103 207 l 1214 264 l 1157 19 l 1128 -6 q 975 0 1003 0 l 610 0 l 500 -7 l 507 90 l 600 107 q 608 183 610 163 l 608 256 l 317 256 l 250 160 q 238 138 249 158 q 219 107 226 117 l 311 99 l 289 -7 q 93 0 204 0 l -43 -7 l -36 90 l 35 103 q 133 224 100 178 l 582 865 l 499 882 l 521 986 q 654 979 590 979 l 1100 979 l 1254 993 l 1278 968 l 1253 744 l 1156 738 q 1158 786 1158 765 q 1147 851 1158 817 q 1040 858 1085 858 l 815 858 m 394 369 l 608 372 l 607 665 l 606 676 l 394 369 m 1011 1247 l 1060 1131 q 840 1067 867 1075 l 742 1014 l 692 1103 l 1011 1247 z "},"ǽ":{"ha":969,"x_min":26,"x_max":971,"o":"m 747 699 q 971 575 971 699 q 869 383 971 465 q 590 271 768 301 q 588 210 588 250 q 663 108 588 108 q 760 142 704 108 q 860 219 817 176 l 922 169 q 767 30 861 85 q 590 -25 672 -25 q 458 20 508 -25 q 400 157 407 65 q 139 -25 275 -25 q 55 38 83 -25 q 26 203 26 100 q 73 428 26 307 q 195 628 119 549 q 349 708 271 708 q 642 658 381 708 q 747 699 700 699 m 257 151 q 378 268 307 151 q 471 526 449 385 q 325 564 382 564 q 253 460 288 564 q 219 238 219 357 q 257 151 219 151 m 721 575 q 653 512 686 575 q 603 357 621 449 q 742 431 690 379 q 794 535 794 482 q 721 575 794 575 m 751 1049 l 815 943 q 626 853 650 865 l 536 785 l 472 865 l 751 1049 z "},"Ǿ":{"ha":1032,"x_min":49,"x_max":1026,"o":"m 1026 574 q 868 141 1026 308 q 461 -26 710 -26 q 274 10 361 -26 l 142 -190 l 71 -150 l 203 51 q 49 406 49 165 q 207 838 49 671 q 613 1006 365 1006 q 803 968 717 1006 l 932 1164 l 1006 1124 l 875 925 q 1026 574 1026 810 m 288 378 q 313 218 288 281 l 714 831 q 592 871 667 871 q 361 740 435 871 q 288 378 288 610 m 786 600 q 763 756 786 692 l 363 146 q 481 108 408 108 q 786 600 786 108 m 749 1247 l 797 1131 q 578 1067 604 1075 l 479 1014 l 429 1103 l 749 1247 z "},"ǿ":{"ha":683,"x_min":17,"x_max":690,"o":"m 422 708 q 526 692 483 708 l 618 836 l 690 797 l 596 649 q 660 444 660 585 q 544 119 660 263 q 258 -25 428 -25 q 169 -14 211 -25 l 88 -143 l 17 -104 l 97 22 q 21 252 21 83 q 137 565 21 421 q 422 708 253 708 m 436 553 q 383 581 419 581 q 312 547 346 581 q 258 461 278 514 q 222 239 222 356 l 222 218 l 436 553 m 290 103 q 386 158 347 103 q 458 435 456 258 l 254 117 q 290 103 268 103 m 572 1049 l 636 943 q 447 853 471 865 l 357 785 l 293 865 l 572 1049 z "},"Ș":{"ha":774,"x_min":24,"x_max":765,"o":"m 196 307 q 182 203 182 213 q 193 153 182 194 q 327 114 257 114 q 442 149 397 114 q 488 239 488 183 q 449 332 488 294 q 355 398 410 369 q 245 459 300 426 q 151 549 190 492 q 113 683 113 607 q 214 913 113 826 q 463 1000 315 1000 q 765 950 611 1000 l 708 682 l 594 689 q 610 794 610 789 q 600 839 610 800 q 492 871 553 871 q 390 837 432 871 q 349 751 349 803 q 388 665 349 700 q 481 602 426 631 q 592 541 536 574 q 686 453 647 508 q 725 322 725 397 q 612 73 725 167 q 333 -21 499 -21 q 175 -4 253 -21 q 61 29 97 13 l 24 46 l 83 314 l 196 307 m 306 -250 q 261 -185 261 -232 q 292 -109 261 -137 q 360 -81 324 -81 q 417 -103 397 -81 q 438 -165 438 -125 q 409 -258 438 -204 q 353 -347 381 -312 l 325 -381 l 265 -364 q 306 -250 300 -287 z "},"ș":{"ha":567,"x_min":-4,"x_max":556,"o":"m 349 708 q 497 692 414 708 l 525 686 l 556 632 l 501 453 l 428 457 l 425 575 q 329 608 383 608 q 287 592 303 608 q 271 548 271 575 q 309 481 271 521 q 392 406 347 442 q 476 318 438 371 q 514 213 514 265 q 435 42 514 108 q 239 -25 356 -25 q 10 43 122 -25 l -4 106 l 63 271 l 129 253 l 126 124 q 231 82 174 82 q 304 158 304 82 q 224 267 304 200 q 157 326 190 294 q 76 501 76 404 q 149 653 76 597 q 349 708 221 708 m 193 -250 q 149 -185 149 -232 q 180 -109 149 -137 q 248 -81 211 -81 q 305 -103 285 -81 q 325 -165 325 -125 q 297 -258 325 -204 q 242 -347 269 -312 l 213 -381 l 153 -364 q 193 -250 188 -287 z "},"Ț":{"ha":846,"x_min":71,"x_max":915,"o":"m 793 731 q 796 794 796 774 q 789 858 796 825 q 688 865 731 865 l 619 865 q 592 753 599 799 l 521 268 q 510 107 510 189 l 593 99 l 571 -7 q 307 0 461 0 l 172 -7 l 179 90 l 269 107 q 300 226 294 192 l 369 711 q 381 865 381 772 l 318 865 q 210 858 279 865 q 188 810 194 829 q 168 731 181 790 l 71 738 l 114 968 l 143 993 q 294 979 268 979 l 738 979 l 893 993 l 915 968 l 892 738 l 793 731 m 301 -250 q 257 -185 257 -232 q 288 -109 257 -137 q 356 -81 319 -81 q 413 -103 393 -81 q 433 -165 433 -125 q 406 -258 433 -204 q 350 -347 378 -312 l 321 -381 l 261 -364 q 301 -250 296 -287 z "},"ț":{"ha":458,"x_min":43,"x_max":490,"o":"m 463 575 l 336 575 q 271 117 297 344 l 408 107 l 403 33 l 94 -25 l 47 0 q 150 575 117 276 l 43 575 l 54 665 q 100 683 67 671 q 194 721 176 708 q 272 822 221 738 l 289 850 l 381 821 l 356 686 l 490 686 l 463 575 m 131 -250 q 86 -185 86 -232 q 117 -109 86 -137 q 185 -81 149 -81 q 242 -103 222 -81 q 263 -165 263 -125 q 234 -258 263 -204 q 178 -347 206 -312 l 150 -381 l 90 -364 q 131 -250 125 -287 z "},"ȷ":{"ha":417,"x_min":-83,"x_max":367,"o":"m 313 708 l 367 669 q 302 358 324 490 q 250 -21 281 226 q 111 -199 246 -64 q 38 -272 85 -225 q -18 -326 -10 -318 l -83 -279 q 6 -101 -39 -201 q 56 19 51 0 q 144 571 129 329 l 49 576 l 49 649 l 313 708 z "},"ˆ":{"ha":485,"x_min":53,"x_max":586,"o":"m 349 1063 l 586 864 l 510 783 l 431 857 l 326 919 q 204 857 232 869 l 103 783 l 53 864 l 349 1063 z "},"ˇ":{"ha":485,"x_min":69,"x_max":603,"o":"m 151 1063 l 231 989 q 328 924 257 975 q 443 989 414 975 l 544 1063 l 603 982 l 307 783 l 69 982 l 151 1063 z "},"˘":{"ha":485,"x_min":128,"x_max":547,"o":"m 468 851 q 436 823 468 851 q 308 794 404 794 q 164 850 213 794 q 128 963 128 893 q 132 1010 128 985 l 221 1010 q 219 990 219 1000 q 246 926 219 953 q 324 900 272 900 q 414 929 376 900 q 458 1010 451 958 l 547 1010 q 468 851 532 907 z "},"˙":{"ha":485,"x_min":217,"x_max":433,"o":"m 217 899 q 217 924 217 899 q 250 985 217 949 q 334 1021 283 1021 q 409 997 385 1021 q 433 922 433 972 q 400 836 433 872 q 316 800 367 800 q 241 825 265 800 q 217 899 217 850 z "},"˚":{"ha":485,"x_min":192,"x_max":464,"o":"m 192 911 q 192 941 192 911 q 233 1014 192 971 q 339 1057 274 1057 q 464 946 464 1057 q 423 834 464 876 q 317 792 382 792 q 222 822 251 792 q 192 911 192 851 m 336 976 q 297 958 310 976 q 285 914 285 939 q 321 872 285 872 q 359 891 346 872 q 372 933 372 910 q 336 976 372 976 z "},"˛":{"ha":485,"x_min":108,"x_max":372,"o":"m 258 -129 q 310 -185 258 -185 q 357 -175 332 -185 l 372 -242 q 240 -274 301 -274 q 144 -247 179 -274 q 108 -173 108 -219 q 133 -90 108 -126 q 181 -36 157 -54 q 246 8 204 -18 l 365 8 q 258 -129 258 -56 z "},"˜":{"ha":485,"x_min":82,"x_max":567,"o":"m 497 870 q 476 848 497 870 q 428 825 456 825 q 322 851 400 825 q 222 878 243 878 q 150 833 186 878 l 139 819 l 82 858 q 156 960 117 917 q 223 1004 196 1004 q 329 978 250 1004 q 431 951 408 951 q 497 992 468 951 l 507 1004 l 567 965 q 497 870 539 915 z "},"˝":{"ha":485,"x_min":50,"x_max":658,"o":"m 594 1058 l 658 951 q 454 853 478 865 l 364 785 l 300 865 l 594 1058 m 343 1058 l 399 967 q 203 853 228 869 l 113 785 l 50 865 l 343 1058 z "},"̃":{"ha":485,"x_min":82,"x_max":567,"o":"m 497 870 q 476 848 497 870 q 428 825 456 825 q 322 851 400 825 q 222 878 243 878 q 150 833 186 878 l 139 819 l 82 858 q 156 960 117 917 q 223 1004 196 1004 q 329 978 250 1004 q 431 951 408 951 q 497 992 468 951 l 507 1004 l 567 965 q 497 870 539 915 z "},"̣":{"ha":485,"x_min":58,"x_max":268,"o":"m 58 -209 q 58 -185 58 -209 q 91 -126 58 -161 q 172 -90 124 -90 q 268 -181 268 -90 q 236 -271 268 -236 q 155 -306 204 -306 q 82 -281 106 -306 q 58 -209 58 -257 z "},"Δ":{"ha":944,"x_min":-28,"x_max":854,"o":"m 810 0 l -4 0 l -28 92 l 94 285 l 467 979 l 614 994 q 807 242 800 272 l 854 96 l 810 0 m 192 113 q 278 111 232 111 q 590 117 324 111 q 579 243 583 219 l 469 682 l 231 221 l 192 113 z "},"Ω":{"ha":1203,"x_min":-21,"x_max":1140,"o":"m 92 261 q 108 133 92 206 q 219 118 161 122 l 336 114 q 178 244 232 156 q 125 450 125 332 q 278 845 125 690 q 674 1000 431 1000 q 980 897 872 1000 q 1088 620 1088 794 q 998 308 1088 446 q 751 114 908 171 l 872 118 q 988 133 929 122 q 1044 271 1031 221 l 1140 264 l 1083 19 l 1054 -6 q 896 0 924 0 l 621 0 l 629 178 q 779 337 721 211 q 838 617 838 463 q 790 797 838 729 q 654 865 743 865 q 449 733 528 865 q 371 410 371 600 q 479 178 371 221 l 435 0 l 160 0 l 1 -6 l -21 19 l -6 264 l 92 271 l 92 261 z "},"π":{"ha":961,"x_min":43,"x_max":958,"o":"m 242 714 l 782 690 q 824 708 797 690 q 869 742 851 725 l 889 758 l 958 685 q 769 528 831 543 l 725 232 q 718 156 718 178 q 719 128 718 135 q 790 76 726 108 l 750 -21 q 719 -17 744 -19 q 683 -12 694 -14 q 647 -7 672 -11 q 610 2 622 -3 q 577 15 597 7 q 547 32 557 22 q 526 53 538 42 q 513 118 507 75 q 579 533 531 246 l 419 542 l 375 232 l 346 0 l 286 0 l 154 -3 l 129 24 q 175 190 169 163 q 235 550 197 311 l 222 550 q 179 533 207 550 q 131 500 151 517 l 111 482 l 43 556 q 85 600 60 574 q 163 670 110 626 q 242 714 217 714 z "},"Ẁ":{"ha":1388,"x_min":82,"x_max":1468,"o":"m 1460 885 l 1393 875 q 1322 756 1349 811 l 981 0 l 821 0 l 733 588 l 474 0 l 313 0 l 179 801 l 161 876 l 82 889 l 103 986 q 225 979 175 979 l 513 986 l 504 885 l 415 872 q 408 800 408 851 l 453 288 l 724 938 l 882 938 l 960 288 l 1172 819 q 1181 872 1183 847 l 1099 889 l 1119 986 q 1268 979 1204 979 l 1468 986 l 1460 885 m 967 1117 l 917 1028 l 817 1081 l 599 1144 l 647 1261 l 967 1117 z "},"ẁ":{"ha":1088,"x_min":17,"x_max":1111,"o":"m 942 208 q 906 158 942 208 q 773 41 871 107 q 574 -25 675 -25 q 474 74 474 -25 q 476 149 474 85 q 165 -25 333 -25 q 49 74 49 -25 q 80 273 49 113 q 111 473 111 433 q 108 571 111 513 l 17 576 l 17 649 l 244 708 l 300 669 l 300 524 q 272 341 300 496 q 244 158 244 186 q 278 131 244 131 q 437 244 367 131 q 507 488 507 357 q 486 682 507 510 l 640 707 l 688 682 l 696 524 q 672 341 696 496 q 647 166 647 186 q 658 138 647 146 q 681 131 668 131 q 840 247 763 131 q 917 488 917 364 q 910 571 917 501 l 822 576 l 822 649 l 1057 708 l 1111 669 q 1059 433 1106 556 q 942 208 1013 310 m 790 865 l 726 785 l 636 853 l 447 943 l 511 1049 l 790 865 z "},"Ẃ":{"ha":1388,"x_min":82,"x_max":1468,"o":"m 1460 885 l 1393 875 q 1322 756 1349 811 l 981 0 l 821 0 l 733 588 l 474 0 l 313 0 l 179 801 l 161 876 l 82 889 l 103 986 q 225 979 175 979 l 513 986 l 504 885 l 415 872 q 408 800 408 851 l 453 288 l 724 938 l 882 938 l 960 288 l 1172 819 q 1181 872 1183 847 l 1099 889 l 1119 986 q 1268 979 1204 979 l 1468 986 l 1460 885 m 940 1247 l 989 1131 q 769 1067 796 1075 l 671 1014 l 621 1103 l 940 1247 z "},"ẃ":{"ha":1088,"x_min":17,"x_max":1111,"o":"m 942 208 q 906 158 942 208 q 773 41 871 107 q 574 -25 675 -25 q 474 74 474 -25 q 476 149 474 85 q 165 -25 333 -25 q 49 74 49 -25 q 80 273 49 113 q 111 473 111 433 q 108 571 111 513 l 17 576 l 17 649 l 244 708 l 300 669 l 300 524 q 272 341 300 496 q 244 158 244 186 q 278 131 244 131 q 437 244 367 131 q 507 488 507 357 q 486 682 507 510 l 640 707 l 688 682 l 696 524 q 672 341 696 496 q 647 166 647 186 q 658 138 647 146 q 681 131 668 131 q 840 247 763 131 q 917 488 917 364 q 910 571 917 501 l 822 576 l 822 649 l 1057 708 l 1111 669 q 1059 433 1106 556 q 942 208 1013 310 m 781 1049 l 844 943 q 656 853 679 865 l 565 785 l 501 865 l 781 1049 z "},"Ẅ":{"ha":1388,"x_min":82,"x_max":1468,"o":"m 1460 885 l 1393 875 q 1322 756 1349 811 l 981 0 l 821 0 l 733 588 l 474 0 l 313 0 l 179 801 l 161 876 l 82 889 l 103 986 q 225 979 175 979 l 513 986 l 504 885 l 415 872 q 408 800 408 851 l 453 288 l 724 938 l 882 938 l 960 288 l 1172 819 q 1181 872 1183 847 l 1099 889 l 1119 986 q 1268 979 1204 979 l 1468 986 l 1460 885 m 665 1244 q 743 1165 743 1244 q 715 1083 743 1115 q 643 1051 688 1051 q 578 1073 599 1051 q 558 1138 558 1094 q 587 1213 558 1181 q 665 1244 615 1244 m 985 1244 q 1063 1165 1063 1244 q 1035 1083 1063 1115 q 957 1051 1007 1051 q 879 1131 879 1051 q 907 1213 879 1181 q 985 1244 935 1244 z "},"ẅ":{"ha":1088,"x_min":17,"x_max":1111,"o":"m 942 208 q 906 158 942 208 q 773 41 871 107 q 574 -25 675 -25 q 474 74 474 -25 q 476 149 474 85 q 165 -25 333 -25 q 49 74 49 -25 q 80 273 49 113 q 111 473 111 433 q 108 571 111 513 l 17 576 l 17 649 l 244 708 l 300 669 l 300 524 q 272 341 300 496 q 244 158 244 186 q 278 131 244 131 q 437 244 367 131 q 507 488 507 357 q 486 682 507 510 l 640 707 l 688 682 l 696 524 q 672 341 696 496 q 647 166 647 186 q 658 138 647 146 q 681 131 668 131 q 840 247 763 131 q 917 488 917 364 q 910 571 917 501 l 822 576 l 822 649 l 1057 708 l 1111 669 q 1059 433 1106 556 q 942 208 1013 310 m 500 1007 q 578 928 578 1007 q 549 846 578 878 q 477 814 521 814 q 413 835 433 814 q 392 900 392 857 q 421 975 392 943 q 500 1007 450 1007 m 819 1007 q 897 928 897 1007 q 869 846 897 878 q 797 814 840 814 q 733 835 753 814 q 713 900 713 857 q 741 975 713 943 q 819 1007 769 1007 z "},"Ẽ":{"ha":833,"x_min":17,"x_max":838,"o":"m 294 979 l 660 979 l 815 993 l 838 968 l 815 751 l 717 744 l 717 826 q 708 860 717 843 q 603 865 656 865 l 457 865 q 447 811 456 857 q 436 753 438 765 l 407 554 q 440 553 419 553 l 514 553 q 574 565 542 553 l 599 654 l 682 647 q 664 532 668 560 l 643 356 l 553 347 l 553 431 q 469 439 497 439 l 431 439 q 390 438 399 439 l 365 268 q 347 121 356 211 l 514 121 q 618 132 563 121 q 653 192 638 161 q 679 271 671 236 l 774 264 l 718 19 l 689 -6 q 536 0 564 0 l 151 0 l 17 -7 l 24 90 l 114 107 q 131 162 119 118 q 143 226 142 206 l 214 711 q 226 820 226 788 q 225 865 226 853 l 140 882 l 163 986 q 294 979 244 979 m 769 1149 q 761 1137 769 1149 q 714 1086 753 1125 q 646 1047 675 1047 q 535 1074 617 1047 q 429 1100 453 1100 q 354 1056 392 1100 l 342 1042 l 282 1081 q 359 1182 315 1138 q 431 1226 403 1226 q 543 1200 460 1226 q 650 1174 626 1174 q 721 1214 688 1174 l 732 1226 l 794 1188 q 769 1149 785 1172 z "},"ẽ":{"ha":586,"x_min":10,"x_max":663,"o":"m 361 699 q 585 575 585 699 q 483 382 585 464 q 204 269 382 300 q 201 210 201 249 q 276 110 201 110 q 372 144 317 110 q 471 224 428 179 l 535 168 q 379 30 474 85 q 199 -25 285 -25 q 62 27 114 -25 q 10 188 10 79 q 67 417 10 296 q 207 618 124 538 q 361 699 290 699 m 593 870 q 572 848 593 870 q 524 825 551 825 q 417 851 496 825 q 317 878 339 878 q 247 833 282 878 l 235 819 l 178 858 q 252 960 213 917 q 319 1004 292 1004 q 426 978 346 1004 q 528 951 506 951 q 593 992 564 951 l 603 1004 l 663 965 q 593 870 635 915 m 333 574 q 267 512 300 574 q 217 358 235 450 q 356 431 304 381 q 407 535 407 482 q 333 574 407 574 z "},"Ỳ":{"ha":925,"x_min":71,"x_max":1050,"o":"m 1042 885 l 961 875 q 860 756 888 800 l 590 339 l 581 268 q 569 107 569 186 l 654 99 l 632 -7 q 367 0 522 0 l 233 -7 l 240 90 l 331 107 q 344 160 331 110 q 360 226 357 210 l 378 353 l 201 801 q 158 865 190 832 l 149 876 l 71 889 l 92 986 q 213 979 163 979 l 500 986 l 492 885 l 421 872 q 431 800 424 826 l 531 513 l 724 819 l 735 872 l 681 889 l 701 986 q 850 979 786 979 l 1050 986 l 1042 885 m 751 1117 l 701 1028 l 601 1081 l 383 1144 l 432 1261 l 751 1117 z "},"ỳ":{"ha":749,"x_min":-7,"x_max":732,"o":"m -7 -289 l 53 -124 q 273 -176 168 -176 q 415 -142 378 -176 q 439 -7 439 -121 q 470 123 439 6 q 506 296 501 240 q 358 67 446 160 q 158 -25 271 -25 q 76 7 106 -25 q 47 95 47 39 q 84 317 47 151 q 126 571 121 483 l 31 576 l 31 649 l 296 708 l 351 669 q 249 215 249 314 q 278 154 249 154 q 416 283 344 154 q 531 571 488 413 l 435 576 l 435 649 l 678 708 l 732 669 q 619 21 679 479 q 563 -151 607 -79 q 457 -258 519 -222 q 201 -326 339 -326 q -7 -289 63 -326 m 586 865 l 522 785 l 432 853 l 243 943 l 307 1049 l 586 865 z "},"Ỹ":{"ha":925,"x_min":71,"x_max":1050,"o":"m 1042 885 l 961 875 q 860 756 888 800 l 590 339 l 581 268 q 569 107 569 186 l 654 99 l 632 -7 q 367 0 522 0 l 233 -7 l 240 90 l 331 107 q 344 160 331 110 q 360 226 357 210 l 378 353 l 201 801 q 158 865 190 832 l 149 876 l 71 889 l 92 986 q 213 979 163 979 l 500 986 l 492 885 l 421 872 q 431 800 424 826 l 531 513 l 724 819 l 735 872 l 681 889 l 701 986 q 850 979 786 979 l 1050 986 l 1042 885 m 833 1149 q 825 1137 833 1149 q 778 1086 817 1125 q 710 1047 739 1047 q 599 1074 681 1047 q 493 1100 517 1100 q 418 1056 456 1100 l 406 1042 l 346 1081 q 423 1182 379 1138 q 495 1226 467 1226 q 607 1200 524 1226 q 714 1174 690 1174 q 785 1214 751 1174 l 796 1226 l 858 1188 q 833 1149 849 1172 z "},"ỹ":{"ha":749,"x_min":-7,"x_max":732,"o":"m -7 -289 l 53 -124 q 273 -176 168 -176 q 415 -142 378 -176 q 439 -7 439 -121 q 470 123 439 6 q 506 296 501 240 q 358 67 446 160 q 158 -25 271 -25 q 76 7 106 -25 q 47 95 47 39 q 84 317 47 151 q 126 571 121 483 l 31 576 l 31 649 l 296 708 l 351 669 q 249 215 249 314 q 278 154 249 154 q 416 283 344 154 q 531 571 488 413 l 435 576 l 435 649 l 678 708 l 732 669 q 619 21 679 479 q 563 -151 607 -79 q 457 -258 519 -222 q 201 -326 339 -326 q -7 -289 63 -326 m 632 870 q 611 848 632 870 q 563 825 590 825 q 456 851 535 825 q 356 878 378 878 q 286 833 321 878 l 274 819 l 217 858 q 291 960 251 917 q 358 1004 331 1004 q 465 978 386 1004 q 567 951 544 951 q 632 992 603 951 l 642 1004 l 701 965 q 632 870 674 915 z "},"–":{"ha":642,"x_min":-14,"x_max":700,"o":"m 700 418 l 675 286 l -14 286 l 0 418 l 700 418 z "},"—":{"ha":1297,"x_min":-14,"x_max":1397,"o":"m 1397 418 l 1372 286 l -14 286 l 0 418 l 1397 418 z "},"‘":{"ha":290,"x_min":101,"x_max":343,"o":"m 236 929 q 299 906 275 929 q 322 839 322 883 q 284 754 322 794 q 197 714 246 714 q 124 744 147 714 q 101 824 101 775 q 167 984 101 907 q 336 1069 233 1061 l 343 1029 q 236 929 260 993 z "},"’":{"ha":290,"x_min":92,"x_max":333,"o":"m 199 854 q 136 877 160 854 q 113 944 113 900 q 151 1029 113 989 q 238 1069 189 1069 q 310 1039 288 1069 q 333 960 333 1008 q 267 799 333 876 q 99 714 201 722 l 92 754 q 199 854 175 790 z "},"‚":{"ha":293,"x_min":-24,"x_max":218,"o":"m 83 -46 q 21 -23 44 -46 q -3 44 -3 0 q 35 129 -3 89 q 123 169 74 169 q 195 139 172 169 q 218 60 218 108 q 152 -101 218 -24 q -17 -186 86 -178 l -24 -146 q 83 -46 60 -110 z "},"“":{"ha":568,"x_min":88,"x_max":607,"o":"m 222 929 q 285 906 261 929 q 308 839 308 883 q 270 754 308 794 q 183 714 232 714 q 110 744 133 714 q 88 824 88 775 q 153 984 88 907 q 322 1069 219 1061 l 329 1029 q 222 929 246 993 m 500 929 q 563 906 539 929 q 586 839 586 883 q 548 754 586 794 q 460 714 510 714 q 388 744 411 714 q 365 824 365 775 q 431 984 365 907 q 600 1069 497 1061 l 607 1029 q 500 929 524 993 z "},"”":{"ha":569,"x_min":92,"x_max":613,"o":"m 199 854 q 136 877 160 854 q 113 944 113 900 q 151 1029 113 989 q 238 1069 189 1069 q 310 1039 288 1069 q 333 960 333 1008 q 267 799 333 876 q 99 714 201 722 l 92 754 q 199 854 175 790 m 478 854 q 415 877 439 854 q 392 944 392 900 q 430 1029 392 989 q 517 1069 468 1069 q 590 1039 567 1069 q 613 960 613 1008 q 547 799 613 876 q 378 714 481 722 l 371 754 q 478 854 454 790 z "},"„":{"ha":575,"x_min":-21,"x_max":500,"o":"m 86 -46 q 24 -23 47 -46 q 0 44 0 0 q 38 129 0 89 q 126 169 76 169 q 198 139 175 169 q 221 60 221 108 q 155 -101 221 -24 q -14 -186 89 -178 l -21 -146 q 86 -46 63 -110 m 365 -46 q 303 -23 326 -46 q 279 44 279 0 q 317 129 279 89 q 405 169 356 169 q 477 139 454 169 q 500 60 500 108 q 434 -101 500 -24 q 265 -186 368 -178 l 258 -146 q 365 -46 342 -110 z "},"†":{"ha":739,"x_min":78,"x_max":714,"o":"m 351 714 l 351 1042 l 361 1050 l 528 1064 l 554 1039 q 461 714 471 783 l 351 714 m 332 588 l 443 588 l 386 -117 l 376 -125 l 210 -139 l 183 -114 q 332 588 321 518 m 342 707 l 325 594 l 86 568 l 78 576 l 83 701 l 111 728 q 342 707 256 713 m 450 594 l 467 707 l 707 733 l 714 725 l 710 600 l 681 574 q 450 594 538 589 z "},"‡":{"ha":739,"x_min":78,"x_max":714,"o":"m 351 714 l 351 1042 l 361 1050 l 528 1064 l 554 1039 q 460 714 469 783 l 351 714 m 290 310 l 401 310 l 386 -117 l 376 -125 l 210 -139 l 183 -114 q 290 310 281 240 m 342 707 l 325 594 l 86 568 l 78 576 l 83 701 l 111 728 q 342 707 256 713 m 450 594 l 467 707 l 707 733 l 714 725 l 710 600 l 681 574 q 450 594 538 589 m 301 432 l 285 319 l 88 293 l 81 301 l 85 426 l 113 453 q 301 432 215 438 m 410 319 l 426 432 l 625 458 l 632 450 l 628 325 l 599 299 q 410 319 497 314 m 421 435 l 310 435 l 332 588 l 443 588 q 421 435 439 583 z "},"•":{"ha":361,"x_min":56,"x_max":293,"o":"m 56 333 q 56 363 56 333 q 95 442 56 392 q 187 493 135 493 q 266 463 239 493 q 293 373 293 432 q 253 263 293 314 q 162 211 214 211 q 83 243 110 211 q 56 333 56 275 z "},"․":{"ha":303,"x_min":21,"x_max":214,"o":"m 21 81 q 21 105 21 81 q 53 172 21 129 q 128 214 85 214 q 192 188 171 214 q 214 113 214 163 q 182 22 214 64 q 107 -21 150 -21 q 42 6 64 -21 q 21 81 21 32 z "},"‥":{"ha":576,"x_min":35,"x_max":500,"o":"m 35 78 q 35 102 35 78 q 67 167 35 126 q 141 208 99 208 q 204 183 183 208 q 225 110 225 158 q 193 21 225 63 q 119 -21 161 -21 q 56 5 78 -21 q 35 78 35 31 m 310 78 q 310 102 310 78 q 342 167 310 126 q 416 208 374 208 q 479 183 458 208 q 500 110 500 158 q 468 21 500 63 q 394 -21 436 -21 q 331 5 353 -21 q 310 78 310 31 z "},"…":{"ha":851,"x_min":35,"x_max":775,"o":"m 35 78 q 35 102 35 78 q 67 167 35 126 q 141 208 99 208 q 204 183 183 208 q 225 110 225 158 q 193 21 225 63 q 119 -21 161 -21 q 56 5 78 -21 q 35 78 35 31 m 310 78 q 310 102 310 78 q 342 167 310 126 q 416 208 374 208 q 479 183 458 208 q 500 110 500 158 q 468 21 500 63 q 394 -21 436 -21 q 331 5 353 -21 q 310 78 310 31 m 585 78 q 585 102 585 78 q 617 167 585 126 q 691 208 649 208 q 754 183 733 208 q 775 110 775 158 q 743 21 775 63 q 669 -21 711 -21 q 606 5 628 -21 q 585 78 585 31 z "},"‰":{"ha":1768,"x_min":74,"x_max":1728,"o":"m 671 217 q 744 453 671 356 q 961 551 817 551 q 1119 488 1068 551 q 1171 322 1171 424 q 1097 87 1171 185 q 879 -11 1024 -11 q 722 52 772 -11 q 671 217 671 115 m 1015 332 q 947 456 1015 456 q 861 370 897 456 q 825 208 825 285 q 893 85 825 85 q 980 171 944 85 q 1015 332 1015 257 m 1228 218 q 1301 453 1228 356 q 1519 551 1375 551 q 1676 488 1625 551 q 1728 322 1728 424 q 1655 87 1728 185 q 1438 -11 1582 -11 q 1279 53 1331 -11 q 1228 218 1228 117 m 1574 331 q 1506 456 1574 456 q 1419 369 1454 456 q 1383 207 1383 283 q 1451 85 1383 85 q 1538 170 1501 85 q 1574 331 1574 256 m 74 665 q 144 894 74 799 q 353 989 214 989 q 503 927 454 989 q 553 768 553 865 q 482 539 553 635 q 274 443 411 443 q 122 505 171 443 q 74 665 74 567 m 404 778 q 339 897 404 897 q 258 813 292 897 q 224 656 224 729 q 286 536 224 536 q 369 620 335 536 q 404 778 404 704 m 893 1000 l 978 938 l 261 -68 l 174 -6 l 893 1000 z "},"‹":{"ha":338,"x_min":17,"x_max":360,"o":"m 283 76 l 182 14 l 17 336 l 275 658 l 360 596 l 175 336 l 283 76 z "},"›":{"ha":339,"x_min":-10,"x_max":333,"o":"m 65 596 l 167 658 l 333 336 l 74 14 l -10 76 l 174 336 l 65 596 z "},"⁄":{"ha":135,"x_min":-353,"x_max":451,"o":"m 367 1000 l 451 938 l -267 -68 l -353 -6 l 367 1000 z "},"⁰":{"ha":517,"x_min":96,"x_max":581,"o":"m 96 864 q 176 1121 96 1019 q 383 1222 256 1222 q 530 1160 479 1222 q 581 975 581 1097 q 501 717 581 818 q 296 615 422 615 q 148 678 200 615 q 96 864 96 742 m 313 697 q 394 778 365 697 q 424 965 424 860 q 411 1106 424 1071 q 365 1142 399 1142 q 283 1060 313 1142 q 254 874 254 979 q 267 733 254 768 q 313 697 279 697 z "},"⁴":{"ha":519,"x_min":89,"x_max":563,"o":"m 464 1292 l 549 1210 q 432 1103 447 1124 l 229 875 l 338 875 l 349 954 l 494 1001 l 478 883 l 563 888 l 547 786 l 464 786 l 461 768 q 458 696 460 758 l 513 692 l 500 621 q 313 625 417 625 l 213 621 l 217 686 l 303 696 q 308 718 306 708 q 314 739 311 728 q 319 760 317 750 q 324 786 322 778 l 150 786 l 89 876 l 464 1292 z "},"⁵":{"ha":450,"x_min":76,"x_max":506,"o":"m 363 1086 l 272 1086 q 247 972 264 1043 q 299 974 264 974 q 430 934 385 974 q 475 824 475 894 q 88 531 475 592 l 76 603 q 272 678 225 636 q 318 794 318 719 q 236 875 318 875 q 156 863 200 875 l 121 917 l 185 1197 l 204 1214 l 288 1214 l 506 1222 l 493 1097 q 363 1086 389 1086 z "},"⁶":{"ha":510,"x_min":94,"x_max":578,"o":"m 382 1000 q 501 960 460 1000 q 543 847 543 921 q 472 683 543 750 q 304 615 401 615 q 151 669 207 615 q 94 810 94 722 q 224 1115 94 968 q 571 1300 354 1263 l 578 1236 q 390 1122 467 1200 q 251 806 251 983 q 304 704 251 704 q 356 731 336 704 q 385 849 385 772 q 340 925 385 925 q 317 922 322 925 l 322 992 q 382 1000 347 1000 z "},"⁷":{"ha":467,"x_min":85,"x_max":586,"o":"m 286 1214 l 582 1214 l 586 1146 l 206 531 l 85 575 l 344 960 q 377 1015 354 972 q 408 1083 400 1057 l 275 1083 q 232 1081 274 1083 q 213 1042 228 1067 l 199 1000 l 124 1003 l 163 1204 l 182 1222 q 286 1214 267 1214 z "},"⁸":{"ha":500,"x_min":86,"x_max":556,"o":"m 231 932 q 153 1070 153 990 q 219 1195 153 1150 q 369 1240 286 1240 q 503 1205 451 1240 q 556 1110 556 1169 q 432 943 556 1021 q 528 790 528 876 q 456 660 528 704 q 292 615 385 615 q 143 650 200 615 q 86 754 86 685 q 231 932 86 854 m 306 885 q 229 761 229 828 q 296 694 229 694 q 383 782 383 694 q 364 838 383 815 q 306 885 344 860 m 415 1106 q 401 1147 415 1132 q 363 1163 388 1163 q 316 1141 338 1163 q 294 1083 294 1119 q 358 988 294 1032 q 415 1106 415 1047 z "},"⁹":{"ha":508,"x_min":90,"x_max":574,"o":"m 286 838 q 167 878 208 838 q 126 990 126 918 q 197 1156 126 1089 q 365 1222 268 1222 q 518 1169 463 1222 q 574 1022 574 1115 q 521 826 574 929 q 357 640 468 724 q 101 531 246 556 l 90 603 q 233 664 171 622 q 329 752 296 706 q 383 854 363 799 q 418 1038 418 942 q 365 1133 418 1133 q 302 1090 321 1133 q 283 996 283 1046 q 328 913 283 913 q 351 915 343 913 l 346 846 q 286 838 308 838 z "},"ⁿ":{"ha":556,"x_min":94,"x_max":589,"o":"m 501 1086 q 556 1065 536 1086 q 575 1006 575 1044 q 554 860 575 968 q 528 703 533 753 l 589 697 l 585 646 l 396 608 l 363 625 q 435 911 435 860 q 417 963 435 963 q 316 858 371 963 q 246 658 261 754 q 240 625 244 651 l 128 608 l 94 625 q 167 994 160 861 l 107 999 l 107 1047 l 286 1086 l 325 1060 q 271 879 290 967 q 501 1086 367 1086 z "},"₀":{"ha":558,"x_min":-17,"x_max":483,"o":"m -17 108 q 66 373 -17 268 q 281 478 149 478 q 431 413 379 478 q 483 222 483 349 q 402 -44 483 60 q 190 -149 321 -149 q 38 -83 92 -149 q -17 108 -17 -18 m 207 -64 q 292 20 261 -64 q 322 213 322 104 q 309 358 322 321 q 261 394 296 394 q 177 310 207 394 q 147 117 147 226 q 160 -28 147 8 q 207 -64 174 -64 z "},"₁":{"ha":433,"x_min":3,"x_max":340,"o":"m 267 46 q 260 -26 260 0 q 261 -64 260 -51 l 331 -69 l 314 -143 q 125 -139 239 -139 l 3 -143 l 8 -75 l 93 -64 l 97 -50 q 114 17 113 8 l 157 304 l 58 272 l 31 333 q 179 433 157 418 l 232 486 l 340 475 q 299 257 306 304 l 267 46 z "},"₂":{"ha":544,"x_min":-49,"x_max":443,"o":"m 47 444 q 242 478 144 478 q 392 441 340 478 q 443 336 443 404 q 377 188 443 268 q 156 -10 311 107 l 239 -10 q 325 0 286 -10 q 338 28 333 18 q 343 40 343 39 l 354 71 l 432 65 l 397 -124 l 364 -142 q 265 -139 282 -139 l -49 -139 l -47 -42 q 213 184 153 117 q 274 317 274 251 q 207 379 274 379 q 126 357 168 379 q 114 324 117 340 l 107 285 l 26 279 l 47 444 z "},"₃":{"ha":489,"x_min":-61,"x_max":396,"o":"m 204 478 q 396 338 396 478 q 271 169 396 229 q 348 122 317 160 q 379 38 379 83 q 253 -144 379 -64 q -50 -236 128 -225 l -61 -161 q 134 -97 60 -150 q 208 33 208 -43 q 135 110 208 110 l 78 106 l 76 178 q 199 233 156 192 q 243 335 243 275 q 185 389 243 389 q 117 381 156 389 l 108 354 l 99 294 l 17 290 l 28 450 q 204 478 111 478 z "},"₄":{"ha":560,"x_min":-26,"x_max":468,"o":"m 365 549 l 453 465 q 331 354 347 375 l 118 118 l 232 118 l 244 200 l 396 249 l 379 126 l 468 132 l 451 28 l 364 28 l 361 8 q 358 -65 360 0 l 415 -71 l 401 -143 q 207 -139 317 -139 l 101 -143 l 107 -76 l 197 -65 l 201 -50 q 219 28 207 -25 l 36 28 l -26 119 l 365 549 z "},"₅":{"ha":486,"x_min":-40,"x_max":408,"o":"m 258 338 l 164 338 q 138 218 154 292 q 192 221 174 221 q 329 180 282 221 q 376 67 376 139 q -29 -236 376 -174 l -40 -162 q 164 -85 114 -128 q 214 36 214 -42 q 126 118 214 118 q 43 106 89 118 l 6 161 l 74 451 l 94 468 l 181 468 l 408 478 l 394 349 q 258 338 286 338 z "},"₆":{"ha":549,"x_min":-21,"x_max":483,"o":"m 236 171 q 210 168 229 171 l 215 239 q 279 247 243 247 q 403 206 360 247 q 447 90 447 165 q 374 -79 447 -10 q 198 -149 300 -149 q 38 -93 96 -149 q -21 51 -21 -37 q 115 366 -21 214 q 476 556 251 518 l 483 492 q 288 375 368 454 q 142 47 142 232 q 199 -57 142 -57 q 253 -29 232 -57 q 283 68 283 14 q 236 171 283 171 z "},"₇":{"ha":504,"x_min":-31,"x_max":492,"o":"m 181 468 l 488 468 l 492 399 l 96 -236 l -31 -192 l 242 207 q 308 335 293 289 l 168 335 q 122 332 164 335 q 117 319 121 326 q 103 290 110 306 l 88 249 l 10 251 l 50 457 l 71 476 q 181 468 160 468 z "},"₈":{"ha":538,"x_min":-31,"x_max":460,"o":"m 122 178 q 40 321 40 239 q 110 449 40 403 q 265 496 179 496 q 406 460 351 496 q 460 361 460 424 q 329 189 460 271 q 431 33 431 122 q 356 -103 431 -57 q 185 -149 282 -149 q 29 -112 89 -149 q -31 -6 -31 -76 q 122 178 -31 97 m 199 129 q 118 0 118 68 q 189 -68 118 -68 q 281 24 281 -68 q 260 81 281 57 q 199 129 239 104 m 315 357 q 301 400 315 385 q 259 415 286 415 q 209 393 232 415 q 186 333 186 371 q 254 235 186 278 q 315 357 315 296 z "},"₉":{"ha":547,"x_min":-26,"x_max":479,"o":"m 222 158 l 247 160 l 242 89 q 179 81 217 81 q 55 122 99 81 q 11 239 11 164 q 85 408 11 339 q 261 478 160 478 q 421 422 363 478 q 479 284 479 367 q 447 121 479 201 q 353 -33 414 40 q 197 -162 293 -107 q -15 -236 100 -217 l -26 -162 q 124 -99 58 -142 q 224 -8 189 -56 q 282 97 260 40 q 318 289 318 192 q 261 386 318 386 q 208 358 229 386 q 175 243 175 315 q 188 182 175 206 q 222 158 200 158 m 247 161 l 247 160 l 247 161 z "},"€":{"ha":883,"x_min":42,"x_max":882,"o":"m 628 813 q 501 746 556 813 q 417 568 447 679 l 640 578 l 629 489 l 399 478 q 390 406 397 474 l 626 417 l 615 328 l 388 317 q 425 153 389 217 q 524 89 461 89 q 660 104 588 89 l 715 267 l 797 263 l 772 19 q 493 -25 597 -25 q 240 63 331 -25 q 140 306 150 151 l 42 301 l 53 392 l 140 394 q 147 467 143 443 l 56 463 l 67 553 l 165 557 q 332 827 213 728 q 624 926 451 926 q 856 899 704 926 l 882 858 l 817 629 l 735 633 l 739 797 q 628 813 668 813 z "},"™":{"ha":742,"x_min":85,"x_max":774,"o":"m 657 979 l 719 979 l 774 981 l 769 943 l 742 938 l 739 915 l 724 715 q 726 693 726 707 l 751 690 l 743 651 q 661 654 715 654 l 611 651 l 615 689 l 644 693 l 651 729 l 668 875 l 563 654 l 508 654 l 472 875 l 442 729 l 438 693 l 465 690 l 457 651 q 383 654 440 654 l 338 651 l 342 689 l 371 693 q 379 715 374 699 l 419 915 q 421 938 421 919 l 396 943 l 403 981 q 443 976 417 979 l 526 976 l 535 969 q 542 900 539 922 l 561 769 l 625 910 l 649 969 l 657 979 m 328 890 l 331 924 q 328 931 331 925 q 296 935 319 935 l 278 935 q 269 906 269 910 l 247 751 q 243 696 243 726 l 265 693 l 256 651 q 167 654 226 654 l 117 651 l 122 690 l 149 696 l 158 738 l 179 874 q 183 935 183 906 l 167 935 q 131 931 144 935 q 121 890 121 901 l 85 892 l 100 974 l 110 983 q 160 979 151 979 l 313 979 l 363 983 l 371 974 l 364 892 l 328 890 z "},"℮":{"ha":1107,"x_min":56,"x_max":1079,"o":"m 250 432 q 243 426 243 432 l 243 175 q 256 146 243 161 q 576 11 382 11 q 899 163 769 11 l 974 163 q 796 31 903 79 q 568 -17 689 -17 q 206 118 357 -17 q 56 444 56 253 q 206 769 56 635 q 567 904 356 904 q 929 769 779 904 q 1079 443 1079 635 l 1079 432 l 250 432 m 893 717 q 879 747 893 733 q 568 876 750 876 q 257 743 386 876 q 243 711 243 729 l 243 464 q 250 457 243 457 l 886 457 q 893 464 893 457 l 893 717 z "},"∂":{"ha":808,"x_min":54,"x_max":769,"o":"m 458 892 q 296 856 386 892 l 274 938 q 471 1000 383 1000 q 615 972 558 1000 q 706 893 672 944 q 769 652 769 794 q 743 397 769 510 q 665 191 717 285 q 527 41 614 97 q 324 -15 440 -15 q 131 53 207 -15 q 54 231 54 121 q 161 467 54 374 q 418 560 268 560 q 551 532 482 560 l 526 440 q 414 450 458 450 q 281 383 332 450 q 229 244 229 317 q 349 92 229 92 q 451 135 406 92 q 523 243 496 179 q 568 386 550 307 q 599 644 599 519 q 458 892 599 892 z "},"∏":{"ha":860,"x_min":44,"x_max":926,"o":"m 794 839 l 632 -317 l 472 -317 l 640 838 l 365 835 l 204 -317 l 44 -317 l 213 833 l 100 833 l 122 979 l 926 979 l 906 840 l 794 839 z "},"∑":{"ha":778,"x_min":-25,"x_max":786,"o":"m -25 -317 l -25 -224 l 435 338 l 150 889 l 178 979 l 786 979 l 765 840 l 354 847 l 613 339 l 189 -185 l 654 -178 l 633 -317 l -25 -317 z "},"−":{"ha":807,"x_min":76,"x_max":729,"o":"m 708 289 l 76 282 l 97 429 l 729 429 l 708 289 z "},"√":{"ha":914,"x_min":40,"x_max":1004,"o":"m 511 151 l 857 1001 l 1004 964 l 535 -125 l 399 -125 l 303 532 l 56 465 l 40 619 l 446 718 l 511 151 z "},"∞":{"ha":1042,"x_min":18,"x_max":1022,"o":"m 826 799 q 974 728 926 799 q 1022 552 1022 658 q 990 353 1022 446 q 889 197 958 261 q 726 132 819 132 q 506 308 596 132 q 214 131 372 131 q 66 201 114 131 q 18 377 18 271 q 50 576 18 483 q 151 733 82 668 q 314 797 221 797 q 538 625 454 797 q 826 799 671 799 m 283 594 q 174 553 218 594 q 129 450 129 513 q 243 333 129 333 q 351 374 306 333 q 450 494 396 414 q 283 594 376 594 m 757 335 q 867 376 822 335 q 911 479 911 417 q 797 596 911 596 q 690 556 735 596 q 592 436 644 515 q 757 335 663 335 z "},"∫":{"ha":600,"x_min":-25,"x_max":626,"o":"m 67 -326 q -25 -310 17 -326 l 13 -206 q 81 -215 44 -215 q 196 -89 178 -215 q 226 319 210 4 q 259 749 242 633 q 348 928 276 864 q 535 993 419 993 q 626 976 576 993 l 589 872 q 521 882 557 882 q 406 756 424 882 q 376 348 392 663 q 342 -82 360 33 q 253 -262 325 -197 q 67 -326 182 -326 z "},"≈":{"ha":839,"x_min":76,"x_max":761,"o":"m 726 205 q 715 191 726 205 q 654 133 704 178 q 567 89 604 89 q 406 131 531 89 q 256 172 282 172 q 160 122 208 172 l 143 104 l 76 167 q 112 212 90 185 q 183 283 133 239 q 264 328 233 328 q 436 286 315 328 q 583 244 557 244 q 678 294 629 244 l 694 313 l 761 250 q 726 205 747 232 m 726 483 q 715 469 726 483 q 654 411 704 456 q 567 367 604 367 q 406 408 531 367 q 256 450 282 450 q 160 400 208 450 l 143 382 l 76 444 q 112 490 90 463 q 183 561 133 517 q 264 606 233 606 q 436 564 315 606 q 583 522 557 522 q 678 572 629 522 l 694 590 l 761 528 q 726 483 747 510 z "},"≠":{"ha":826,"x_min":67,"x_max":758,"o":"m 253 -26 l 128 -4 l 214 138 l 67 136 l 88 283 l 303 283 l 375 403 l 106 400 l 126 547 l 464 547 l 565 714 l 690 692 l 601 547 l 758 547 l 738 407 l 515 404 l 442 283 l 719 283 l 700 143 l 353 139 l 253 -26 z "},"≤":{"ha":807,"x_min":28,"x_max":692,"o":"m 46 126 l 679 133 l 660 0 l 28 0 l 46 126 m 382 492 l 633 293 l 531 178 l 144 492 l 622 806 l 692 690 l 382 492 z "},"≥":{"ha":807,"x_min":28,"x_max":679,"o":"m 47 126 l 679 133 l 660 0 l 28 0 l 47 126 m 438 490 l 186 689 l 289 804 l 675 490 l 197 176 l 128 292 l 438 490 z "},"◊":{"ha":839,"x_min":54,"x_max":782,"o":"m 476 792 l 782 394 l 361 3 l 54 394 l 476 792 m 389 192 l 606 396 l 449 601 l 231 396 l 389 192 z "},"ﬁ":{"ha":882,"x_min":-236,"x_max":850,"o":"m 475 576 l 361 576 q 294 94 319 322 q 249 -79 283 -3 q 168 -201 214 -156 q 64 -276 122 -247 q -160 -326 -37 -326 q -236 -322 -200 -326 l -175 -169 q -96 -178 -125 -178 q 40 -143 -1 -178 q 88 4 61 -125 q 179 576 143 283 l 57 576 l 67 667 q 181 712 165 701 q 210 764 196 722 q 358 986 242 903 q 633 1069 475 1069 q 792 1042 733 1069 q 850 944 850 1015 q 815 855 850 896 q 735 814 781 814 q 644 903 644 814 l 644 915 q 571 922 610 922 q 489 910 532 922 q 435 882 446 899 q 381 686 414 853 l 531 686 q 774 708 596 686 l 828 669 q 728 115 757 392 l 838 107 l 832 33 l 554 -25 l 507 0 q 606 571 588 304 q 475 576 517 576 z "},"ﬂ":{"ha":860,"x_min":-246,"x_max":842,"o":"m 618 914 q 550 919 576 919 q 481 908 524 919 q 428 881 439 897 q 375 686 406 846 l 524 686 l 494 575 l 354 575 q 316 307 336 463 q 281 66 296 151 q 246 -67 267 -19 q 131 -225 206 -164 q -17 -306 56 -286 q -150 -326 -89 -326 q -246 -322 -211 -326 l -185 -167 q -104 -175 -132 -175 q 31 -142 -10 -175 q 76 -39 57 -119 q 103 88 94 42 q 124 215 113 135 q 140 338 135 296 q 156 467 146 381 q 169 575 167 554 l 47 575 l 57 667 q 165 708 153 700 q 183 725 176 715 q 200 764 193 742 q 349 985 232 901 q 625 1069 467 1069 l 794 1069 l 842 1031 q 697 115 731 422 l 803 107 l 797 33 l 519 -25 l 472 0 q 564 458 525 188 q 618 914 603 728 z "}}}
